mononoki-Bold-Italic.ufo
<glyph name="dollar" format="2">
	<advance width="575"/>
	<unicode hex="0024"/>
	<outline>
		<contour>
			<point x="273" y="-167" type="curve" smooth="yes"/>
			<point x="298" y="-5" type="line"/>
			<point x="434" y="15"/>
			<point x="517" y="91"/>
			<point x="517" y="197" type="curve" smooth="yes"/>
			<point x="517" y="293"/>
			<point x="447" y="347"/>
			<point x="304" y="363" type="curve" smooth="yes"/>
			<point x="217" y="373"/>
			<point x="184" y="394"/>
			<point x="184" y="441" type="curve" smooth="yes"/>
			<point x="184" y="500"/>
			<point x="241" y="534"/>
			<point x="342" y="534" type="curve" smooth="yes"/>
			<point x="366" y="534"/>
			<point x="429" y="532"/>
			<point x="477" y="523" type="curve" smooth="yes"/>
			<point x="498" y="519"/>
			<point x="514" y="528"/>
			<point x="521" y="547" type="curve" smooth="yes"/>
			<point x="532" y="573" type="line" smooth="yes"/>
			<point x="541" y="594"/>
			<point x="533" y="612"/>
			<point x="512" y="618" type="curve"/>
			<point x="511" y="618" type="line"/>
			<point x="473" y="624"/>
			<point x="432" y="627"/>
			<point x="399" y="629" type="curve"/>
			<point x="423" y="783" type="line" smooth="yes"/>
			<point x="427" y="806"/>
			<point x="415" y="820"/>
			<point x="392" y="820" type="curve" smooth="yes"/>
			<point x="357" y="820" type="line" smooth="yes"/>
			<point x="336" y="820"/>
			<point x="322" y="808"/>
			<point x="318" y="787" type="curve" smooth="yes"/>
			<point x="293" y="626" type="line"/>
			<point x="157" y="610"/>
			<point x="77" y="535"/>
			<point x="77" y="423" type="curve" smooth="yes"/>
			<point x="77" y="327"/>
			<point x="140" y="282"/>
			<point x="290" y="266" type="curve" smooth="yes"/>
			<point x="372" y="257"/>
			<point x="411" y="231"/>
			<point x="411" y="187" type="curve" smooth="yes"/>
			<point x="411" y="127"/>
			<point x="341" y="87"/>
			<point x="230" y="87" type="curve" smooth="yes"/>
			<point x="201" y="87"/>
			<point x="131" y="88"/>
			<point x="73" y="99" type="curve" smooth="yes"/>
			<point x="72" y="99" type="line" smooth="yes"/>
			<point x="51" y="102"/>
			<point x="36" y="92"/>
			<point x="29" y="73" type="curve" smooth="yes"/>
			<point x="19" y="47" type="line" smooth="yes"/>
			<point x="10" y="24"/>
			<point x="19" y="7"/>
			<point x="41" y="3" type="curve" smooth="yes"/>
			<point x="93" y="-6"/>
			<point x="153" y="-9"/>
			<point x="192" y="-10" type="curve"/>
			<point x="168" y="-163" type="line" smooth="yes"/>
			<point x="164" y="-186"/>
			<point x="176" y="-200"/>
			<point x="199" y="-200" type="curve" smooth="yes"/>
			<point x="234" y="-200" type="line" smooth="yes"/>
			<point x="255" y="-200"/>
			<point x="269" y="-188"/>
		</contour>
	</outline>
</glyph>
<glyph name="percent" format="2">
	<advance width="575"/>
	<unicode hex="0025"/>
	<outline>
		<contour>
			<point x="245" y="620" type="curve"/>
			<point x="145" y="620" type="line"/>
			<point x="124" y="620"/>
			<point x="108" y="606"/>
			<point x="104" y="585" type="curve"/>
			<point x="90" y="495" type="line"/>
			<point x="87" y="475"/>
			<point x="100" y="460"/>
			<point x="120" y="460" type="curve"/>
			<point x="220" y="460" type="line"/>
			<point x="240" y="460"/>
			<point x="257" y="475"/>
			<point x="260" y="495" type="curve"/>
			<point x="274" y="585" type="line"/>
			<point x="278" y="606"/>
			<point x="265" y="620"/>
		</contour>
		<contour>
			<point x="19" y="90" type="curve"/>
			<point x="39" y="69" type="line"/>
			<point x="52" y="55"/>
			<point x="72" y="55"/>
			<point x="88" y="69" type="curve"/>
			<point x="566" y="482" type="line"/>
			<point x="582" y="496"/>
			<point x="586" y="517"/>
			<point x="573" y="531" type="curve"/>
			<point x="552" y="553" type="line"/>
			<point x="539" y="566"/>
			<point x="519" y="565"/>
			<point x="503" y="551" type="curve"/>
			<point x="26" y="139" type="line"/>
			<point x="8" y="124"/>
			<point x="6" y="103"/>
		</contour>
		<contour>
			<point x="472" y="160" type="curve"/>
			<point x="372" y="160" type="line"/>
			<point x="351" y="160"/>
			<point x="335" y="146"/>
			<point x="332" y="125" type="curve"/>
			<point x="317" y="35" type="line"/>
			<point x="314" y="15"/>
			<point x="327" y="0"/>
			<point x="347" y="0" type="curve"/>
			<point x="447" y="0" type="line"/>
			<point x="467" y="0"/>
			<point x="484" y="15"/>
			<point x="487" y="35" type="curve"/>
			<point x="502" y="125" type="line"/>
			<point x="505" y="146"/>
			<point x="492" y="160"/>
		</contour>
	</outline>
</glyph>
<glyph name="parenleft" format="2">
	<advance width="575"/>
	<unicode hex="0028"/>
	<outline>
		<contour>
			<point x="542" y="697" type="curve" smooth="yes"/>
			<point x="546" y="723" type="line" smooth="yes"/>
			<point x="550" y="746"/>
			<point x="538" y="760"/>
			<point x="515" y="760" type="curve" smooth="yes"/>
			<point x="279" y="760"/>
			<point x="102" y="445"/>
			<point x="102" y="178" type="curve" smooth="yes"/>
			<point x="102" y="-37"/>
			<point x="211" y="-188"/>
			<point x="368" y="-188" type="curve" smooth="yes"/>
			<point x="389" y="-188"/>
			<point x="403" y="-176"/>
			<point x="407" y="-155" type="curve" smooth="yes"/>
			<point x="411" y="-129" type="line" smooth="yes"/>
			<point x="415" y="-106"/>
			<point x="403" y="-92"/>
			<point x="380" y="-92" type="curve" smooth="yes"/>
			<point x="278" y="-92"/>
			<point x="208" y="20"/>
			<point x="208" y="184" type="curve" smooth="yes"/>
			<point x="208" y="394"/>
			<point x="330" y="664"/>
			<point x="503" y="664" type="curve" smooth="yes"/>
			<point x="525" y="664"/>
			<point x="538" y="676"/>
		</contour>
	</outline>
</glyph>
<glyph name="asterisk" format="2">
	<advance width="575"/>
	<unicode hex="002A"/>
	<outline>
		<contour>
			<point x="550" y="322" type="curve" smooth="yes"/>
			<point x="544" y="357" type="line" smooth="yes"/>
			<point x="540" y="378"/>
			<point x="523" y="387"/>
			<point x="502" y="381" type="curve" smooth="yes"/>
			<point x="351" y="333" type="line"/>
			<point x="376" y="483" type="line"/>
			<point x="379" y="507"/>
			<point x="367" y="520"/>
			<point x="345" y="520" type="curve" smooth="yes"/>
			<point x="310" y="520" type="line" smooth="yes"/>
			<point x="288" y="520"/>
			<point x="274" y="507"/>
			<point x="271" y="486" type="curve" smooth="yes"/>
			<point x="246" y="332" type="line"/>
			<point x="109" y="380" type="line" smooth="yes"/>
			<point x="88" y="387"/>
			<point x="71" y="379"/>
			<point x="62" y="359" type="curve" smooth="yes"/>
			<point x="46" y="325" type="line"/>
			<point x="36" y="306"/>
			<point x="42" y="288"/>
			<point x="63" y="281" type="curve" smooth="yes"/>
			<point x="183" y="239" type="line"/>
			<point x="69" y="111" type="line" smooth="yes"/>
			<point x="53" y="93"/>
			<point x="54" y="73"/>
			<point x="70" y="61" type="curve"/>
			<point x="95" y="40" type="line"/>
			<point x="111" y="28"/>
			<point x="129" y="30"/>
			<point x="145" y="47" type="curve"/>
			<point x="146" y="47" type="line"/>
			<point x="278" y="199" type="line"/>
			<point x="362" y="49" type="line"/>
			<point x="374" y="31"/>
			<point x="392" y="28"/>
			<point x="412" y="41" type="curve" smooth="yes"/>
			<point x="443" y="61" type="line" smooth="yes"/>
			<point x="461" y="73"/>
			<point x="466" y="91"/>
			<point x="457" y="109" type="curve"/>
			<point x="385" y="238" type="line"/>
			<point x="522" y="280" type="line"/>
			<point x="542" y="287"/>
			<point x="553" y="302"/>
		</contour>
	</outline>
</glyph>
<glyph name="zero" format="2">
	<advance width="575"/>
	<unicode hex="0030"/>
	<outline>
		<contour>
			<point x="361" y="730" type="curve" smooth="yes"/>
			<point x="159" y="730"/>
			<point x="52" y="474"/>
			<point x="52" y="261" type="curve" smooth="yes"/>
			<point x="52" y="88"/>
			<point x="122" y="-10"/>
			<point x="247" y="-10" type="curve" smooth="yes"/>
			<point x="448" y="-10"/>
			<point x="555" y="247"/>
			<point x="555" y="459" type="curve" smooth="yes"/>
			<point x="555" y="631"/>
			<point x="485" y="730"/>
		</contour>
		<contour>
			<point x="349" y="634" type="curve" smooth="yes"/>
			<point x="398" y="634"/>
			<point x="431" y="599"/>
			<point x="444" y="530" type="curve"/>
			<point x="157" y="283" type="line"/>
			<point x="161" y="429"/>
			<point x="227" y="634"/>
		</contour>
		<contour>
			<point x="259" y="87" type="curve" smooth="yes"/>
			<point x="210" y="87"/>
			<point x="177" y="123"/>
			<point x="163" y="192" type="curve"/>
			<point x="450" y="439" type="line"/>
			<point x="446" y="292"/>
			<point x="381" y="87"/>
		</contour>
	</outline>
</glyph>
<glyph name="one" format="2">
	<advance width="575"/>
	<unicode hex="0031"/>
	<outline>
		<contour>
			<point x="439" y="97" type="curve"/>
			<point x="346" y="97" type="line"/>
			<point x="439" y="685" type="line"/>
			<point x="442" y="705"/>
			<point x="430" y="720"/>
			<point x="410" y="720" type="curve"/>
			<point x="391" y="720" type="line"/>
			<point x="374" y="720"/>
			<point x="358" y="711"/>
			<point x="349" y="694" type="curve"/>
			<point x="314" y="636"/>
			<point x="263" y="617"/>
			<point x="167" y="617" type="curve"/>
			<point x="147" y="617"/>
			<point x="129" y="602"/>
			<point x="126" y="582" type="curve"/>
			<point x="122" y="555" type="line"/>
			<point x="119" y="535"/>
			<point x="131" y="520"/>
			<point x="151" y="520" type="curve"/>
			<point x="308" y="520" type="line"/>
			<point x="241" y="97" type="line"/>
			<point x="84" y="97" type="line"/>
			<point x="64" y="97"/>
			<point x="47" y="82"/>
			<point x="44" y="62" type="curve"/>
			<point x="39" y="35" type="line"/>
			<point x="36" y="15"/>
			<point x="49" y="0"/>
			<point x="69" y="0" type="curve"/>
			<point x="424" y="0" type="line"/>
			<point x="445" y="0"/>
			<point x="461" y="15"/>
			<point x="464" y="35" type="curve"/>
			<point x="469" y="62" type="line"/>
			<point x="472" y="82"/>
			<point x="460" y="97"/>
		</contour>
	</outline>
</glyph>
<glyph name="five" format="2">
	<advance width="575"/>
	<unicode hex="0035"/>
	<outline>
		<contour>
			<point x="292" y="451" type="curve" smooth="yes"/>
			<point x="252" y="451" type="line"/>
			<point x="292" y="624" type="line"/>
			<point x="490" y="624" type="line" smooth="yes"/>
			<point x="512" y="624"/>
			<point x="526" y="636"/>
			<point x="529" y="658" type="curve" smooth="yes"/>
			<point x="533" y="683" type="line" smooth="yes"/>
			<point x="537" y="706"/>
			<point x="525" y="720"/>
			<point x="502" y="720" type="curve" smooth="yes"/>
			<point x="247" y="720" type="line" smooth="yes"/>
			<point x="226" y="720"/>
			<point x="211" y="708"/>
			<point x="207" y="689" type="curve" smooth="yes"/>
			<point x="139" y="401" type="line" smooth="yes"/>
			<point x="134" y="379"/>
			<point x="144" y="364"/>
			<point x="166" y="361" type="curve" smooth="yes"/>
			<point x="214" y="354" type="line"/>
			<point x="279" y="354" type="line" smooth="yes"/>
			<point x="358" y="354"/>
			<point x="394" y="320"/>
			<point x="394" y="246" type="curve" smooth="yes"/>
			<point x="394" y="146"/>
			<point x="329" y="88"/>
			<point x="217" y="88" type="curve" smooth="yes"/>
			<point x="184" y="88"/>
			<point x="152" y="92"/>
			<point x="122" y="99" type="curve" smooth="yes"/>
			<point x="103" y="104"/>
			<point x="86" y="96"/>
			<point x="77" y="77" type="curve" smooth="yes"/>
			<point x="65" y="49" type="line" smooth="yes"/>
			<point x="56" y="28"/>
			<point x="63" y="10"/>
			<point x="83" y="4" type="curve" smooth="yes"/>
			<point x="121" y="-5"/>
			<point x="162" y="-10"/>
			<point x="205" y="-10" type="curve" smooth="yes"/>
			<point x="391" y="-10"/>
			<point x="501" y="91"/>
			<point x="501" y="264" type="curve" smooth="yes"/>
			<point x="501" y="389"/>
			<point x="431" y="451"/>
		</contour>
	</outline>
</glyph>
<glyph name="eight" format="2">
	<advance width="575"/>
	<unicode hex="0038"/>
	<outline>
		<contour>
			<point x="408" y="369" type="curve"/>
			<point x="503" y="429"/>
			<point x="555" y="503"/>
			<point x="555" y="580" type="curve" smooth="yes"/>
			<point x="555" y="670"/>
			<point x="477" y="730"/>
			<point x="361" y="730" type="curve" smooth="yes"/>
			<point x="220" y="730"/>
			<point x="113" y="641"/>
			<point x="113" y="521" type="curve" smooth="yes"/>
			<point x="113" y="457"/>
			<point x="143" y="410"/>
			<point x="209" y="368" type="curve"/>
			<point x="92" y="303"/>
			<point x="31" y="230"/>
			<point x="31" y="152" type="curve" smooth="yes"/>
			<point x="31" y="57"/>
			<point x="121" y="-10"/>
			<point x="247" y="-10" type="curve" smooth="yes"/>
			<point x="407" y="-10"/>
			<point x="518" y="77"/>
			<point x="518" y="202" type="curve" smooth="yes"/>
			<point x="518" y="284"/>
			<point x="467" y="332"/>
		</contour>
		<contour>
			<point x="220" y="538" type="curve" smooth="yes"/>
			<point x="220" y="591"/>
			<point x="277" y="634"/>
			<point x="349" y="634" type="curve" smooth="yes"/>
			<point x="408" y="634"/>
			<point x="447" y="605"/>
			<point x="447" y="563" type="curve" smooth="yes"/>
			<point x="447" y="519"/>
			<point x="398" y="457"/>
			<point x="330" y="414" type="curve"/>
			<point x="256" y="453"/>
			<point x="220" y="494"/>
		</contour>
		<contour>
			<point x="259" y="87" type="curve" smooth="yes"/>
			<point x="184" y="87"/>
			<point x="138" y="118"/>
			<point x="138" y="167" type="curve" smooth="yes"/>
			<point x="138" y="221"/>
			<point x="189" y="272"/>
			<point x="290" y="325" type="curve"/>
			<point x="374" y="284"/>
			<point x="412" y="244"/>
			<point x="412" y="193" type="curve" smooth="yes"/>
			<point x="412" y="130"/>
			<point x="349" y="87"/>
		</contour>
	</outline>
</glyph>
<glyph name="colon" format="2">
	<advance width="575"/>
	<unicode hex="003A"/>
	<outline>
		<contour>
			<point x="378" y="520" type="curve" smooth="yes"/>
			<point x="278" y="520" type="line" smooth="yes"/>
			<point x="256" y="520"/>
			<point x="242" y="508"/>
			<point x="239" y="486" type="curve"/>
			<point x="224" y="397" type="line"/>
			<point x="221" y="374"/>
			<point x="233" y="360"/>
			<point x="255" y="360" type="curve" smooth="yes"/>
			<point x="355" y="360" type="line" smooth="yes"/>
			<point x="376" y="360"/>
			<point x="391" y="373"/>
			<point x="394" y="394" type="curve"/>
			<point x="409" y="483" type="line"/>
			<point x="412" y="507"/>
			<point x="400" y="520"/>
		</contour>
		<contour>
			<point x="321" y="160" type="curve" smooth="yes"/>
			<point x="221" y="160" type="line" smooth="yes"/>
			<point x="199" y="160"/>
			<point x="185" y="148"/>
			<point x="182" y="126" type="curve"/>
			<point x="167" y="37" type="line"/>
			<point x="164" y="14"/>
			<point x="176" y="0"/>
			<point x="198" y="0" type="curve" smooth="yes"/>
			<point x="298" y="0" type="line" smooth="yes"/>
			<point x="319" y="0"/>
			<point x="334" y="13"/>
			<point x="337" y="34" type="curve"/>
			<point x="352" y="123" type="line"/>
			<point x="355" y="147"/>
			<point x="343" y="160"/>
		</contour>
	</outline>
</glyph>
<glyph name="question" format="2">
	<advance width="575"/>
	<unicode hex="003F"/>
	<outline>
		<contour>
			<point x="550" y="520" type="curve" smooth="yes"/>
			<point x="550" y="641"/>
			<point x="399" y="720"/>
			<point x="161" y="720" type="curve" smooth="yes"/>
			<point x="141" y="720"/>
			<point x="126" y="708"/>
			<point x="122" y="687" type="curve"/>
			<point x="122" y="686" type="line"/>
			<point x="119" y="663" type="line"/>
			<point x="115" y="641"/>
			<point x="128" y="626"/>
			<point x="150" y="626" type="curve" smooth="yes"/>
			<point x="333" y="626"/>
			<point x="444" y="581"/>
			<point x="444" y="513" type="curve" smooth="yes"/>
			<point x="444" y="459"/>
			<point x="373" y="421"/>
			<point x="268" y="421" type="curve" smooth="yes"/>
			<point x="207" y="421" type="line" smooth="yes"/>
			<point x="186" y="421"/>
			<point x="171" y="408"/>
			<point x="168" y="387" type="curve" smooth="yes"/>
			<point x="145" y="242" type="line" smooth="yes"/>
			<point x="141" y="220"/>
			<point x="153" y="205"/>
			<point x="176" y="205" type="curve" smooth="yes"/>
			<point x="211" y="205" type="line" smooth="yes"/>
			<point x="231" y="205"/>
			<point x="247" y="217"/>
			<point x="250" y="238" type="curve" smooth="yes"/>
			<point x="264" y="327" type="line"/>
			<point x="424" y="327"/>
			<point x="550" y="406"/>
		</contour>
		<contour>
			<point x="192" y="117" type="curve" smooth="yes"/>
			<point x="157" y="117" type="line" smooth="yes"/>
			<point x="137" y="117"/>
			<point x="122" y="105"/>
			<point x="118" y="84" type="curve"/>
			<point x="111" y="36" type="line"/>
			<point x="107" y="14"/>
			<point x="119" y="0"/>
			<point x="142" y="0" type="curve" smooth="yes"/>
			<point x="177" y="0" type="line" smooth="yes"/>
			<point x="198" y="0"/>
			<point x="212" y="12"/>
			<point x="216" y="33" type="curve"/>
			<point x="223" y="81" type="line"/>
			<point x="227" y="102"/>
			<point x="215" y="117"/>
		</contour>
	</outline>
</glyph>
<glyph name="A" format="2">
	<advance width="575"/>
	<unicode hex="0041"/>
	<anchor x="259" y="0" name="bottom"/>
	<anchor x="499" y="10" name="ogonek"/>
	<anchor x="363" y="700" name="top"/>
	<outline>
		<contour>
			<point x="533" y="41" type="curve"/>
			<point x="479" y="633" type="line" smooth="yes"/>
			<point x="474" y="693"/>
			<point x="422" y="730"/>
			<point x="355" y="730" type="curve" smooth="yes"/>
			<point x="289" y="730"/>
			<point x="238" y="694"/>
			<point x="214" y="634" type="curve" smooth="yes"/>
			<point x="-28" y="40" type="line"/>
			<point x="-36" y="17"/>
			<point x="-26" y="0"/>
			<point x="-2" y="0" type="curve" smooth="yes"/>
			<point x="33" y="0" type="line" smooth="yes"/>
			<point x="53" y="0"/>
			<point x="69" y="11"/>
			<point x="76" y="30" type="curve"/>
			<point x="154" y="220" type="line"/>
			<point x="409" y="220" type="line"/>
			<point x="427" y="30" type="line"/>
			<point x="428" y="10"/>
			<point x="441" y="0"/>
			<point x="460" y="0" type="curve" smooth="yes"/>
			<point x="496" y="0" type="line" smooth="yes"/>
			<point x="520" y="0"/>
			<point x="536" y="18"/>
		</contour>
		<contour>
			<point x="193" y="316" type="line"/>
			<point x="315" y="615" type="line"/>
			<point x="319" y="626"/>
			<point x="332" y="634"/>
			<point x="347" y="634" type="curve" smooth="yes"/>
			<point x="362" y="634"/>
			<point x="373" y="626"/>
			<point x="373" y="615" type="curve"/>
			<point x="401" y="316" type="line"/>
		</contour>
	</outline>
</glyph>
<glyph name="F" format="2">
	<advance width="575"/>
	<unicode hex="0046"/>
	<anchor x="247" y="0" name="bottom"/>
	<anchor x="361" y="720" name="top"/>
	<outline>
		<contour>
			<point x="565" y="720" type="curve"/>
			<point x="184" y="720" type="line"/>
			<point x="164" y="720"/>
			<point x="147" y="705"/>
			<point x="144" y="685" type="curve"/>
			<point x="41" y="35" type="line"/>
			<point x="38" y="15"/>
			<point x="50" y="0"/>
			<point x="70" y="0" type="curve"/>
			<point x="105" y="0" type="line"/>
			<point x="127" y="0"/>
			<point x="143" y="15"/>
			<point x="146" y="35" type="curve"/>
			<point x="187" y="292" type="line"/>
			<point x="476" y="292" type="line"/>
			<point x="495" y="292"/>
			<point x="513" y="306"/>
			<point x="516" y="326" type="curve"/>
			<point x="520" y="353" type="line"/>
			<point x="524" y="373"/>
			<point x="511" y="388"/>
			<point x="491" y="388" type="curve"/>
			<point x="202" y="388" type="line"/>
			<point x="239" y="624" type="line"/>
			<point x="550" y="624" type="line"/>
			<point x="570" y="624"/>
			<point x="587" y="638"/>
			<point x="591" y="659" type="curve"/>
			<point x="595" y="685" type="line"/>
			<point x="598" y="706"/>
			<point x="585" y="720"/>
		</contour>
	</outline>
</glyph>
<glyph name="H" format="2">
	<advance width="575"/>
	<unicode hex="0048"/>
	<anchor x="247" y="0" name="bottom"/>
	<anchor x="304" y="360" name="center"/>
	<anchor x="361" y="720" name="top"/>
	<anchor x="93" y="720" name="topleft"/>
	<outline>
		<contour>
			<point x="556" y="720" type="curve"/>
			<point x="521" y="720" type="line"/>
			<point x="502" y="720"/>
			<point x="484" y="706"/>
			<point x="481" y="685" type="curve"/>
			<point x="441" y="430" type="line"/>
			<point x="192" y="430" type="line"/>
			<point x="232" y="685" type="line"/>
			<point x="235" y="706"/>
			<point x="224" y="720"/>
			<point x="202" y="720" type="curve"/>
			<point x="167" y="720" type="line"/>
			<point x="147" y="720"/>
			<point x="130" y="705"/>
			<point x="127" y="685" type="curve"/>
			<point x="24" y="35" type="line"/>
			<point x="21" y="15"/>
			<point x="33" y="0"/>
			<point x="53" y="0" type="curve"/>
			<point x="88" y="0" type="line"/>
			<point x="110" y="0"/>
			<point x="126" y="15"/>
			<point x="129" y="35" type="curve"/>
			<point x="176" y="333" type="line"/>
			<point x="425" y="333" type="line"/>
			<point x="378" y="35" type="line"/>
			<point x="375" y="15"/>
			<point x="387" y="0"/>
			<point x="407" y="0" type="curve"/>
			<point x="442" y="0" type="line"/>
			<point x="464" y="0"/>
			<point x="480" y="15"/>
			<point x="483" y="35" type="curve"/>
			<point x="586" y="685" type="line"/>
			<point x="589" y="706"/>
			<point x="576" y="720"/>
		</contour>
	</outline>
</glyph>
<glyph name="M" format="2">
	<advance width="575"/>
	<unicode hex="004D"/>
	<anchor x="247" y="0" name="bottom"/>
	<anchor x="361" y="720" name="top"/>
	<outline>
		<contour>
			<point x="520" y="36" type="curve"/>
			<point x="603" y="690" type="line"/>
			<point x="607" y="712"/>
			<point x="595" y="725"/>
			<point x="572" y="725" type="curve" smooth="yes"/>
			<point x="556" y="725" type="line" smooth="yes"/>
			<point x="524" y="725"/>
			<point x="498" y="711"/>
			<point x="481" y="683" type="curve" smooth="yes"/>
			<point x="315" y="431" type="line"/>
			<point x="229" y="683" type="line" smooth="yes"/>
			<point x="220" y="711"/>
			<point x="200" y="725"/>
			<point x="168" y="725" type="curve" smooth="yes"/>
			<point x="152" y="725" type="line" smooth="yes"/>
			<point x="129" y="725"/>
			<point x="113" y="712"/>
			<point x="109" y="690" type="curve" smooth="yes"/>
			<point x="-14" y="36" type="line" smooth="yes"/>
			<point x="-18" y="16"/>
			<point x="-4" y="0"/>
			<point x="16" y="0" type="curve" smooth="yes"/>
			<point x="50" y="0" type="line" smooth="yes"/>
			<point x="70" y="0"/>
			<point x="86" y="14"/>
			<point x="90" y="35" type="curve" smooth="yes"/>
			<point x="187" y="540" type="line"/>
			<point x="251" y="354" type="line" smooth="yes"/>
			<point x="255" y="338"/>
			<point x="267" y="330"/>
			<point x="285" y="330" type="curve" smooth="yes"/>
			<point x="313" y="330" type="line" smooth="yes"/>
			<point x="331" y="330"/>
			<point x="345" y="338"/>
			<point x="355" y="354" type="curve" smooth="yes"/>
			<point x="477" y="540" type="line"/>
			<point x="415" y="36" type="line" smooth="yes"/>
			<point x="412" y="14"/>
			<point x="424" y="0"/>
			<point x="444" y="0" type="curve" smooth="yes"/>
			<point x="478" y="0" type="line" smooth="yes"/>
			<point x="498" y="0"/>
			<point x="516" y="16"/>
		</contour>
	</outline>
</glyph>
<glyph name="P" format="2">
	<advance width="575"/>
	<unicode hex="0050"/>
	<anchor x="247" y="0" name="bottom"/>
	<anchor x="361" y="720" name="top"/>
	<outline>
		<contour>
			<point x="318" y="720" type="curve" smooth="yes"/>
			<point x="183" y="720" type="line" smooth="yes"/>
			<point x="162" y="720"/>
			<point x="146" y="706"/>
			<point x="142" y="685" type="curve" smooth="yes"/>
			<point x="39" y="35" type="line" smooth="yes"/>
			<point x="36" y="14"/>
			<point x="48" y="0"/>
			<point x="69" y="0" type="curve" smooth="yes"/>
			<point x="104" y="0" type="line" smooth="yes"/>
			<point x="126" y="0"/>
			<point x="141" y="13"/>
			<point x="144" y="35" type="curve" smooth="yes"/>
			<point x="180" y="260" type="line"/>
			<point x="245" y="260" type="line" smooth="yes"/>
			<point x="421" y="260"/>
			<point x="566" y="364"/>
			<point x="566" y="520" type="curve" smooth="yes"/>
			<point x="566" y="644"/>
			<point x="471" y="720"/>
		</contour>
		<contour>
			<point x="260" y="356" type="curve" smooth="yes"/>
			<point x="195" y="356" type="line"/>
			<point x="238" y="624" type="line"/>
			<point x="303" y="624" type="line" smooth="yes"/>
			<point x="401" y="624"/>
			<point x="460" y="580"/>
			<point x="460" y="504" type="curve" smooth="yes"/>
			<point x="460" y="416"/>
			<point x="372" y="356"/>
		</contour>
	</outline>
</glyph>
<glyph name="R" format="2">
	<advance width="575"/>
	<unicode hex="0052"/>
	<anchor x="247" y="0" name="bottom"/>
	<anchor x="361" y="720" name="top"/>
	<outline>
		<contour>
			<point x="526" y="44" type="curve" smooth="yes"/>
			<point x="424" y="341" type="line"/>
			<point x="500" y="380"/>
			<point x="554" y="455"/>
			<point x="554" y="541" type="curve" smooth="yes"/>
			<point x="554" y="645"/>
			<point x="474" y="720"/>
			<point x="341" y="720" type="curve" smooth="yes"/>
			<point x="183" y="720" type="line" smooth="yes"/>
			<point x="161" y="720"/>
			<point x="146" y="707"/>
			<point x="142" y="685" type="curve" smooth="yes"/>
			<point x="39" y="35" type="line" smooth="yes"/>
			<point x="36" y="14"/>
			<point x="48" y="0"/>
			<point x="69" y="0" type="curve" smooth="yes"/>
			<point x="104" y="0" type="line" smooth="yes"/>
			<point x="125" y="0"/>
			<point x="141" y="14"/>
			<point x="144" y="35" type="curve" smooth="yes"/>
			<point x="188" y="312" type="line"/>
			<point x="317" y="312" type="line"/>
			<point x="416" y="24" type="line" smooth="yes"/>
			<point x="421" y="8"/>
			<point x="433" y="0"/>
			<point x="450" y="0" type="curve" smooth="yes"/>
			<point x="492" y="0" type="line" smooth="yes"/>
			<point x="519" y="0"/>
			<point x="534" y="20"/>
		</contour>
		<contour>
			<point x="292" y="409" type="curve" smooth="yes"/>
			<point x="204" y="409" type="line"/>
			<point x="238" y="624" type="line"/>
			<point x="326" y="624" type="line" smooth="yes"/>
			<point x="401" y="624"/>
			<point x="447" y="577"/>
			<point x="447" y="519" type="curve" smooth="yes"/>
			<point x="447" y="449"/>
			<point x="377" y="409"/>
		</contour>
	</outline>
</glyph>
<glyph name="T" format="2">
	<advance width="575"/>
	<unicode hex="0054"/>
	<anchor x="247" y="0" name="bottom"/>
	<anchor x="304" y="360" name="center"/>
	<anchor x="361" y="720" name="top"/>
	<outline>
		<contour>
			<point x="629" y="659" type="curve"/>
			<point x="633" y="685" type="line"/>
			<point x="636" y="706"/>
			<point x="623" y="720"/>
			<point x="603" y="720" type="curve"/>
			<point x="121" y="720" type="line"/>
			<point x="100" y="720"/>
			<point x="84" y="705"/>
			<point x="81" y="685" type="curve"/>
			<point x="77" y="659" type="line"/>
			<point x="74" y="639"/>
			<point x="85" y="624"/>
			<point x="105" y="624" type="curve"/>
			<point x="294" y="624" type="line"/>
			<point x="201" y="35" type="line"/>
			<point x="198" y="15"/>
			<point x="210" y="0"/>
			<point x="230" y="0" type="curve"/>
			<point x="265" y="0" type="line"/>
			<point x="286" y="0"/>
			<point x="303" y="15"/>
			<point x="306" y="35" type="curve"/>
			<point x="399" y="624" type="line"/>
			<point x="588" y="624" type="line"/>
			<point x="608" y="624"/>
			<point x="626" y="639"/>
		</contour>
	</outline>
</glyph>
<glyph name="backslash" format="2">
	<advance width="575"/>
	<unicode hex="005C"/>
	<outline>
		<contour>
			<point x="480" y="-130" type="curve"/>
			<point x="198" y="696" type="line"/>
			<point x="192" y="714"/>
			<point x="173" y="721"/>
			<point x="154" y="712" type="curve"/>
			<point x="120" y="696" type="line"/>
			<point x="100" y="687"/>
			<point x="91" y="667"/>
			<point x="97" y="650" type="curve"/>
			<point x="379" y="-176" type="line"/>
			<point x="385" y="-194"/>
			<point x="404" y="-201"/>
			<point x="423" y="-192" type="curve"/>
			<point x="457" y="-176" type="line"/>
			<point x="477" y="-167"/>
			<point x="486" y="-147"/>
		</contour>
	</outline>
</glyph>
<glyph name="grave" format="2">
	<advance width="575"/>
	<unicode hex="0060"/>
	<anchor x="328" y="500" name="_top"/>
	<outline>
		<contour>
			<point x="467" y="544" type="curve"/>
			<point x="478" y="562" type="line"/>
			<point x="486" y="577"/>
			<point x="484" y="588"/>
			<point x="470" y="595" type="curve" smooth="yes"/>
			<point x="277" y="696" type="line" smooth="yes"/>
			<point x="263" y="703"/>
			<point x="250" y="699"/>
			<point x="242" y="684" type="curve" smooth="yes"/>
			<point x="212" y="638" type="line" smooth="yes"/>
			<point x="203" y="623"/>
			<point x="206" y="611"/>
			<point x="221" y="606" type="curve" smooth="yes"/>
			<point x="432" y="531" type="line" smooth="yes"/>
			<point x="445" y="526"/>
			<point x="456" y="530"/>
		</contour>
	</outline>
</glyph>
<glyph name="a" format="2">
	<advance width="575"/>
	<unicode hex="0061"/>
	<anchor x="478" y="5" name="ogonek"/>
	<anchor x="338" y="560" name="top"/>
	<outline>
		<contour>
			<point x="464" y="39" type="curve" smooth="yes"/>
			<point x="532" y="479" type="line" smooth="yes"/>
			<point x="535" y="500"/>
			<point x="525" y="520"/>
			<point x="503" y="520" type="curve" smooth="yes"/>
			<point x="502" y="520" type="line" smooth="yes"/>
			<point x="440" y="520"/>
			<point x="386" y="530"/>
			<point x="357" y="530" type="curve" smooth="yes"/>
			<point x="172" y="530"/>
			<point x="67" y="410"/>
			<point x="67" y="199" type="curve" smooth="yes"/>
			<point x="67" y="60"/>
			<point x="115" y="-10"/>
			<point x="212" y="-10" type="curve" smooth="yes"/>
			<point x="260" y="-10"/>
			<point x="313" y="11"/>
			<point x="367" y="78" type="curve"/>
			<point x="359" y="37" type="line" smooth="yes"/>
			<point x="355" y="15"/>
			<point x="367" y="0"/>
			<point x="390" y="0" type="curve" smooth="yes"/>
			<point x="427" y="0" type="line" smooth="yes"/>
			<point x="447" y="0"/>
			<point x="460" y="15"/>
		</contour>
		<contour>
			<point x="421" y="431" type="curve"/>
			<point x="379" y="166" type="line"/>
			<point x="331" y="115"/>
			<point x="281" y="86"/>
			<point x="242" y="86" type="curve" smooth="yes"/>
			<point x="194" y="86"/>
			<point x="173" y="122"/>
			<point x="173" y="214" type="curve" smooth="yes"/>
			<point x="173" y="356"/>
			<point x="233" y="434"/>
			<point x="345" y="434" type="curve" smooth="yes"/>
			<point x="361" y="434"/>
			<point x="388" y="433"/>
		</contour>
	</outline>
</glyph>
<glyph name="e" format="2">
	<advance width="575"/>
	<unicode hex="0065"/>
	<anchor x="259" y="0" name="bottom"/>
	<anchor x="499" y="10" name="ogonek"/>
	<anchor x="344" y="560" name="top"/>
	<outline>
		<contour>
			<point x="469" y="67" type="curve" smooth="yes"/>
			<point x="463" y="91" type="line" smooth="yes"/>
			<point x="458" y="111"/>
			<point x="443" y="118"/>
			<point x="421" y="110" type="curve"/>
			<point x="375" y="95"/>
			<point x="340" y="88"/>
			<point x="301" y="88" type="curve" smooth="yes"/>
			<point x="217" y="88"/>
			<point x="176" y="130"/>
			<point x="176" y="214" type="curve" smooth="yes"/>
			<point x="176" y="221"/>
			<point x="176" y="229"/>
			<point x="177" y="237" type="curve"/>
			<point x="461" y="237" type="line" smooth="yes"/>
			<point x="482" y="237"/>
			<point x="499" y="251"/>
			<point x="502" y="272" type="curve" smooth="yes"/>
			<point x="508" y="312"/>
			<point x="510" y="324"/>
			<point x="510" y="341" type="curve" smooth="yes"/>
			<point x="510" y="453"/>
			<point x="441" y="530"/>
			<point x="335" y="530" type="curve" smooth="yes"/>
			<point x="176" y="530"/>
			<point x="70" y="367"/>
			<point x="70" y="198" type="curve" smooth="yes"/>
			<point x="70" y="67"/>
			<point x="147" y="-10"/>
			<point x="285" y="-10" type="curve" smooth="yes"/>
			<point x="338" y="-10"/>
			<point x="393" y="1"/>
			<point x="444" y="21" type="curve" smooth="yes"/>
			<point x="464" y="29"/>
			<point x="474" y="46"/>
		</contour>
		<contour>
			<point x="321" y="434" type="curve" smooth="yes"/>
			<point x="375" y="434"/>
			<point x="410" y="392"/>
			<point x="407" y="334" type="curve"/>
			<point x="201" y="334" type="line"/>
			<point x="220" y="393"/>
			<point x="269" y="434"/>
		</contour>
	</outline>
</glyph>
<glyph name="h" format="2">
	<advance width="575"/>
	<unicode hex="0068"/>
	<anchor x="288" y="250" name="center"/>
	<anchor x="408" y="620" name="top"/>
	<outline>
		<contour>
			<point x="209" y="452" type="curve"/>
			<point x="255" y="733" type="line" smooth="yes"/>
			<point x="259" y="755"/>
			<point x="247" y="770"/>
			<point x="224" y="770" type="curve" smooth="yes"/>
			<point x="187" y="770" type="line" smooth="yes"/>
			<point x="168" y="770"/>
			<point x="154" y="755"/>
			<point x="149" y="732" type="curve" smooth="yes"/>
			<point x="39" y="37" type="line" smooth="yes"/>
			<point x="36" y="14"/>
			<point x="48" y="0"/>
			<point x="70" y="0" type="curve" smooth="yes"/>
			<point x="105" y="0" type="line" smooth="yes"/>
			<point x="126" y="0"/>
			<point x="141" y="13"/>
			<point x="144" y="34" type="curve" smooth="yes"/>
			<point x="195" y="354" type="line"/>
			<point x="247" y="408"/>
			<point x="295" y="434"/>
			<point x="343" y="434" type="curve" smooth="yes"/>
			<point x="388" y="434"/>
			<point x="405" y="412"/>
			<point x="405" y="354" type="curve" smooth="yes"/>
			<point x="405" y="337"/>
			<point x="403" y="316"/>
			<point x="399" y="290" type="curve" smooth="yes"/>
			<point x="359" y="37" type="line" smooth="yes"/>
			<point x="356" y="14"/>
			<point x="368" y="0"/>
			<point x="390" y="0" type="curve" smooth="yes"/>
			<point x="425" y="0" type="line" smooth="yes"/>
			<point x="447" y="0"/>
			<point x="461" y="12"/>
			<point x="464" y="34" type="curve" smooth="yes"/>
			<point x="504" y="286" type="line" smooth="yes"/>
			<point x="508" y="315"/>
			<point x="511" y="343"/>
			<point x="511" y="369" type="curve" smooth="yes"/>
			<point x="511" y="476"/>
			<point x="464" y="530"/>
			<point x="372" y="530" type="curve" smooth="yes"/>
			<point x="316" y="530"/>
			<point x="263" y="510"/>
		</contour>
	</outline>
</glyph>
<glyph name="i" format="2">
	<advance width="575"/>
	<unicode hex="0069"/>
	<outline>
		<contour>
			<point x="312" y="644" type="curve" smooth="yes"/>
			<point x="377" y="644" type="line" smooth="yes"/>
			<point x="399" y="644"/>
			<point x="413" y="656"/>
			<point x="416" y="678" type="curve" smooth="yes"/>
			<point x="427" y="743" type="line" smooth="yes"/>
			<point x="431" y="766"/>
			<point x="419" y="780"/>
			<point x="396" y="780" type="curve" smooth="yes"/>
			<point x="331" y="780" type="line" smooth="yes"/>
			<point x="310" y="780"/>
			<point x="295" y="767"/>
			<point x="292" y="746" type="curve" smooth="yes"/>
			<point x="281" y="681" type="line"/>
			<point x="278" y="658"/>
			<point x="290" y="644"/>
		</contour>
		<component base="dotlessi"/>
	</outline>
</glyph>
<glyph name="j" format="2">
	<advance width="575"/>
	<unicode hex="006A"/>
	<outline>
		<contour>
			<point x="526" y="780" type="curve" smooth="yes"/>
			<point x="461" y="780" type="line" smooth="yes"/>
			<point x="440" y="780"/>
			<point x="425" y="767"/>
			<point x="422" y="746" type="curve" smooth="yes"/>
			<point x="411" y="681" type="line"/>
			<point x="408" y="658"/>
			<point x="420" y="644"/>
			<point x="442" y="644" type="curve" smooth="yes"/>
			<point x="507" y="644" type="line" smooth="yes"/>
			<point x="529" y="644"/>
			<point x="543" y="656"/>
			<point x="546" y="678" type="curve" smooth="yes"/>
			<point x="557" y="743" type="line" smooth="yes"/>
			<point x="561" y="766"/>
			<point x="549" y="780"/>
		</contour>
		<contour>
			<point x="348" y="532" type="curve" smooth="yes"/>
			<point x="320" y="532"/>
			<point x="288" y="529"/>
			<point x="244" y="522" type="curve" smooth="yes"/>
			<point x="223" y="518"/>
			<point x="211" y="504"/>
			<point x="211" y="483" type="curve"/>
			<point x="212" y="455" type="line"/>
			<point x="211" y="433"/>
			<point x="226" y="421"/>
			<point x="250" y="425" type="curve" smooth="yes"/>
			<point x="283" y="431"/>
			<point x="310" y="435"/>
			<point x="333" y="435" type="curve" smooth="yes"/>
			<point x="387" y="435"/>
			<point x="407" y="415"/>
			<point x="407" y="361" type="curve" smooth="yes"/>
			<point x="407" y="347"/>
			<point x="405" y="330"/>
			<point x="402" y="312" type="curve" smooth="yes"/>
			<point x="373" y="132" type="line" smooth="yes"/>
			<point x="353" y="1"/>
			<point x="295" y="-62"/>
			<point x="194" y="-62" type="curve" smooth="yes"/>
			<point x="155" y="-62"/>
			<point x="122" y="-55"/>
			<point x="81" y="-40" type="curve"/>
			<point x="62" y="-32"/>
			<point x="45" y="-39"/>
			<point x="34" y="-58" type="curve" smooth="yes"/>
			<point x="20" y="-82" type="line"/>
			<point x="9" y="-103"/>
			<point x="14" y="-121"/>
			<point x="33" y="-129" type="curve"/>
			<point x="78" y="-150"/>
			<point x="129" y="-160"/>
			<point x="182" y="-160" type="curve" smooth="yes"/>
			<point x="343" y="-160"/>
			<point x="450" y="-55"/>
			<point x="479" y="128" type="curve" smooth="yes"/>
			<point x="508" y="308" type="line" smooth="yes"/>
			<point x="512" y="333"/>
			<point x="514" y="354"/>
			<point x="514" y="375" type="curve" smooth="yes"/>
			<point x="514" y="481"/>
			<point x="460" y="532"/>
		</contour>
	</outline>
</glyph>
<glyph name="l" format="2">
	<advance width="575"/>
	<unicode hex="006C"/>
	<anchor x="259" y="0" name="bottom"/>
	<anchor x="300" y="260" name="center"/>
	<anchor x="341" y="720" name="top"/>
	<anchor x="621" y="520" name="topright"/>
	<outline>
		<contour>
			<point x="470" y="36" type="curve"/>
			<point x="465" y="69" type="line"/>
			<point x="461" y="89"/>
			<point x="447" y="98"/>
			<point x="424" y="94" type="curve" smooth="yes"/>
			<point x="424" y="94" type="line" smooth="yes"/>
			<point x="404" y="89"/>
			<point x="383" y="87"/>
			<point x="360" y="87" type="curve" smooth="yes"/>
			<point x="316" y="88"/>
			<point x="302" y="99"/>
			<point x="302" y="132" type="curve" smooth="yes"/>
			<point x="302" y="141"/>
			<point x="302" y="149"/>
			<point x="304" y="158" type="curve"/>
			<point x="375" y="608" type="line" smooth="yes"/>
			<point x="377" y="623"/>
			<point x="379" y="638"/>
			<point x="379" y="655" type="curve" smooth="yes"/>
			<point x="379" y="740"/>
			<point x="330" y="780"/>
			<point x="227" y="780" type="curve" smooth="yes"/>
			<point x="207" y="780"/>
			<point x="175" y="779"/>
			<point x="135" y="770" type="curve" smooth="yes"/>
			<point x="113" y="765"/>
			<point x="101" y="748"/>
			<point x="105" y="727" type="curve"/>
			<point x="109" y="701" type="line"/>
			<point x="114" y="681"/>
			<point x="128" y="672"/>
			<point x="150" y="676" type="curve"/>
			<point x="170" y="681"/>
			<point x="192" y="683"/>
			<point x="215" y="683" type="curve" smooth="yes"/>
			<point x="258" y="682"/>
			<point x="273" y="671"/>
			<point x="273" y="639" type="curve" smooth="yes"/>
			<point x="273" y="631"/>
			<point x="272" y="623"/>
			<point x="270" y="612" type="curve" smooth="yes"/>
			<point x="199" y="162" type="line" smooth="yes"/>
			<point x="196" y="145"/>
			<point x="195" y="131"/>
			<point x="195" y="117" type="curve" smooth="yes"/>
			<point x="195" y="31"/>
			<point x="245" y="-10"/>
			<point x="348" y="-10" type="curve" smooth="yes"/>
			<point x="368" y="-10"/>
			<point x="400" y="-9"/>
			<point x="439" y="0" type="curve" smooth="yes"/>
			<point x="459" y="5"/>
			<point x="471" y="18"/>
		</contour>
	</outline>
</glyph>
<glyph name="n" format="2">
	<advance width="575"/>
	<unicode hex="006E"/>
	<anchor x="247" y="0" name="bottom"/>
	<anchor x="329" y="560" name="top"/>
	<outline>
		<contour>
			<point x="209" y="447" type="curve"/>
			<point x="216" y="483" type="line" smooth="yes"/>
			<point x="220" y="504"/>
			<point x="206" y="520"/>
			<point x="185" y="520" type="curve"/>
			<point x="148" y="520" type="line"/>
			<point x="127" y="520"/>
			<point x="112" y="500"/>
			<point x="110" y="481" type="curve"/>
			<point x="39" y="37" type="line"/>
			<point x="37" y="16"/>
			<point x="49" y="0"/>
			<point x="70" y="0" type="curve"/>
			<point x="105" y="0" type="line"/>
			<point x="125" y="0"/>
			<point x="141" y="14"/>
			<point x="144" y="34" type="curve"/>
			<point x="195" y="354" type="line"/>
			<point x="247" y="408"/>
			<point x="294" y="434"/>
			<point x="332" y="434" type="curve"/>
			<point x="386" y="434"/>
			<point x="420" y="416"/>
			<point x="399" y="290" type="curve"/>
			<point x="359" y="37" type="line"/>
			<point x="357" y="16"/>
			<point x="369" y="0"/>
			<point x="390" y="0" type="curve"/>
			<point x="425" y="0" type="line"/>
			<point x="446" y="0"/>
			<point x="461" y="14"/>
			<point x="464" y="34" type="curve"/>
			<point x="504" y="286" type="line"/>
			<point x="536" y="484"/>
			<point x="455" y="530"/>
			<point x="362" y="530" type="curve"/>
			<point x="316" y="530"/>
			<point x="263" y="510"/>
		</contour>
	</outline>
</glyph>
<glyph name="o" format="2">
	<advance width="575"/>
	<unicode hex="006F"/>
	<anchor x="247" y="0" name="bottom"/>
	<anchor x="288" y="260" name="center"/>
	<anchor x="476" y="10" name="ogonek"/>
	<anchor x="329" y="570" name="top"/>
	<anchor x="596" y="520" name="topright"/>
	<outline>
		<contour>
			<point x="332" y="532" type="curve" smooth="yes"/>
			<point x="182" y="532"/>
			<point x="69" y="386"/>
			<point x="69" y="199" type="curve" smooth="yes"/>
			<point x="69" y="67"/>
			<point x="137" y="-12"/>
			<point x="250" y="-12" type="curve" smooth="yes"/>
			<point x="416" y="-12"/>
			<point x="506" y="163"/>
			<point x="506" y="325" type="curve" smooth="yes"/>
			<point x="506" y="456"/>
			<point x="442" y="532"/>
		</contour>
		<contour>
			<point x="259" y="85" type="curve" smooth="yes"/>
			<point x="205" y="85"/>
			<point x="175" y="129"/>
			<point x="175" y="210" type="curve" smooth="yes"/>
			<point x="175" y="308"/>
			<point x="223" y="435"/>
			<point x="317" y="435" type="curve" smooth="yes"/>
			<point x="371" y="435"/>
			<point x="400" y="392"/>
			<point x="400" y="310" type="curve" smooth="yes"/>
			<point x="400" y="212"/>
			<point x="352" y="85"/>
		</contour>
	</outline>
</glyph>
<glyph name="r" format="2">
	<advance width="575"/>
	<unicode hex="0072"/>
	<anchor x="259" y="0" name="bottom"/>
	<anchor x="341" y="570" name="top"/>
	<outline>
		<contour>
			<point x="112" y="481" type="curve" smooth="yes"/>
			<point x="41" y="36" type="line"/>
			<point x="38" y="15"/>
			<point x="50" y="0"/>
			<point x="72" y="0" type="curve" smooth="yes"/>
			<point x="107" y="0" type="line" smooth="yes"/>
			<point x="128" y="0"/>
			<point x="143" y="13"/>
			<point x="146" y="34" type="curve" smooth="yes"/>
			<point x="197" y="354" type="line"/>
			<point x="249" y="408"/>
			<point x="296" y="434"/>
			<point x="334" y="434" type="curve" smooth="yes"/>
			<point x="378" y="434"/>
			<point x="407" y="425"/>
			<point x="407" y="359" type="curve" smooth="yes"/>
			<point x="407" y="337"/>
			<point x="419" y="323"/>
			<point x="442" y="323" type="curve" smooth="yes"/>
			<point x="477" y="323" type="line" smooth="yes"/>
			<point x="498" y="323"/>
			<point x="513" y="336"/>
			<point x="513" y="358" type="curve" smooth="yes"/>
			<point x="517" y="496"/>
			<point x="445" y="530"/>
			<point x="364" y="530" type="curve" smooth="yes"/>
			<point x="315" y="530"/>
			<point x="260" y="485"/>
			<point x="210" y="439" type="curve"/>
			<point x="218" y="484" type="line" smooth="yes"/>
			<point x="222" y="505"/>
			<point x="209" y="520"/>
			<point x="187" y="520" type="curve" smooth="yes"/>
			<point x="150" y="520" type="line" smooth="yes"/>
			<point x="128" y="520"/>
			<point x="115" y="501"/>
		</contour>
	</outline>
</glyph>
<glyph name="u" format="2">
	<advance width="575"/>
	<unicode hex="0075"/>
	<anchor x="247" y="0" name="bottom"/>
	<anchor x="476" y="10" name="ogonek"/>
	<anchor x="329" y="560" name="top"/>
	<anchor x="596" y="520" name="topright"/>
	<outline>
		<contour>
			<point x="360" y="48" type="curve"/>
			<point x="358" y="37" type="line" smooth="yes"/>
			<point x="354" y="14"/>
			<point x="367" y="0"/>
			<point x="389" y="0" type="curve" smooth="yes"/>
			<point x="426" y="0" type="line" smooth="yes"/>
			<point x="446" y="0"/>
			<point x="460" y="16"/>
			<point x="464" y="39" type="curve" smooth="yes"/>
			<point x="535" y="483" type="line" smooth="yes"/>
			<point x="539" y="506"/>
			<point x="526" y="520"/>
			<point x="504" y="520" type="curve" smooth="yes"/>
			<point x="469" y="520" type="line" smooth="yes"/>
			<point x="448" y="520"/>
			<point x="433" y="507"/>
			<point x="430" y="486" type="curve" smooth="yes"/>
			<point x="379" y="166" type="line"/>
			<point x="330" y="114"/>
			<point x="281" y="86"/>
			<point x="242" y="86" type="curve" smooth="yes"/>
			<point x="175" y="86"/>
			<point x="158" y="122"/>
			<point x="175" y="230" type="curve" smooth="yes"/>
			<point x="215" y="483" type="line" smooth="yes"/>
			<point x="219" y="506"/>
			<point x="206" y="520"/>
			<point x="184" y="520" type="curve" smooth="yes"/>
			<point x="149" y="520" type="line" smooth="yes"/>
			<point x="127" y="520"/>
			<point x="113" y="508"/>
			<point x="110" y="486" type="curve" smooth="yes"/>
			<point x="70" y="234" type="line" smooth="yes"/>
			<point x="44" y="69"/>
			<point x="89" y="-10"/>
			<point x="212" y="-10" type="curve" smooth="yes"/>
			<point x="260" y="-10"/>
			<point x="313" y="11"/>
		</contour>
	</outline>
</glyph>
<glyph name="w" format="2">
	<advance width="575"/>
	<unicode hex="0077"/>
	<anchor x="259" y="0" name="bottom"/>
	<anchor x="341" y="560" name="top"/>
	<outline>
		<contour>
			<point x="544" y="520" type="curve" smooth="yes"/>
			<point x="509" y="520" type="line" smooth="yes"/>
			<point x="487" y="520"/>
			<point x="471" y="506"/>
			<point x="470" y="486" type="curve" smooth="yes"/>
			<point x="461" y="395"/>
			<point x="443" y="287"/>
			<point x="426" y="192" type="curve"/>
			<point x="358" y="394" type="line"/>
			<point x="352" y="411"/>
			<point x="340" y="419"/>
			<point x="322" y="419" type="curve" smooth="yes"/>
			<point x="291" y="419" type="line" smooth="yes"/>
			<point x="270" y="419"/>
			<point x="255" y="411"/>
			<point x="250" y="394" type="curve"/>
			<point x="222" y="326"/>
			<point x="183" y="244"/>
			<point x="136" y="172" type="curve"/>
			<point x="177" y="484" type="line" smooth="yes"/>
			<point x="180" y="506"/>
			<point x="169" y="520"/>
			<point x="147" y="520" type="curve" smooth="yes"/>
			<point x="111" y="520" type="line" smooth="yes"/>
			<point x="88" y="520"/>
			<point x="73" y="507"/>
			<point x="72" y="486" type="curve"/>
			<point x="25" y="31" type="line" smooth="yes"/>
			<point x="23" y="9"/>
			<point x="32" y="-5"/>
			<point x="51" y="-5" type="curve" smooth="yes"/>
			<point x="118" y="-5"/>
			<point x="190" y="83"/>
			<point x="294" y="287" type="curve"/>
			<point x="386" y="20" type="line" smooth="yes"/>
			<point x="392" y="3"/>
			<point x="403" y="-5"/>
			<point x="422" y="-5" type="curve" smooth="yes"/>
			<point x="444" y="-5" type="line" smooth="yes"/>
			<point x="460" y="-5"/>
			<point x="469" y="4"/>
			<point x="477" y="26" type="curve" smooth="yes"/>
			<point x="530" y="180"/>
			<point x="553" y="332"/>
			<point x="575" y="484" type="curve" smooth="yes"/>
			<point x="578" y="507"/>
			<point x="566" y="520"/>
		</contour>
	</outline>
</glyph>
<glyph name="x" format="2">
	<advance width="575"/>
	<unicode hex="0078"/>
	<outline>
		<contour>
			<point x="486" y="43" type="curve" smooth="yes"/>
			<point x="389" y="264" type="line"/>
			<point x="551" y="434" type="line" smooth="yes"/>
			<point x="566" y="450"/>
			<point x="566" y="467"/>
			<point x="550" y="483" type="curve" smooth="yes"/>
			<point x="532" y="501" type="line" smooth="yes"/>
			<point x="516" y="517"/>
			<point x="498" y="516"/>
			<point x="483" y="500" type="curve" smooth="yes"/>
			<point x="348" y="360" type="line"/>
			<point x="328" y="400" type="line" smooth="yes"/>
			<point x="284" y="489"/>
			<point x="242" y="528"/>
			<point x="188" y="528" type="curve" smooth="yes"/>
			<point x="157" y="528"/>
			<point x="122" y="516"/>
			<point x="69" y="488" type="curve" smooth="yes"/>
			<point x="51" y="477"/>
			<point x="55" y="462"/>
			<point x="55" y="440" type="curve" smooth="yes"/>
			<point x="55" y="439" type="line"/>
			<point x="67" y="417" type="line" smooth="yes"/>
			<point x="78" y="398"/>
			<point x="95" y="394"/>
			<point x="115" y="404" type="curve" smooth="yes"/>
			<point x="143" y="419"/>
			<point x="158" y="424"/>
			<point x="171" y="424" type="curve" smooth="yes"/>
			<point x="193" y="424"/>
			<point x="210" y="407"/>
			<point x="231" y="363" type="curve" smooth="yes"/>
			<point x="270" y="280" type="line"/>
			<point x="66" y="70" type="line" smooth="yes"/>
			<point x="51" y="54"/>
			<point x="51" y="35"/>
			<point x="66" y="20" type="curve" smooth="yes"/>
			<point x="85" y="1" type="line" smooth="yes"/>
			<point x="101" y="-15"/>
			<point x="119" y="-14"/>
			<point x="134" y="1" type="curve" smooth="yes"/>
			<point x="310" y="183" type="line"/>
			<point x="381" y="25" type="line"/>
			<point x="381" y="25" type="line"/>
			<point x="387" y="9"/>
			<point x="401" y="0"/>
			<point x="419" y="0" type="curve" smooth="yes"/>
			<point x="458" y="0" type="line" smooth="yes"/>
			<point x="485" y="0"/>
			<point x="497" y="19"/>
		</contour>
	</outline>
</glyph>
<glyph name="y" format="2">
	<advance width="575"/>
	<unicode hex="0079"/>
	<anchor x="259" y="0" name="bottom"/>
	<anchor x="341" y="570" name="top"/>
	<outline>
		<contour>
			<point x="527" y="520" type="curve" smooth="yes"/>
			<point x="491" y="520" type="line" smooth="yes"/>
			<point x="471" y="520"/>
			<point x="454" y="509"/>
			<point x="449" y="492" type="curve" smooth="yes"/>
			<point x="400" y="320"/>
			<point x="366" y="185"/>
			<point x="330" y="83" type="curve"/>
			<point x="268" y="83" type="line" smooth="yes"/>
			<point x="243" y="83"/>
			<point x="235" y="89"/>
			<point x="234" y="104" type="curve"/>
			<point x="198" y="490" type="line" smooth="yes"/>
			<point x="197" y="509"/>
			<point x="185" y="520"/>
			<point x="165" y="520" type="curve" smooth="yes"/>
			<point x="129" y="520" type="line" smooth="yes"/>
			<point x="105" y="520"/>
			<point x="91" y="505"/>
			<point x="92" y="481" type="curve"/>
			<point x="128" y="89" type="line" smooth="yes"/>
			<point x="135" y="24"/>
			<point x="179" y="-10"/>
			<point x="257" y="-10" type="curve" smooth="yes"/>
			<point x="292" y="-10" type="line"/>
			<point x="243" y="-108"/>
			<point x="188" y="-147"/>
			<point x="101" y="-147" type="curve" smooth="yes"/>
			<point x="77" y="-147"/>
			<point x="46" y="-143"/>
			<point x="7" y="-134" type="curve"/>
			<point x="-12" y="-127"/>
			<point x="-30" y="-135"/>
			<point x="-39" y="-155" type="curve"/>
			<point x="-52" y="-179" type="line" smooth="yes"/>
			<point x="-62" y="-199"/>
			<point x="-57" y="-217"/>
			<point x="-36" y="-226" type="curve"/>
			<point x="15" y="-239"/>
			<point x="61" y="-245"/>
			<point x="103" y="-245" type="curve" smooth="yes"/>
			<point x="371" y="-245"/>
			<point x="423" y="27"/>
			<point x="553" y="479" type="curve" smooth="yes"/>
			<point x="560" y="504"/>
			<point x="550" y="520"/>
		</contour>
	</outline>
</glyph>
<glyph name="braceleft" format="2">
	<advance width="575"/>
	<unicode hex="007B"/>
	<outline>
		<contour>
			<point x="365" y="418" type="curve" smooth="yes"/>
			<point x="393" y="593" type="line" smooth="yes"/>
			<point x="403" y="653"/>
			<point x="425" y="674"/>
			<point x="477" y="674" type="curve" smooth="yes"/>
			<point x="558" y="674" type="line" smooth="yes"/>
			<point x="579" y="674"/>
			<point x="593" y="686"/>
			<point x="597" y="707" type="curve" smooth="yes"/>
			<point x="601" y="733" type="line" smooth="yes"/>
			<point x="605" y="755"/>
			<point x="593" y="770"/>
			<point x="570" y="770" type="curve" smooth="yes"/>
			<point x="489" y="770" type="line" smooth="yes"/>
			<point x="367" y="770"/>
			<point x="308" y="719"/>
			<point x="288" y="597" type="curve" smooth="yes"/>
			<point x="260" y="421" type="line" smooth="yes"/>
			<point x="252" y="365"/>
			<point x="229" y="344"/>
			<point x="177" y="344" type="curve" smooth="yes"/>
			<point x="97" y="344" type="line" smooth="yes"/>
			<point x="75" y="344"/>
			<point x="61" y="331"/>
			<point x="58" y="310" type="curve"/>
			<point x="54" y="285" type="line" smooth="yes"/>
			<point x="50" y="263"/>
			<point x="62" y="248"/>
			<point x="85" y="248" type="curve" smooth="yes"/>
			<point x="165" y="248" type="line" smooth="yes"/>
			<point x="216" y="248"/>
			<point x="230" y="230"/>
			<point x="221" y="176" type="curve" smooth="yes"/>
			<point x="193" y="-1" type="line" smooth="yes"/>
			<point x="174" y="-126"/>
			<point x="218" y="-178"/>
			<point x="342" y="-178" type="curve" smooth="yes"/>
			<point x="423" y="-178" type="line" smooth="yes"/>
			<point x="444" y="-178"/>
			<point x="458" y="-166"/>
			<point x="462" y="-145" type="curve" smooth="yes"/>
			<point x="466" y="-119" type="line" smooth="yes"/>
			<point x="470" y="-97"/>
			<point x="458" y="-82"/>
			<point x="435" y="-82" type="curve" smooth="yes"/>
			<point x="354" y="-82" type="line" smooth="yes"/>
			<point x="303" y="-82"/>
			<point x="289" y="-63"/>
			<point x="298" y="-5" type="curve" smooth="yes"/>
			<point x="326" y="172" type="line" smooth="yes"/>
			<point x="333" y="218"/>
			<point x="334" y="265"/>
			<point x="291" y="295" type="curve"/>
			<point x="343" y="325"/>
			<point x="357" y="367"/>
		</contour>
	</outline>
</glyph>
<glyph name="sterling" format="2">
	<advance width="575"/>
	<unicode hex="00A3"/>
	<outline>
		<contour>
			<point x="487" y="518" type="curve" smooth="yes"/>
			<point x="522" y="518" type="line" smooth="yes"/>
			<point x="544" y="518"/>
			<point x="559" y="532"/>
			<point x="559" y="554" type="curve" smooth="yes"/>
			<point x="559" y="671"/>
			<point x="506" y="730"/>
			<point x="400" y="730" type="curve" smooth="yes"/>
			<point x="289" y="730"/>
			<point x="219" y="666"/>
			<point x="200" y="550" type="curve" smooth="yes"/>
			<point x="177" y="409" type="line"/>
			<point x="132" y="409" type="line" smooth="yes"/>
			<point x="111" y="409"/>
			<point x="97" y="396"/>
			<point x="93" y="375" type="curve" smooth="yes"/>
			<point x="89" y="349" type="line" smooth="yes"/>
			<point x="85" y="327"/>
			<point x="97" y="312"/>
			<point x="120" y="312" type="curve" smooth="yes"/>
			<point x="162" y="312" type="line"/>
			<point x="128" y="97" type="line"/>
			<point x="83" y="97" type="line" smooth="yes"/>
			<point x="62" y="97"/>
			<point x="47" y="84"/>
			<point x="44" y="63" type="curve"/>
			<point x="44" y="64" type="line"/>
			<point x="39" y="37" type="line"/>
			<point x="39" y="36" type="line" smooth="yes"/>
			<point x="36" y="14"/>
			<point x="48" y="0"/>
			<point x="70" y="0" type="curve" smooth="yes"/>
			<point x="425" y="0" type="line" smooth="yes"/>
			<point x="447" y="0"/>
			<point x="461" y="12"/>
			<point x="464" y="34" type="curve"/>
			<point x="464" y="33" type="line"/>
			<point x="469" y="60" type="line"/>
			<point x="469" y="61" type="line" smooth="yes"/>
			<point x="472" y="84"/>
			<point x="460" y="97"/>
			<point x="438" y="97" type="curve" smooth="yes"/>
			<point x="234" y="97" type="line"/>
			<point x="268" y="312" type="line"/>
			<point x="435" y="312" type="line" smooth="yes"/>
			<point x="455" y="312"/>
			<point x="470" y="324"/>
			<point x="474" y="345" type="curve"/>
			<point x="478" y="373" type="line"/>
			<point x="482" y="394"/>
			<point x="470" y="409"/>
			<point x="447" y="409" type="curve" smooth="yes"/>
			<point x="283" y="409" type="line"/>
			<point x="305" y="546" type="line" smooth="yes"/>
			<point x="313" y="600"/>
			<point x="345" y="634"/>
			<point x="388" y="634" type="curve" smooth="yes"/>
			<point x="429" y="634"/>
			<point x="452" y="606"/>
			<point x="452" y="554" type="curve" smooth="yes"/>
			<point x="452" y="532"/>
			<point x="465" y="518"/>
		</contour>
	</outline>
</glyph>
<glyph name="brokenbar" format="2">
	<advance width="575"/>
	<unicode hex="00A6"/>
	<outline>
		<contour>
			<point x="202" y="-178" type="curve" smooth="yes"/>
			<point x="237" y="-178" type="line" smooth="yes"/>
			<point x="259" y="-178"/>
			<point x="273" y="-166"/>
			<point x="276" y="-144" type="curve" smooth="yes"/>
			<point x="327" y="176" type="line" smooth="yes"/>
			<point x="331" y="199"/>
			<point x="319" y="213"/>
			<point x="296" y="213" type="curve" smooth="yes"/>
			<point x="261" y="213" type="line" smooth="yes"/>
			<point x="240" y="213"/>
			<point x="226" y="201"/>
			<point x="222" y="180" type="curve" smooth="yes"/>
			<point x="171" y="-141" type="line" smooth="yes"/>
			<point x="167" y="-164"/>
			<point x="179" y="-178"/>
		</contour>
		<contour>
			<point x="290" y="379" type="curve" smooth="yes"/>
			<point x="325" y="379" type="line" smooth="yes"/>
			<point x="346" y="379"/>
			<point x="361" y="392"/>
			<point x="364" y="413" type="curve" smooth="yes"/>
			<point x="415" y="733" type="line" smooth="yes"/>
			<point x="419" y="756"/>
			<point x="407" y="770"/>
			<point x="384" y="770" type="curve" smooth="yes"/>
			<point x="349" y="770" type="line" smooth="yes"/>
			<point x="329" y="770"/>
			<point x="314" y="758"/>
			<point x="310" y="737" type="curve" smooth="yes"/>
			<point x="259" y="416" type="line" smooth="yes"/>
			<point x="256" y="393"/>
			<point x="268" y="379"/>
		</contour>
	</outline>
</glyph>
<glyph name="dieresis" format="2">
	<advance width="575"/>
	<unicode hex="00A8"/>
	<anchor x="328" y="500" name="_top"/>
	<outline>
		<contour>
			<point x="277" y="629" type="curve" smooth="yes"/>
			<point x="284" y="675" type="line" smooth="yes"/>
			<point x="287" y="691"/>
			<point x="280" y="700"/>
			<point x="263" y="700" type="curve" smooth="yes"/>
			<point x="228" y="700" type="line" smooth="yes"/>
			<point x="212" y="700"/>
			<point x="202" y="691"/>
			<point x="199" y="675" type="curve" smooth="yes"/>
			<point x="192" y="629" type="line" smooth="yes"/>
			<point x="189" y="613"/>
			<point x="197" y="604"/>
			<point x="213" y="604" type="curve" smooth="yes"/>
			<point x="248" y="604" type="line" smooth="yes"/>
			<point x="265" y="604"/>
			<point x="274" y="612"/>
		</contour>
		<contour>
			<point x="484" y="629" type="curve" smooth="yes"/>
			<point x="491" y="675" type="line" smooth="yes"/>
			<point x="494" y="691"/>
			<point x="486" y="700"/>
			<point x="470" y="700" type="curve" smooth="yes"/>
			<point x="435" y="700" type="line" smooth="yes"/>
			<point x="419" y="700"/>
			<point x="409" y="691"/>
			<point x="406" y="675" type="curve" smooth="yes"/>
			<point x="399" y="629" type="line" smooth="yes"/>
			<point x="396" y="613"/>
			<point x="403" y="604"/>
			<point x="420" y="604" type="curve" smooth="yes"/>
			<point x="455" y="604" type="line" smooth="yes"/>
			<point x="471" y="604"/>
			<point x="481" y="612"/>
		</contour>
	</outline>
</glyph>
<glyph name="registered" format="2">
	<advance width="575"/>
	<unicode hex="00AE"/>
	<outline>
		<contour>
			<point x="522" y="561" type="curve" smooth="yes"/>
			<point x="482" y="609"/>
			<point x="417" y="637"/>
			<point x="349" y="637" type="curve" smooth="yes"/>
			<point x="280" y="637"/>
			<point x="208" y="609"/>
			<point x="151" y="561" type="curve" smooth="yes"/>
			<point x="95" y="512"/>
			<point x="57" y="444"/>
			<point x="46" y="375" type="curve" smooth="yes"/>
			<point x="35" y="307"/>
			<point x="52" y="238"/>
			<point x="92" y="190" type="curve" smooth="yes"/>
			<point x="134" y="141"/>
			<point x="197" y="113"/>
			<point x="266" y="113" type="curve" smooth="yes"/>
			<point x="334" y="113"/>
			<point x="408" y="141"/>
			<point x="463" y="190" type="curve" smooth="yes"/>
			<point x="520" y="238"/>
			<point x="559" y="307"/>
			<point x="570" y="375" type="curve" smooth="yes"/>
			<point x="581" y="444"/>
			<point x="563" y="512"/>
		</contour>
		<contour>
			<point x="426" y="234" type="curve" smooth="yes"/>
			<point x="384" y="197"/>
			<point x="328" y="176"/>
			<point x="276" y="176" type="curve" smooth="yes"/>
			<point x="224" y="176"/>
			<point x="176" y="197"/>
			<point x="144" y="234" type="curve" smooth="yes"/>
			<point x="113" y="271"/>
			<point x="100" y="323"/>
			<point x="108" y="375" type="curve" smooth="yes"/>
			<point x="116" y="427"/>
			<point x="146" y="479"/>
			<point x="189" y="516" type="curve" smooth="yes"/>
			<point x="232" y="553"/>
			<point x="287" y="575"/>
			<point x="339" y="575" type="curve" smooth="yes"/>
			<point x="391" y="575"/>
			<point x="440" y="553"/>
			<point x="471" y="516" type="curve" smooth="yes"/>
			<point x="502" y="479"/>
			<point x="515" y="427"/>
			<point x="507" y="375" type="curve" smooth="yes"/>
			<point x="499" y="323"/>
			<point x="469" y="271"/>
		</contour>
		<contour>
			<point x="347" y="500" type="curve"/>
			<point x="246" y="500" type="line"/>
			<point x="230" y="500"/>
			<point x="219" y="492"/>
			<point x="217" y="475" type="curve" smooth="yes"/>
			<point x="185" y="275" type="line" smooth="yes"/>
			<point x="182" y="259"/>
			<point x="190" y="250"/>
			<point x="206" y="250" type="curve" smooth="yes"/>
			<point x="218" y="250" type="line" smooth="yes"/>
			<point x="235" y="250"/>
			<point x="244" y="259"/>
			<point x="247" y="275" type="curve" smooth="yes"/>
			<point x="258" y="344" type="line"/>
			<point x="287" y="344" type="line"/>
			<point x="334" y="265" type="line" smooth="yes"/>
			<point x="341" y="255"/>
			<point x="349" y="250"/>
			<point x="362" y="250" type="curve" smooth="yes"/>
			<point x="383" y="250" type="line" smooth="yes"/>
			<point x="404" y="250"/>
			<point x="413" y="264"/>
			<point x="403" y="281" type="curve" smooth="yes"/>
			<point x="363" y="347" type="line"/>
			<point x="375" y="349"/>
			<point x="386" y="353"/>
			<point x="396" y="359" type="curve" smooth="yes"/>
			<point x="408" y="366"/>
			<point x="418" y="376"/>
			<point x="426" y="386" type="curve" smooth="yes"/>
			<point x="433" y="397"/>
			<point x="439" y="410"/>
			<point x="441" y="422" type="curve" smooth="yes"/>
			<point x="443" y="435"/>
			<point x="441" y="447"/>
			<point x="437" y="458" type="curve" smooth="yes"/>
			<point x="433" y="469"/>
			<point x="426" y="478"/>
			<point x="416" y="485" type="curve" smooth="yes"/>
			<point x="407" y="492"/>
			<point x="396" y="496"/>
			<point x="384" y="498" type="curve" smooth="yes"/>
			<point x="372" y="500"/>
			<point x="360" y="500"/>
		</contour>
		<contour>
			<point x="342" y="407" type="curve" smooth="yes"/>
			<point x="268" y="407" type="line"/>
			<point x="273" y="438" type="line"/>
			<point x="347" y="438" type="line" smooth="yes"/>
			<point x="358" y="438"/>
			<point x="380" y="435"/>
			<point x="378" y="422" type="curve" smooth="yes"/>
			<point x="377" y="407"/>
			<point x="354" y="407"/>
		</contour>
	</outline>
</glyph>
<glyph name="macron" format="2">
	<advance width="575"/>
	<unicode hex="00AF"/>
	<anchor x="328" y="500" name="_top"/>
	<outline>
		<contour>
			<point x="241" y="675" type="curve" smooth="yes"/>
			<point x="237" y="649" type="line" smooth="yes"/>
			<point x="235" y="632"/>
			<point x="242" y="624"/>
			<point x="258" y="624" type="curve" smooth="yes"/>
			<point x="496" y="624" type="line" smooth="yes"/>
			<point x="512" y="624"/>
			<point x="523" y="632"/>
			<point x="525" y="648" type="curve" smooth="yes"/>
			<point x="529" y="675" type="line" smooth="yes"/>
			<point x="532" y="691"/>
			<point x="524" y="700"/>
			<point x="508" y="700" type="curve" smooth="yes"/>
			<point x="270" y="700" type="line" smooth="yes"/>
			<point x="254" y="700"/>
			<point x="244" y="691"/>
		</contour>
	</outline>
</glyph>
<glyph name="degree" format="2">
	<advance width="575"/>
	<unicode hex="00B0"/>
	<outline>
		<contour>
			<point x="364" y="730" type="curve" smooth="yes"/>
			<point x="240" y="730"/>
			<point x="137" y="629"/>
			<point x="137" y="508" type="curve" smooth="yes"/>
			<point x="137" y="412"/>
			<point x="206" y="346"/>
			<point x="306" y="346" type="curve" smooth="yes"/>
			<point x="426" y="346"/>
			<point x="527" y="449"/>
			<point x="527" y="570" type="curve" smooth="yes"/>
			<point x="527" y="664"/>
			<point x="460" y="730"/>
		</contour>
		<contour>
			<point x="315" y="443" type="curve" smooth="yes"/>
			<point x="272" y="443"/>
			<point x="243" y="473"/>
			<point x="243" y="519" type="curve" smooth="yes"/>
			<point x="243" y="581"/>
			<point x="291" y="633"/>
			<point x="349" y="633" type="curve" smooth="yes"/>
			<point x="392" y="633"/>
			<point x="421" y="603"/>
			<point x="421" y="558" type="curve" smooth="yes"/>
			<point x="421" y="496"/>
			<point x="372" y="443"/>
		</contour>
	</outline>
</glyph>
<glyph name="acute" format="2">
	<advance width="575"/>
	<unicode hex="00B4"/>
	<anchor x="353" y="500" name="_top"/>
	<outline>
		<contour>
			<point x="236" y="592" type="curve"/>
			<point x="242" y="574" type="line" smooth="yes"/>
			<point x="247" y="560"/>
			<point x="258" y="556"/>
			<point x="274" y="561" type="curve" smooth="yes"/>
			<point x="506" y="636" type="line" smooth="yes"/>
			<point x="523" y="641"/>
			<point x="530" y="653"/>
			<point x="525" y="668" type="curve"/>
			<point x="512" y="714" type="line"/>
			<point x="507" y="729"/>
			<point x="496" y="733"/>
			<point x="481" y="726" type="curve" smooth="yes"/>
			<point x="255" y="625" type="line" smooth="yes"/>
			<point x="239" y="618"/>
			<point x="233" y="607"/>
		</contour>
	</outline>
</glyph>
<glyph name="uni00B5" format="2">
	<advance width="575"/>
	<unicode hex="00B5"/>
	<outline>
		<contour>
			<point x="505" y="520" type="curve" smooth="yes"/>
			<point x="470" y="520" type="line" smooth="yes"/>
			<point x="449" y="520"/>
			<point x="434" y="507"/>
			<point x="431" y="486" type="curve" smooth="yes"/>
			<point x="368" y="90" type="line"/>
			<point x="326" y="88"/>
			<point x="291" y="87"/>
			<point x="269" y="87" type="curve" smooth="yes"/>
			<point x="181" y="87"/>
			<point x="157" y="115"/>
			<point x="171" y="201" type="curve" smooth="yes"/>
			<point x="216" y="483" type="line" smooth="yes"/>
			<point x="219" y="507"/>
			<point x="207" y="520"/>
			<point x="185" y="520" type="curve" smooth="yes"/>
			<point x="150" y="520" type="line" smooth="yes"/>
			<point x="128" y="520"/>
			<point x="114" y="507"/>
			<point x="111" y="486" type="curve"/>
			<point x="2" y="-201" type="line" smooth="yes"/>
			<point x="-2" y="-223"/>
			<point x="10" y="-238"/>
			<point x="33" y="-238" type="curve" smooth="yes"/>
			<point x="68" y="-238" type="line" smooth="yes"/>
			<point x="88" y="-238"/>
			<point x="103" y="-226"/>
			<point x="107" y="-205" type="curve" smooth="yes"/>
			<point x="141" y="15" type="line"/>
			<point x="168" y="-2"/>
			<point x="206" y="-10"/>
			<point x="257" y="-10" type="curve" smooth="yes"/>
			<point x="290" y="-10"/>
			<point x="354" y="-9"/>
			<point x="430" y="3" type="curve" smooth="yes"/>
			<point x="450" y="6"/>
			<point x="462" y="18"/>
			<point x="465" y="39" type="curve" smooth="yes"/>
			<point x="536" y="483" type="line"/>
			<point x="539" y="507"/>
			<point x="528" y="520"/>
		</contour>
	</outline>
</glyph>
<glyph name="Eth" format="2">
	<advance width="575"/>
	<unicode hex="00D0"/>
	<outline>
		<contour>
			<point x="40" y="363" type="curve" smooth="yes"/>
			<point x="36" y="337" type="line" smooth="yes"/>
			<point x="33" y="321"/>
			<point x="41" y="312"/>
			<point x="57" y="312" type="curve" smooth="yes"/>
			<point x="280" y="312" type="line" smooth="yes"/>
			<point x="296" y="312"/>
			<point x="306" y="321"/>
			<point x="309" y="337" type="curve" smooth="yes"/>
			<point x="313" y="364" type="line" smooth="yes"/>
			<point x="316" y="380"/>
			<point x="308" y="389"/>
			<point x="292" y="389" type="curve" smooth="yes"/>
			<point x="69" y="389" type="line" smooth="yes"/>
			<point x="53" y="389"/>
			<point x="43" y="380"/>
		</contour>
		<component base="D" xOffset="-10"/>
	</outline>
</glyph>
<glyph name="Thorn" format="2">
	<advance width="575"/>
	<unicode hex="00DE"/>
	<outline>
		<contour>
			<point x="243" y="658" type="curve"/>
			<point x="247" y="683" type="line" smooth="yes"/>
			<point x="251" y="705"/>
			<point x="239" y="720"/>
			<point x="216" y="720" type="curve" smooth="yes"/>
			<point x="181" y="720" type="line" smooth="yes"/>
			<point x="161" y="720"/>
			<point x="146" y="708"/>
			<point x="142" y="687" type="curve" smooth="yes"/>
			<point x="39" y="37" type="line" smooth="yes"/>
			<point x="36" y="14"/>
			<point x="48" y="0"/>
			<point x="70" y="0" type="curve" smooth="yes"/>
			<point x="105" y="0" type="line" smooth="yes"/>
			<point x="126" y="0"/>
			<point x="141" y="13"/>
			<point x="144" y="34" type="curve" smooth="yes"/>
			<point x="158" y="125" type="line"/>
			<point x="192" y="122"/>
			<point x="221" y="121"/>
			<point x="239" y="121" type="curve" smooth="yes"/>
			<point x="428" y="121"/>
			<point x="529" y="239"/>
			<point x="529" y="458" type="curve" smooth="yes"/>
			<point x="529" y="602"/>
			<point x="468" y="662"/>
			<point x="321" y="662" type="curve" smooth="yes"/>
			<point x="301" y="662"/>
			<point x="275" y="661"/>
		</contour>
		<contour>
			<point x="174" y="221" type="curve"/>
			<point x="228" y="563" type="line"/>
			<point x="264" y="565"/>
			<point x="292" y="565"/>
			<point x="309" y="565" type="curve" smooth="yes"/>
			<point x="395" y="565"/>
			<point x="423" y="536"/>
			<point x="423" y="445" type="curve" smooth="yes"/>
			<point x="423" y="293"/>
			<point x="366" y="218"/>
			<point x="251" y="218" type="curve" smooth="yes"/>
			<point x="233" y="218"/>
			<point x="206" y="219"/>
		</contour>
	</outline>
</glyph>
<glyph name="ae" format="2">
	<advance width="575"/>
	<unicode hex="00E6"/>
	<anchor x="329" y="520" name="top"/>
	<anchor x="247" y="0" name="bottom"/>
	<outline>
		<contour>
			<point x="219" y="202" type="curve" smooth="yes"/>
			<point x="226" y="202" type="line"/>
			<point x="207" y="86" type="line"/>
			<point x="161" y="82"/>
			<point x="86" y="89"/>
			<point x="94" y="139" type="curve" smooth="yes"/>
			<point x="100" y="175"/>
			<point x="139" y="202"/>
		</contour>
		<contour>
			<point x="-13" y="136" type="curve" smooth="yes"/>
			<point x="-28" y="39"/>
			<point x="38" y="-10"/>
			<point x="130" y="-10" type="curve" smooth="yes"/>
			<point x="169" y="-10"/>
			<point x="215" y="-1"/>
			<point x="261" y="17" type="curve"/>
			<point x="287" y="-3"/>
			<point x="319" y="-10"/>
			<point x="352" y="-10" type="curve" smooth="yes"/>
			<point x="394" y="-10"/>
			<point x="428" y="-2"/>
			<point x="488" y="18" type="curve" smooth="yes"/>
			<point x="509" y="24"/>
			<point x="519" y="43"/>
			<point x="514" y="64" type="curve" smooth="yes"/>
			<point x="508" y="88" type="line" smooth="yes"/>
			<point x="503" y="108"/>
			<point x="488" y="118"/>
			<point x="465" y="107" type="curve" smooth="yes"/>
			<point x="414" y="81"/>
			<point x="400" y="82"/>
			<point x="382" y="82" type="curve" smooth="yes"/>
			<point x="341" y="82"/>
			<point x="315" y="105"/>
			<point x="325" y="167" type="curve" smooth="yes"/>
			<point x="336" y="237" type="line"/>
			<point x="516" y="237" type="line" smooth="yes"/>
			<point x="537" y="237"/>
			<point x="554" y="251"/>
			<point x="557" y="272" type="curve" smooth="yes"/>
			<point x="561" y="295" type="line" smooth="yes"/>
			<point x="584" y="445"/>
			<point x="548" y="530"/>
			<point x="440" y="530" type="curve" smooth="yes"/>
			<point x="405" y="530"/>
			<point x="365" y="520"/>
			<point x="337" y="495" type="curve"/>
			<point x="316" y="526"/>
			<point x="282" y="530"/>
			<point x="245" y="530" type="curve" smooth="yes"/>
			<point x="211" y="530"/>
			<point x="169" y="527"/>
			<point x="128" y="519" type="curve" smooth="yes"/>
			<point x="105" y="515"/>
			<point x="96" y="499"/>
			<point x="95" y="479" type="curve" smooth="yes"/>
			<point x="93" y="452" type="line" smooth="yes"/>
			<point x="93" y="430"/>
			<point x="109" y="421"/>
			<point x="131" y="425" type="curve" smooth="yes"/>
			<point x="210" y="440"/>
			<point x="265" y="452"/>
			<point x="254" y="379" type="curve" smooth="yes"/>
			<point x="241" y="299" type="line"/>
			<point x="234" y="299" type="line" smooth="yes"/>
			<point x="88" y="299"/>
			<point x="2" y="226"/>
		</contour>
		<contour>
			<point x="462" y="334" type="curve"/>
			<point x="353" y="334" type="line"/>
			<point x="366" y="412"/>
			<point x="379" y="434"/>
			<point x="416" y="434" type="curve" smooth="yes"/>
			<point x="460" y="434"/>
			<point x="471" y="405"/>
		</contour>
	</outline>
</glyph>
<glyph name="thorn" format="2">
	<advance width="575"/>
	<unicode hex="00FE"/>
	<anchor x="260" y="0" name="bottom"/>
	<anchor x="340" y="500" name="top"/>
	<outline>
		<contour>
			<point x="223" y="528" type="curve"/>
			<point x="247" y="684" type="line" smooth="yes"/>
			<point x="251" y="707"/>
			<point x="239" y="720"/>
			<point x="215" y="720" type="curve" smooth="yes"/>
			<point x="180" y="720" type="line" smooth="yes"/>
			<point x="161" y="720"/>
			<point x="146" y="707"/>
			<point x="142" y="686" type="curve"/>
			<point x="8" y="-164" type="line" smooth="yes"/>
			<point x="4" y="-186"/>
			<point x="16" y="-200"/>
			<point x="40" y="-200" type="curve" smooth="yes"/>
			<point x="75" y="-200" type="line" smooth="yes"/>
			<point x="95" y="-200"/>
			<point x="109" y="-187"/>
			<point x="113" y="-166" type="curve" smooth="yes"/>
			<point x="138" y="-5" type="line"/>
			<point x="172" y="-7"/>
			<point x="200" y="-8"/>
			<point x="218" y="-8" type="curve" smooth="yes"/>
			<point x="407" y="-8"/>
			<point x="508" y="109"/>
			<point x="508" y="329" type="curve" smooth="yes"/>
			<point x="508" y="472"/>
			<point x="447" y="532"/>
			<point x="300" y="532" type="curve" smooth="yes"/>
			<point x="281" y="532"/>
			<point x="254" y="531"/>
		</contour>
		<contour>
			<point x="154" y="91" type="curve"/>
			<point x="208" y="433" type="line"/>
			<point x="243" y="435"/>
			<point x="271" y="435"/>
			<point x="288" y="435" type="curve" smooth="yes"/>
			<point x="374" y="435"/>
			<point x="402" y="406"/>
			<point x="402" y="315" type="curve" smooth="yes"/>
			<point x="402" y="163"/>
			<point x="345" y="88"/>
			<point x="230" y="88" type="curve" smooth="yes"/>
			<point x="212" y="88"/>
			<point x="185" y="89"/>
		</contour>
	</outline>
</glyph>
<glyph name="ij" format="2">
	<advance width="575"/>
	<unicode hex="0133"/>
	<outline>
		<contour>
			<point x="284" y="654" type="curve"/>
			<point x="319" y="654" type="line"/>
			<point x="340" y="654"/>
			<point x="356" y="668"/>
			<point x="360" y="689" type="curve"/>
			<point x="367" y="735" type="line"/>
			<point x="370" y="755"/>
			<point x="358" y="770"/>
			<point x="337" y="770" type="curve"/>
			<point x="302" y="770" type="line"/>
			<point x="282" y="770"/>
			<point x="265" y="755"/>
			<point x="262" y="735" type="curve"/>
			<point x="255" y="689" type="line"/>
			<point x="251" y="669"/>
			<point x="264" y="654"/>
		</contour>
		<contour>
			<point x="547" y="770" type="curve"/>
			<point x="512" y="770" type="line"/>
			<point x="492" y="770"/>
			<point x="475" y="755"/>
			<point x="472" y="735" type="curve"/>
			<point x="465" y="689" type="line"/>
			<point x="461" y="669"/>
			<point x="474" y="654"/>
			<point x="494" y="654" type="curve"/>
			<point x="529" y="654" type="line"/>
			<point x="550" y="654"/>
			<point x="566" y="669"/>
			<point x="570" y="689" type="curve"/>
			<point x="577" y="735" type="line"/>
			<point x="580" y="756"/>
			<point x="567" y="770"/>
		</contour>
		<contour>
			<point x="513" y="520" type="curve"/>
			<point x="158" y="520" type="line"/>
			<point x="138" y="520"/>
			<point x="121" y="506"/>
			<point x="117" y="485" type="curve"/>
			<point x="113" y="459" type="line"/>
			<point x="110" y="439"/>
			<point x="123" y="424"/>
			<point x="143" y="424" type="curve"/>
			<point x="213" y="424" type="line"/>
			<point x="151" y="35" type="line"/>
			<point x="148" y="15"/>
			<point x="160" y="0"/>
			<point x="180" y="0" type="curve"/>
			<point x="215" y="0" type="line"/>
			<point x="236" y="0"/>
			<point x="253" y="15"/>
			<point x="256" y="35" type="curve"/>
			<point x="318" y="424" type="line"/>
			<point x="423" y="424" type="line"/>
			<point x="361" y="34" type="line"/>
			<point x="341" y="-91"/>
			<point x="282" y="-151"/>
			<point x="155" y="-151" type="curve"/>
			<point x="133" y="-151"/>
			<point x="100" y="-150"/>
			<point x="59" y="-142" type="curve"/>
			<point x="40" y="-138"/>
			<point x="21" y="-149"/>
			<point x="13" y="-169" type="curve"/>
			<point x="2" y="-194" type="line"/>
			<point x="-7" y="-215"/>
			<point x="3" y="-233"/>
			<point x="22" y="-237" type="curve"/>
			<point x="70" y="-246"/>
			<point x="112" y="-248"/>
			<point x="140" y="-248" type="curve"/>
			<point x="328" y="-248"/>
			<point x="436" y="-157"/>
			<point x="466" y="34" type="curve"/>
			<point x="537" y="485" type="line"/>
			<point x="540" y="504"/>
			<point x="531" y="520"/>
		</contour>
	</outline>
</glyph>
<glyph name="Lslash" format="2">
	<advance width="575"/>
	<unicode hex="0141"/>
	<outline>
		<contour>
			<point x="299" y="512" type="curve" smooth="yes"/>
			<point x="32" y="332" type="line" smooth="yes"/>
			<point x="19" y="323"/>
			<point x="13" y="306"/>
			<point x="21" y="294" type="curve" smooth="yes"/>
			<point x="37" y="271" type="line" smooth="yes"/>
			<point x="44" y="261"/>
			<point x="58" y="259"/>
			<point x="71" y="267" type="curve" smooth="yes"/>
			<point x="338" y="446" type="line" smooth="yes"/>
			<point x="351" y="455"/>
			<point x="356" y="471"/>
			<point x="348" y="484" type="curve" smooth="yes"/>
			<point x="333" y="507" type="line" smooth="yes"/>
			<point x="326" y="517"/>
			<point x="312" y="520"/>
		</contour>
		<component base="L"/>
	</outline>
</glyph>
<glyph name="uni019B" format="2">
	<advance width="575"/>
	<unicode hex="019B"/>
	<outline>
		<contour>
			<point x="514" y="701" type="curve" smooth="yes"/>
			<point x="499" y="724" type="line" smooth="yes"/>
			<point x="491" y="736"/>
			<point x="480" y="739"/>
			<point x="465" y="729" type="curve" smooth="yes"/>
			<point x="323" y="636" type="line"/>
			<point x="290" y="684"/>
			<point x="246" y="707"/>
			<point x="189" y="707" type="curve" smooth="yes"/>
			<point x="168" y="707"/>
			<point x="152" y="693"/>
			<point x="148" y="672" type="curve" smooth="yes"/>
			<point x="144" y="648" type="line" smooth="yes"/>
			<point x="141" y="627"/>
			<point x="153" y="613"/>
			<point x="174" y="613" type="curve" smooth="yes"/>
			<point x="197" y="613"/>
			<point x="215" y="602"/>
			<point x="231" y="579" type="curve"/>
			<point x="110" y="506" type="line" smooth="yes"/>
			<point x="96" y="497"/>
			<point x="89" y="485"/>
			<point x="98" y="471" type="curve" smooth="yes"/>
			<point x="113" y="448" type="line" smooth="yes"/>
			<point x="121" y="436"/>
			<point x="133" y="434"/>
			<point x="147" y="443" type="curve" smooth="yes"/>
			<point x="260" y="517" type="line"/>
			<point x="263" y="509"/>
			<point x="265" y="501"/>
			<point x="268" y="492" type="curve"/>
			<point x="9" y="43" type="line" smooth="yes"/>
			<point x="-5" y="18"/>
			<point x="6" y="0"/>
			<point x="31" y="0" type="curve" smooth="yes"/>
			<point x="68" y="0" type="line" smooth="yes"/>
			<point x="86" y="0"/>
			<point x="101" y="9"/>
			<point x="110" y="25" type="curve" smooth="yes"/>
			<point x="304" y="375" type="line"/>
			<point x="391" y="25" type="line"/>
			<point x="394" y="9"/>
			<point x="407" y="0"/>
			<point x="425" y="0" type="curve" smooth="yes"/>
			<point x="462" y="0" type="line" smooth="yes"/>
			<point x="487" y="0"/>
			<point x="504" y="18"/>
			<point x="498" y="43" type="curve" smooth="yes"/>
			<point x="374" y="514" type="line" smooth="yes"/>
			<point x="368" y="537"/>
			<point x="361" y="558"/>
			<point x="354" y="577" type="curve"/>
			<point x="502" y="666" type="line" smooth="yes"/>
			<point x="517" y="675"/>
			<point x="523" y="687"/>
		</contour>
	</outline>
</glyph>
<glyph name="ohorn" format="2">
	<advance width="575"/>
	<unicode hex="01A1"/>
	<anchor x="334" y="550" name="top"/>
	<anchor x="248" y="0" name="bottom"/>
	<outline>
		<contour>
			<point x="513" y="581" type="curve" smooth="yes"/>
			<point x="490" y="535"/>
			<point x="461" y="520"/>
			<point x="328" y="520" type="curve"/>
			<point x="318" y="462" type="line"/>
			<point x="431" y="462"/>
			<point x="537" y="471"/>
			<point x="590" y="553" type="curve" smooth="yes"/>
			<point x="599" y="568"/>
			<point x="594" y="579"/>
			<point x="580" y="585" type="curve" smooth="yes"/>
			<point x="547" y="598" type="line" smooth="yes"/>
			<point x="534" y="603"/>
			<point x="522" y="597"/>
		</contour>
		<component base="o"/>
	</outline>
</glyph>
<glyph name="Uhorn" format="2">
	<advance width="575"/>
	<unicode hex="01AF"/>
	<anchor x="368" y="720" name="top"/>
	<outline>
		<contour>
			<point x="634" y="781" type="curve" smooth="yes"/>
			<point x="618" y="735"/>
			<point x="601" y="720"/>
			<point x="538" y="720" type="curve"/>
			<point x="538" y="662" type="line"/>
			<point x="601" y="662"/>
			<point x="675" y="671"/>
			<point x="715" y="753" type="curve" smooth="yes"/>
			<point x="722" y="768"/>
			<point x="715" y="779"/>
			<point x="700" y="785" type="curve" smooth="yes"/>
			<point x="665" y="798" type="line" smooth="yes"/>
			<point x="651" y="803"/>
			<point x="640" y="797"/>
		</contour>
		<component base="U"/>
	</outline>
</glyph>
<glyph name="uhorn" format="2">
	<advance width="575"/>
	<unicode hex="01B0"/>
	<anchor x="339" y="570" name="top"/>
	<outline>
		<contour>
			<point x="586" y="581" type="curve" smooth="yes"/>
			<point x="563" y="535"/>
			<point x="544" y="520"/>
			<point x="481" y="520" type="curve"/>
			<point x="472" y="462" type="line"/>
			<point x="535" y="462"/>
			<point x="610" y="471"/>
			<point x="663" y="553" type="curve" smooth="yes"/>
			<point x="672" y="568"/>
			<point x="667" y="579"/>
			<point x="653" y="585" type="curve" smooth="yes"/>
			<point x="620" y="598" type="line" smooth="yes"/>
			<point x="607" y="603"/>
			<point x="595" y="597"/>
		</contour>
		<component base="u"/>
	</outline>
</glyph>
<glyph name="uni02B3" format="2">
	<advance width="575"/>
	<unicode hex="02B3"/>
	<outline>
		<contour>
			<point x="250" y="537" type="curve"/>
			<point x="256" y="575" type="line" smooth="yes"/>
			<point x="259" y="591"/>
			<point x="251" y="600"/>
			<point x="235" y="600" type="curve" smooth="yes"/>
			<point x="163" y="600" type="line" smooth="yes"/>
			<point x="147" y="600"/>
			<point x="138" y="586"/>
			<point x="135" y="570" type="curve" smooth="yes"/>
			<point x="79" y="225" type="line" smooth="yes"/>
			<point x="76" y="209"/>
			<point x="84" y="200"/>
			<point x="100" y="200" type="curve" smooth="yes"/>
			<point x="170" y="200" type="line" smooth="yes"/>
			<point x="186" y="200"/>
			<point x="196" y="209"/>
			<point x="199" y="225" type="curve" smooth="yes"/>
			<point x="236" y="449" type="line"/>
			<point x="285" y="501"/>
			<point x="327" y="535"/>
			<point x="355" y="535" type="curve" smooth="yes"/>
			<point x="380" y="535"/>
			<point x="394" y="509"/>
			<point x="394" y="449" type="curve" smooth="yes"/>
			<point x="394" y="432"/>
			<point x="402" y="423"/>
			<point x="419" y="423" type="curve" smooth="yes"/>
			<point x="490" y="423" type="line" smooth="yes"/>
			<point x="506" y="423"/>
			<point x="516" y="432"/>
			<point x="516" y="448" type="curve" smooth="yes"/>
			<point x="516" y="564"/>
			<point x="471" y="612"/>
			<point x="408" y="612" type="curve" smooth="yes"/>
			<point x="359" y="612"/>
			<point x="301" y="584"/>
		</contour>
	</outline>
</glyph>
<glyph name="circumflex" format="2">
	<advance width="575"/>
	<unicode hex="02C6"/>
	<anchor x="358" y="699" name="top"/>
	<anchor x="328" y="500" name="_top"/>
	<outline>
		<contour>
			<point x="163" y="576" type="curve" smooth="yes"/>
			<point x="175" y="552" type="line"/>
			<point x="184" y="540"/>
			<point x="196" y="538"/>
			<point x="210" y="547" type="curve" smooth="yes"/>
			<point x="324" y="619" type="line" smooth="yes"/>
			<point x="333" y="624"/>
			<point x="336" y="628"/>
			<point x="346" y="628" type="curve" smooth="yes"/>
			<point x="356" y="628"/>
			<point x="359" y="624"/>
			<point x="366" y="619" type="curve" smooth="yes"/>
			<point x="456" y="547" type="line" smooth="yes"/>
			<point x="468" y="538"/>
			<point x="480" y="540"/>
			<point x="491" y="553" type="curve" smooth="yes"/>
			<point x="512" y="576" type="line" smooth="yes"/>
			<point x="524" y="590"/>
			<point x="524" y="602"/>
			<point x="512" y="611" type="curve" smooth="yes"/>
			<point x="418" y="677" type="line" smooth="yes"/>
			<point x="400" y="689"/>
			<point x="381" y="700"/>
			<point x="358" y="700" type="curve" smooth="yes"/>
			<point x="335" y="700"/>
			<point x="313" y="691"/>
			<point x="290" y="677" type="curve" smooth="yes"/>
			<point x="176" y="611" type="line" smooth="yes"/>
			<point x="160" y="602"/>
			<point x="155" y="590"/>
		</contour>
	</outline>
</glyph>
<glyph name="caron" format="2">
	<advance width="575"/>
	<unicode hex="02C7"/>
	<anchor x="328" y="520" name="_top"/>
	<outline>
		<contour>
			<point x="229" y="708" type="curve" smooth="yes"/>
			<point x="209" y="685" type="line" smooth="yes"/>
			<point x="197" y="672"/>
			<point x="198" y="659"/>
			<point x="210" y="650" type="curve" smooth="yes"/>
			<point x="304" y="584" type="line" smooth="yes"/>
			<point x="323" y="571"/>
			<point x="341" y="562"/>
			<point x="364" y="562" type="curve" smooth="yes"/>
			<point x="387" y="562"/>
			<point x="410" y="572"/>
			<point x="432" y="585" type="curve" smooth="yes"/>
			<point x="546" y="650" type="line" smooth="yes"/>
			<point x="562" y="659"/>
			<point x="566" y="672"/>
			<point x="558" y="685" type="curve" smooth="yes"/>
			<point x="544" y="708" type="line" smooth="yes"/>
			<point x="536" y="721"/>
			<point x="526" y="723"/>
			<point x="511" y="714" type="curve" smooth="yes"/>
			<point x="398" y="643" type="line" smooth="yes"/>
			<point x="389" y="638"/>
			<point x="386" y="634"/>
			<point x="376" y="634" type="curve" smooth="yes"/>
			<point x="366" y="634"/>
			<point x="363" y="637"/>
			<point x="356" y="643" type="curve" smooth="yes"/>
			<point x="265" y="714" type="line" smooth="yes"/>
			<point x="254" y="723"/>
			<point x="241" y="721"/>
		</contour>
	</outline>
</glyph>
<glyph name="breve" format="2">
	<advance width="575"/>
	<unicode hex="02D8"/>
	<anchor x="328" y="500" name="_top"/>
	<anchor x="388" y="705" name="top"/>
	<outline>
		<contour>
			<point x="552" y="711" type="curve" smooth="yes"/>
			<point x="525" y="716" type="line" smooth="yes"/>
			<point x="509" y="719"/>
			<point x="499" y="712"/>
			<point x="492" y="696" type="curve" smooth="yes"/>
			<point x="469" y="646"/>
			<point x="427" y="618"/>
			<point x="374" y="618" type="curve" smooth="yes"/>
			<point x="320" y="618"/>
			<point x="288" y="646"/>
			<point x="280" y="696" type="curve" smooth="yes"/>
			<point x="278" y="712"/>
			<point x="270" y="719"/>
			<point x="255" y="716" type="curve" smooth="yes"/>
			<point x="226" y="711" type="line" smooth="yes"/>
			<point x="209" y="708"/>
			<point x="200" y="698"/>
			<point x="201" y="682" type="curve" smooth="yes"/>
			<point x="211" y="603"/>
			<point x="269" y="559"/>
			<point x="365" y="558" type="curve" smooth="yes"/>
			<point x="461" y="559"/>
			<point x="532" y="603"/>
			<point x="566" y="682" type="curve" smooth="yes"/>
			<point x="574" y="698"/>
			<point x="567" y="708"/>
		</contour>
	</outline>
</glyph>
<glyph name="dotaccent" format="2">
	<advance width="575"/>
	<unicode hex="02D9"/>
	<anchor x="330" y="520" name="_top"/>
	<outline>
		<contour>
			<point x="392" y="649" type="curve" smooth="yes"/>
			<point x="399" y="695" type="line" smooth="yes"/>
			<point x="402" y="711"/>
			<point x="395" y="720"/>
			<point x="378" y="720" type="curve" smooth="yes"/>
			<point x="343" y="720" type="line" smooth="yes"/>
			<point x="327" y="720"/>
			<point x="317" y="711"/>
			<point x="314" y="695" type="curve" smooth="yes"/>
			<point x="307" y="649" type="line" smooth="yes"/>
			<point x="304" y="633"/>
			<point x="312" y="624"/>
			<point x="328" y="624" type="curve" smooth="yes"/>
			<point x="363" y="624" type="line" smooth="yes"/>
			<point x="380" y="624"/>
			<point x="389" y="632"/>
		</contour>
	</outline>
</glyph>
<glyph name="uni02E1" format="2">
	<advance width="575"/>
	<unicode hex="02E1"/>
	<anchor x="259" y="0" name="bottom"/>
	<anchor x="300" y="260" name="center"/>
	<anchor x="341" y="720" name="top"/>
	<anchor x="621" y="520" name="topright"/>
	<outline>
		<contour>
			<point x="502" y="236" type="curve"/>
			<point x="497" y="269" type="line"/>
			<point x="493" y="289"/>
			<point x="479" y="298"/>
			<point x="456" y="294" type="curve" smooth="yes"/>
			<point x="456" y="294" type="line" smooth="yes"/>
			<point x="436" y="289"/>
			<point x="415" y="287"/>
			<point x="392" y="287" type="curve" smooth="yes"/>
			<point x="348" y="287"/>
			<point x="334" y="299"/>
			<point x="334" y="332" type="curve" smooth="yes"/>
			<point x="334" y="341"/>
			<point x="334" y="349"/>
			<point x="336" y="358" type="curve"/>
			<point x="375" y="608" type="line" smooth="yes"/>
			<point x="377" y="623"/>
			<point x="379" y="638"/>
			<point x="379" y="655" type="curve" smooth="yes"/>
			<point x="379" y="740"/>
			<point x="330" y="780"/>
			<point x="227" y="780" type="curve" smooth="yes"/>
			<point x="207" y="780"/>
			<point x="175" y="779"/>
			<point x="135" y="770" type="curve" smooth="yes"/>
			<point x="113" y="765"/>
			<point x="101" y="748"/>
			<point x="105" y="727" type="curve"/>
			<point x="109" y="701" type="line"/>
			<point x="114" y="681"/>
			<point x="128" y="672"/>
			<point x="150" y="676" type="curve"/>
			<point x="170" y="681"/>
			<point x="192" y="683"/>
			<point x="215" y="683" type="curve" smooth="yes"/>
			<point x="258" y="682"/>
			<point x="273" y="671"/>
			<point x="273" y="639" type="curve" smooth="yes"/>
			<point x="273" y="631"/>
			<point x="272" y="623"/>
			<point x="270" y="612" type="curve" smooth="yes"/>
			<point x="231" y="362" type="line" smooth="yes"/>
			<point x="228" y="345"/>
			<point x="227" y="331"/>
			<point x="227" y="317" type="curve" smooth="yes"/>
			<point x="227" y="231"/>
			<point x="277" y="190"/>
			<point x="380" y="190" type="curve" smooth="yes"/>
			<point x="400" y="190"/>
			<point x="432" y="190"/>
			<point x="471" y="200" type="curve" smooth="yes"/>
			<point x="491" y="205"/>
			<point x="503" y="218"/>
		</contour>
	</outline>
</glyph>
<glyph name="tonos" format="2">
	<advance width="575"/>
	<unicode hex="0384"/>
	<anchor x="10" y="500" name="_top"/>
	<outline>
		<contour>
			<point x="1" y="569" type="curve"/>
			<point x="20" y="568" type="line"/>
			<point x="36" y="567"/>
			<point x="47" y="576"/>
			<point x="52" y="590" type="curve" smooth="yes"/>
			<point x="119" y="773" type="line" smooth="yes"/>
			<point x="124" y="789"/>
			<point x="119" y="802"/>
			<point x="102" y="802" type="curve" smooth="yes"/>
			<point x="52" y="802" type="line" smooth="yes"/>
			<point x="35" y="802"/>
			<point x="25" y="795"/>
			<point x="22" y="780" type="curve" smooth="yes"/>
			<point x="-16" y="597" type="line" smooth="yes"/>
			<point x="-20" y="581"/>
			<point x="-14" y="572"/>
		</contour>
	</outline>
</glyph>
<glyph name="dieresistonos" format="2">
	<advance width="575"/>
	<unicode hex="0385"/>
	<anchor x="330" y="520" name="_top"/>
	<outline>
		<contour>
			<point x="240" y="649" type="curve" smooth="yes"/>
			<point x="247" y="695" type="line" smooth="yes"/>
			<point x="250" y="711"/>
			<point x="243" y="720"/>
			<point x="226" y="720" type="curve" smooth="yes"/>
			<point x="191" y="720" type="line" smooth="yes"/>
			<point x="175" y="720"/>
			<point x="165" y="711"/>
			<point x="162" y="695" type="curve" smooth="yes"/>
			<point x="155" y="649" type="line" smooth="yes"/>
			<point x="152" y="633"/>
			<point x="160" y="624"/>
			<point x="176" y="624" type="curve" smooth="yes"/>
			<point x="211" y="624" type="line" smooth="yes"/>
			<point x="228" y="624"/>
			<point x="237" y="632"/>
		</contour>
		<contour>
			<point x="547" y="649" type="curve" smooth="yes"/>
			<point x="554" y="695" type="line" smooth="yes"/>
			<point x="557" y="711"/>
			<point x="549" y="720"/>
			<point x="533" y="720" type="curve" smooth="yes"/>
			<point x="498" y="720" type="line" smooth="yes"/>
			<point x="482" y="720"/>
			<point x="472" y="711"/>
			<point x="469" y="695" type="curve" smooth="yes"/>
			<point x="462" y="649" type="line" smooth="yes"/>
			<point x="459" y="633"/>
			<point x="466" y="624"/>
			<point x="483" y="624" type="curve" smooth="yes"/>
			<point x="518" y="624" type="line" smooth="yes"/>
			<point x="534" y="624"/>
			<point x="544" y="632"/>
		</contour>
		<contour>
			<point x="319" y="589" type="curve"/>
			<point x="338" y="588" type="line"/>
			<point x="354" y="587"/>
			<point x="365" y="596"/>
			<point x="370" y="610" type="curve" smooth="yes"/>
			<point x="437" y="793" type="line" smooth="yes"/>
			<point x="442" y="809"/>
			<point x="437" y="822"/>
			<point x="420" y="822" type="curve" smooth="yes"/>
			<point x="370" y="822" type="line" smooth="yes"/>
			<point x="353" y="822"/>
			<point x="343" y="815"/>
			<point x="340" y="800" type="curve" smooth="yes"/>
			<point x="302" y="617" type="line" smooth="yes"/>
			<point x="298" y="601"/>
			<point x="304" y="592"/>
		</contour>
	</outline>
</glyph>
<glyph name="uni0394" format="2">
	<advance width="575"/>
	<unicode hex="0394"/>
	<outline>
		<contour>
			<point x="533" y="40" type="curve" smooth="yes"/>
			<point x="479" y="633" type="line"/>
			<point x="474" y="696"/>
			<point x="430" y="730"/>
			<point x="362" y="730" type="curve" smooth="yes"/>
			<point x="293" y="730"/>
			<point x="240" y="696"/>
			<point x="214" y="633" type="curve" smooth="yes"/>
			<point x="-28" y="40" type="line" smooth="yes"/>
			<point x="-36" y="17"/>
			<point x="-27" y="0"/>
			<point x="-2" y="0" type="curve" smooth="yes"/>
			<point x="496" y="0" type="line" smooth="yes"/>
			<point x="520" y="0"/>
			<point x="535" y="17"/>
		</contour>
		<contour>
			<point x="103" y="97" type="line"/>
			<point x="315" y="615" type="line" smooth="yes"/>
			<point x="320" y="628"/>
			<point x="329" y="634"/>
			<point x="347" y="634" type="curve" smooth="yes"/>
			<point x="365" y="634"/>
			<point x="372" y="628"/>
			<point x="373" y="615" type="curve" smooth="yes"/>
			<point x="420" y="97" type="line"/>
		</contour>
	</outline>
</glyph>
<glyph name="Theta" format="2">
	<advance width="575"/>
	<unicode hex="0398"/>
	<outline>
		<contour>
			<point x="184" y="374" type="curve" smooth="yes"/>
			<point x="180" y="347" type="line" smooth="yes"/>
			<point x="176" y="326"/>
			<point x="188" y="312"/>
			<point x="209" y="312" type="curve" smooth="yes"/>
			<point x="378" y="312" type="line" smooth="yes"/>
			<point x="399" y="312"/>
			<point x="415" y="326"/>
			<point x="419" y="347" type="curve" smooth="yes"/>
			<point x="423" y="374" type="line" smooth="yes"/>
			<point x="426" y="395"/>
			<point x="415" y="409"/>
			<point x="394" y="409" type="curve" smooth="yes"/>
			<point x="225" y="409" type="line" smooth="yes"/>
			<point x="204" y="409"/>
			<point x="187" y="395"/>
		</contour>
		<contour>
			<point x="366" y="732" type="curve" smooth="yes"/>
			<point x="221" y="732"/>
			<point x="92" y="620"/>
			<point x="51" y="360" type="curve" smooth="yes"/>
			<point x="10" y="100"/>
			<point x="103" y="-12"/>
			<point x="248" y="-12" type="curve" smooth="yes"/>
			<point x="388" y="-12"/>
			<point x="515" y="100"/>
			<point x="556" y="360" type="curve" smooth="yes"/>
			<point x="597" y="620"/>
			<point x="506" y="732"/>
		</contour>
		<contour>
			<point x="260" y="85" type="curve" smooth="yes"/>
			<point x="177" y="85"/>
			<point x="123" y="155"/>
			<point x="156" y="360" type="curve" smooth="yes"/>
			<point x="188" y="565"/>
			<point x="264" y="635"/>
			<point x="347" y="635" type="curve" smooth="yes"/>
			<point x="429" y="635"/>
			<point x="483" y="565"/>
			<point x="451" y="360" type="curve" smooth="yes"/>
			<point x="418" y="155"/>
			<point x="342" y="85"/>
		</contour>
	</outline>
</glyph>
<glyph name="Omicron" format="2">
	<advance width="575"/>
	<unicode hex="039F"/>
	<anchor x="93" y="720" name="topleft"/>
	<outline>
		<contour>
			<point x="366" y="732" type="curve" smooth="yes"/>
			<point x="221" y="732"/>
			<point x="92" y="620"/>
			<point x="51" y="360" type="curve" smooth="yes"/>
			<point x="10" y="100"/>
			<point x="103" y="-12"/>
			<point x="248" y="-12" type="curve" smooth="yes"/>
			<point x="388" y="-12"/>
			<point x="515" y="100"/>
			<point x="556" y="360" type="curve" smooth="yes"/>
			<point x="597" y="620"/>
			<point x="506" y="732"/>
		</contour>
		<contour>
			<point x="260" y="85" type="curve" smooth="yes"/>
			<point x="177" y="85"/>
			<point x="123" y="155"/>
			<point x="156" y="360" type="curve" smooth="yes"/>
			<point x="188" y="565"/>
			<point x="264" y="635"/>
			<point x="347" y="635" type="curve" smooth="yes"/>
			<point x="429" y="635"/>
			<point x="483" y="565"/>
			<point x="451" y="360" type="curve" smooth="yes"/>
			<point x="418" y="155"/>
			<point x="342" y="85"/>
		</contour>
	</outline>
</glyph>
<glyph name="Phi" format="2">
	<advance width="575"/>
	<unicode hex="03A6"/>
	<outline>
		<contour>
			<point x="383" y="755" type="curve" smooth="yes"/>
			<point x="348" y="755" type="line" smooth="yes"/>
			<point x="327" y="755"/>
			<point x="311" y="741"/>
			<point x="308" y="720" type="curve" smooth="yes"/>
			<point x="301" y="674" type="line"/>
			<point x="170" y="649"/>
			<point x="66" y="519"/>
			<point x="41" y="360" type="curve" smooth="yes"/>
			<point x="16" y="201"/>
			<point x="78" y="71"/>
			<point x="201" y="46" type="curve"/>
			<point x="194" y="0" type="line" smooth="yes"/>
			<point x="190" y="-21"/>
			<point x="202" y="-35"/>
			<point x="223" y="-35" type="curve" smooth="yes"/>
			<point x="258" y="-35" type="line" smooth="yes"/>
			<point x="281" y="-35"/>
			<point x="295" y="-21"/>
			<point x="299" y="0" type="curve" smooth="yes"/>
			<point x="306" y="44" type="line"/>
			<point x="436" y="67"/>
			<point x="538" y="187"/>
			<point x="566" y="360" type="curve" smooth="yes"/>
			<point x="592" y="523"/>
			<point x="529" y="652"/>
			<point x="406" y="676" type="curve"/>
			<point x="413" y="720" type="line" smooth="yes"/>
			<point x="416" y="741"/>
			<point x="404" y="755"/>
		</contour>
		<contour>
			<point x="146" y="360" type="curve" smooth="yes"/>
			<point x="166" y="489"/>
			<point x="220" y="555"/>
			<point x="287" y="574" type="curve"/>
			<point x="219" y="147" type="line"/>
			<point x="157" y="166"/>
			<point x="125" y="231"/>
		</contour>
		<contour>
			<point x="320" y="145" type="curve"/>
			<point x="388" y="576" type="line"/>
			<point x="449" y="558"/>
			<point x="481" y="489"/>
			<point x="461" y="360" type="curve" smooth="yes"/>
			<point x="439" y="222"/>
			<point x="387" y="162"/>
		</contour>
	</outline>
</glyph>
<glyph name="Psi" format="2">
	<advance width="575"/>
	<unicode hex="03A8"/>
	<outline>
		<contour>
			<point x="221" y="173" type="curve"/>
			<point x="198" y="25" type="line"/>
			<point x="194" y="2"/>
			<point x="206" y="-10"/>
			<point x="227" y="-10" type="curve" smooth="yes"/>
			<point x="262" y="-10" type="line" smooth="yes"/>
			<point x="284" y="-10"/>
			<point x="299" y="3"/>
			<point x="303" y="25" type="curve" smooth="yes"/>
			<point x="326" y="173" type="line"/>
			<point x="438" y="184"/>
			<point x="528" y="246"/>
			<point x="549" y="382" type="curve" smooth="yes"/>
			<point x="573" y="532" type="line" smooth="yes"/>
			<point x="583" y="594"/>
			<point x="596" y="626"/>
			<point x="622" y="660" type="curve" smooth="yes"/>
			<point x="639" y="685"/>
			<point x="632" y="705"/>
			<point x="604" y="705" type="curve" smooth="yes"/>
			<point x="562" y="705" type="line" smooth="yes"/>
			<point x="545" y="705"/>
			<point x="531" y="698"/>
			<point x="521" y="681" type="curve" smooth="yes"/>
			<point x="495" y="640"/>
			<point x="478" y="593"/>
			<point x="468" y="532" type="curve" smooth="yes"/>
			<point x="444" y="382" type="line" smooth="yes"/>
			<point x="434" y="314"/>
			<point x="394" y="283"/>
			<point x="342" y="271" type="curve"/>
			<point x="407" y="685" type="line" smooth="yes"/>
			<point x="411" y="707"/>
			<point x="400" y="720"/>
			<point x="378" y="720" type="curve" smooth="yes"/>
			<point x="343" y="720" type="line" smooth="yes"/>
			<point x="322" y="720"/>
			<point x="306" y="708"/>
			<point x="302" y="685" type="curve" smooth="yes"/>
			<point x="237" y="271" type="line"/>
			<point x="189" y="283"/>
			<point x="159" y="314"/>
			<point x="169" y="382" type="curve" smooth="yes"/>
			<point x="193" y="532" type="line" smooth="yes"/>
			<point x="203" y="593"/>
			<point x="200" y="640"/>
			<point x="188" y="681" type="curve" smooth="yes"/>
			<point x="182" y="698"/>
			<point x="170" y="705"/>
			<point x="153" y="705" type="curve" smooth="yes"/>
			<point x="111" y="705" type="line" smooth="yes"/>
			<point x="83" y="705"/>
			<point x="70" y="685"/>
			<point x="79" y="660" type="curve" smooth="yes"/>
			<point x="95" y="626"/>
			<point x="98" y="594"/>
			<point x="88" y="532" type="curve" smooth="yes"/>
			<point x="64" y="382" type="line" smooth="yes"/>
			<point x="43" y="246"/>
			<point x="113" y="184"/>
		</contour>
	</outline>
</glyph>
<glyph name="uni03A9" format="2">
	<advance width="575"/>
	<unicode hex="03A9"/>
	<anchor x="247" y="0" name="bottom"/>
	<anchor x="93" y="720" name="topleft"/>
	<outline>
		<contour>
			<point x="219" y="35" type="curve" smooth="yes"/>
			<point x="229" y="96" type="line" smooth="yes"/>
			<point x="232" y="114"/>
			<point x="225" y="125"/>
			<point x="212" y="134" type="curve" smooth="yes"/>
			<point x="159" y="172"/>
			<point x="140" y="257"/>
			<point x="160" y="385" type="curve" smooth="yes"/>
			<point x="186" y="549"/>
			<point x="252" y="635"/>
			<point x="347" y="635" type="curve" smooth="yes"/>
			<point x="442" y="635"/>
			<point x="481" y="549"/>
			<point x="455" y="385" type="curve" smooth="yes"/>
			<point x="435" y="257"/>
			<point x="388" y="171"/>
			<point x="323" y="134" type="curve" smooth="yes"/>
			<point x="308" y="125"/>
			<point x="297" y="114"/>
			<point x="294" y="96" type="curve" smooth="yes"/>
			<point x="284" y="35" type="line" smooth="yes"/>
			<point x="281" y="14"/>
			<point x="291" y="0"/>
			<point x="314" y="0" type="curve" smooth="yes"/>
			<point x="459" y="0" type="line" smooth="yes"/>
			<point x="480" y="0"/>
			<point x="495" y="12"/>
			<point x="499" y="35" type="curve" smooth="yes"/>
			<point x="503" y="61" type="line" smooth="yes"/>
			<point x="506" y="82"/>
			<point x="495" y="96"/>
			<point x="474" y="96" type="curve" smooth="yes"/>
			<point x="419" y="96" type="line"/>
			<point x="491" y="153"/>
			<point x="539" y="253"/>
			<point x="560" y="385" type="curve" smooth="yes"/>
			<point x="595" y="606"/>
			<point x="526" y="732"/>
			<point x="366" y="732" type="curve" smooth="yes"/>
			<point x="202" y="732"/>
			<point x="90" y="606"/>
			<point x="55" y="385" type="curve" smooth="yes"/>
			<point x="33" y="252"/>
			<point x="51" y="153"/>
			<point x="107" y="96" type="curve"/>
			<point x="49" y="96" type="line" smooth="yes"/>
			<point x="28" y="96"/>
			<point x="11" y="82"/>
			<point x="8" y="61" type="curve" smooth="yes"/>
			<point x="4" y="35" type="line" smooth="yes"/>
			<point x="0" y="12"/>
			<point x="13" y="0"/>
			<point x="34" y="0" type="curve" smooth="yes"/>
			<point x="179" y="0" type="line" smooth="yes"/>
			<point x="202" y="0"/>
			<point x="216" y="14"/>
		</contour>
	</outline>
</glyph>
<glyph name="alpha" format="2">
	<advance width="575"/>
	<unicode hex="03B1"/>
	<anchor x="334" y="570" name="top"/>
	<outline>
		<contour>
			<point x="547" y="520" type="curve" smooth="yes"/>
			<point x="520" y="520" type="line" smooth="yes"/>
			<point x="501" y="520"/>
			<point x="486" y="512"/>
			<point x="479" y="489" type="curve" smooth="yes"/>
			<point x="459" y="420" type="line"/>
			<point x="426" y="482"/>
			<point x="375" y="530"/>
			<point x="292" y="530" type="curve" smooth="yes"/>
			<point x="206" y="530"/>
			<point x="70" y="479"/>
			<point x="35" y="260" type="curve" smooth="yes"/>
			<point x="0" y="41"/>
			<point x="113" y="-10"/>
			<point x="209" y="-10" type="curve" smooth="yes"/>
			<point x="289" y="-10"/>
			<point x="354" y="36"/>
			<point x="405" y="99" type="curve"/>
			<point x="410" y="20"/>
			<point x="460" y="0"/>
			<point x="504" y="0" type="curve" smooth="yes"/>
			<point x="530" y="0"/>
			<point x="540" y="15"/>
			<point x="544" y="35" type="curve" smooth="yes"/>
			<point x="549" y="62" type="line" smooth="yes"/>
			<point x="553" y="82"/>
			<point x="546" y="97"/>
			<point x="519" y="97" type="curve" smooth="yes"/>
			<point x="494" y="97"/>
			<point x="476" y="117"/>
			<point x="497" y="249" type="curve" smooth="yes"/>
			<point x="507" y="312"/>
			<point x="568" y="464"/>
			<point x="574" y="479" type="curve" smooth="yes"/>
			<point x="583" y="507"/>
			<point x="570" y="520"/>
		</contour>
		<contour>
			<point x="140" y="260" type="curve" smooth="yes"/>
			<point x="163" y="407"/>
			<point x="235" y="433"/>
			<point x="279" y="433" type="curve" smooth="yes"/>
			<point x="334" y="433"/>
			<point x="391" y="389"/>
			<point x="406" y="261" type="curve"/>
			<point x="357" y="151"/>
			<point x="291" y="87"/>
			<point x="225" y="87" type="curve" smooth="yes"/>
			<point x="181" y="87"/>
			<point x="117" y="113"/>
		</contour>
	</outline>
</glyph>
<glyph name="beta" format="2">
	<advance width="575"/>
	<unicode hex="03B2"/>
	<outline>
		<contour>
			<point x="353" y="634" type="curve" smooth="yes"/>
			<point x="417" y="634"/>
			<point x="439" y="581"/>
			<point x="430" y="528" type="curve" smooth="yes"/>
			<point x="421" y="466"/>
			<point x="366" y="423"/>
			<point x="290" y="423" type="curve" smooth="yes"/>
			<point x="269" y="423"/>
			<point x="253" y="409"/>
			<point x="249" y="388" type="curve" smooth="yes"/>
			<point x="245" y="361" type="line" smooth="yes"/>
			<point x="242" y="340"/>
			<point x="253" y="326"/>
			<point x="274" y="326" type="curve" smooth="yes"/>
			<point x="385" y="326"/>
			<point x="420" y="270"/>
			<point x="409" y="201" type="curve" smooth="yes"/>
			<point x="400" y="145"/>
			<point x="358" y="60"/>
			<point x="170" y="91" type="curve"/>
			<point x="236" y="504" type="line" smooth="yes"/>
			<point x="250" y="597"/>
			<point x="298" y="634"/>
		</contour>
		<contour>
			<point x="131" y="504" type="curve" smooth="yes"/>
			<point x="25" y="-165" type="line"/>
			<point x="21" y="-186"/>
			<point x="33" y="-200"/>
			<point x="54" y="-200" type="curve" smooth="yes"/>
			<point x="89" y="-200" type="line" smooth="yes"/>
			<point x="112" y="-200"/>
			<point x="126" y="-186"/>
			<point x="130" y="-165" type="curve" smooth="yes"/>
			<point x="156" y="-1" type="line"/>
			<point x="189" y="-7"/>
			<point x="218" y="-9"/>
			<point x="245" y="-9" type="curve" smooth="yes"/>
			<point x="447" y="-9"/>
			<point x="502" y="125"/>
			<point x="513" y="199" type="curve" smooth="yes"/>
			<point x="527" y="288"/>
			<point x="492" y="349"/>
			<point x="423" y="382" type="curve"/>
			<point x="471" y="412"/>
			<point x="516" y="469"/>
			<point x="529" y="548" type="curve" smooth="yes"/>
			<point x="540" y="618"/>
			<point x="528" y="730"/>
			<point x="368" y="730" type="curve" smooth="yes"/>
			<point x="239" y="730"/>
			<point x="155" y="656"/>
		</contour>
	</outline>
</glyph>
<glyph name="gamma" format="2">
	<advance width="575"/>
	<unicode hex="03B3"/>
	<outline>
		<contour>
			<point x="135" y="-56" type="curve" smooth="yes"/>
			<point x="146" y="12"/>
			<point x="188" y="91"/>
			<point x="282" y="192" type="curve"/>
			<point x="342" y="91"/>
			<point x="352" y="12"/>
			<point x="341" y="-56" type="curve" smooth="yes"/>
			<point x="330" y="-122"/>
			<point x="283" y="-164"/>
			<point x="221" y="-164" type="curve" smooth="yes"/>
			<point x="220" y="-164" type="line" smooth="yes"/>
			<point x="158" y="-164"/>
			<point x="125" y="-121"/>
		</contour>
		<contour>
			<point x="85" y="474" type="curve" smooth="yes"/>
			<point x="111" y="454"/>
			<point x="138" y="421"/>
			<point x="165" y="376" type="curve" smooth="yes"/>
			<point x="230" y="269" type="line"/>
			<point x="89" y="130"/>
			<point x="43" y="29"/>
			<point x="30" y="-56" type="curve" smooth="yes"/>
			<point x="10" y="-179"/>
			<point x="80" y="-262"/>
			<point x="205" y="-262" type="curve" smooth="yes"/>
			<point x="325" y="-263"/>
			<point x="426" y="-184"/>
			<point x="446" y="-56" type="curve" smooth="yes"/>
			<point x="460" y="33"/>
			<point x="435" y="146"/>
			<point x="361" y="270" type="curve"/>
			<point x="564" y="473" type="line" smooth="yes"/>
			<point x="586" y="496"/>
			<point x="578" y="520"/>
			<point x="549" y="520" type="curve" smooth="yes"/>
			<point x="501" y="520" type="line" smooth="yes"/>
			<point x="485" y="520"/>
			<point x="472" y="514"/>
			<point x="459" y="501" type="curve" smooth="yes"/>
			<point x="312" y="346" type="line"/>
			<point x="237" y="484"/>
			<point x="216" y="520"/>
			<point x="166" y="520" type="curve" smooth="yes"/>
			<point x="117" y="520" type="line" smooth="yes"/>
			<point x="66" y="520"/>
			<point x="61" y="493"/>
		</contour>
	</outline>
</glyph>
<glyph name="delta" format="2">
	<advance width="575"/>
	<unicode hex="03B4"/>
	<outline>
		<contour>
			<point x="53" y="248" type="curve" smooth="yes"/>
			<point x="28" y="87"/>
			<point x="99" y="-15"/>
			<point x="241" y="-15" type="curve" smooth="yes"/>
			<point x="365" y="-15"/>
			<point x="490" y="69"/>
			<point x="516" y="234" type="curve" smooth="yes"/>
			<point x="539" y="383"/>
			<point x="460" y="465"/>
			<point x="431" y="496" type="curve" smooth="yes"/>
			<point x="407" y="522"/>
			<point x="378" y="545"/>
			<point x="352" y="566" type="curve" smooth="yes"/>
			<point x="313" y="599"/>
			<point x="282" y="623"/>
			<point x="285" y="639" type="curve" smooth="yes"/>
			<point x="288" y="659"/>
			<point x="338" y="681"/>
			<point x="498" y="649" type="curve" smooth="yes"/>
			<point x="516" y="645"/>
			<point x="533" y="654"/>
			<point x="543" y="675" type="curve" smooth="yes"/>
			<point x="555" y="704" type="line" smooth="yes"/>
			<point x="564" y="725"/>
			<point x="558" y="741"/>
			<point x="541" y="746" type="curve" smooth="yes"/>
			<point x="324" y="795"/>
			<point x="195" y="731"/>
			<point x="180" y="636" type="curve" smooth="yes"/>
			<point x="168" y="563"/>
			<point x="229" y="522"/>
			<point x="273" y="492" type="curve" smooth="yes"/>
			<point x="287" y="482"/>
			<point x="299" y="474"/>
			<point x="308" y="466" type="curve"/>
			<point x="317" y="484" type="line"/>
			<point x="308" y="485"/>
			<point x="299" y="486"/>
			<point x="289" y="486" type="curve" smooth="yes"/>
			<point x="163" y="486"/>
			<point x="75" y="387"/>
		</contour>
		<contour>
			<point x="158" y="248" type="curve" smooth="yes"/>
			<point x="173" y="341"/>
			<point x="227" y="409"/>
			<point x="309" y="409" type="curve" smooth="yes"/>
			<point x="396" y="409"/>
			<point x="427" y="333"/>
			<point x="412" y="239" type="curve" smooth="yes"/>
			<point x="396" y="137"/>
			<point x="335" y="82"/>
			<point x="257" y="82" type="curve" smooth="yes"/>
			<point x="179" y="82"/>
			<point x="141" y="143"/>
		</contour>
	</outline>
</glyph>
<glyph name="epsilon" format="2">
	<advance width="575"/>
	<unicode hex="03B5"/>
	<anchor x="334" y="570" name="top"/>
	<outline>
		<contour>
			<point x="473" y="38" type="curve" smooth="yes"/>
			<point x="470" y="66" type="line" smooth="yes"/>
			<point x="468" y="86"/>
			<point x="454" y="94"/>
			<point x="432" y="92" type="curve"/>
			<point x="408" y="87"/>
			<point x="366" y="84"/>
			<point x="314" y="83" type="curve" smooth="yes"/>
			<point x="202" y="83"/>
			<point x="155" y="102"/>
			<point x="161" y="137" type="curve" smooth="yes"/>
			<point x="166" y="173"/>
			<point x="231" y="210"/>
			<point x="334" y="210" type="curve" smooth="yes"/>
			<point x="355" y="210"/>
			<point x="372" y="224"/>
			<point x="375" y="245" type="curve" smooth="yes"/>
			<point x="379" y="272" type="line" smooth="yes"/>
			<point x="382" y="293"/>
			<point x="370" y="307"/>
			<point x="349" y="307" type="curve" smooth="yes"/>
			<point x="247" y="307"/>
			<point x="213" y="343"/>
			<point x="219" y="380" type="curve" smooth="yes"/>
			<point x="224" y="413"/>
			<point x="267" y="434"/>
			<point x="370" y="434" type="curve" smooth="yes"/>
			<point x="407" y="433"/>
			<point x="438" y="431"/>
			<point x="463" y="429" type="curve" smooth="yes"/>
			<point x="483" y="426"/>
			<point x="499" y="437"/>
			<point x="506" y="457" type="curve" smooth="yes"/>
			<point x="515" y="484" type="line" smooth="yes"/>
			<point x="523" y="507"/>
			<point x="513" y="522"/>
			<point x="492" y="525" type="curve" smooth="yes"/>
			<point x="462" y="528"/>
			<point x="424" y="530"/>
			<point x="385" y="530" type="curve" smooth="yes"/>
			<point x="222" y="530"/>
			<point x="129" y="473"/>
			<point x="114" y="380" type="curve" smooth="yes"/>
			<point x="103" y="313"/>
			<point x="140" y="266"/>
			<point x="216" y="249" type="curve"/>
			<point x="219" y="269" type="line"/>
			<point x="128" y="249"/>
			<point x="66" y="205"/>
			<point x="56" y="137" type="curve" smooth="yes"/>
			<point x="40" y="37"/>
			<point x="124" y="-13"/>
			<point x="299" y="-13" type="curve" smooth="yes"/>
			<point x="349" y="-13"/>
			<point x="399" y="-10"/>
			<point x="437" y="-4" type="curve" smooth="yes"/>
			<point x="462" y="-1"/>
			<point x="475" y="17"/>
		</contour>
	</outline>
</glyph>
<glyph name="zeta" format="2">
	<advance width="575"/>
	<unicode hex="03B6"/>
	<outline>
		<contour>
			<point x="403" y="-157" type="curve" smooth="yes"/>
			<point x="426" y="-117"/>
			<point x="439" y="-81"/>
			<point x="444" y="-51" type="curve" smooth="yes"/>
			<point x="459" y="48"/>
			<point x="388" y="94"/>
			<point x="318" y="118" type="curve" smooth="yes"/>
			<point x="245" y="145"/>
			<point x="188" y="184"/>
			<point x="202" y="271" type="curve" smooth="yes"/>
			<point x="219" y="378"/>
			<point x="337" y="518"/>
			<point x="526" y="624" type="curve" smooth="yes"/>
			<point x="542" y="633"/>
			<point x="551" y="647"/>
			<point x="554" y="663" type="curve" smooth="yes"/>
			<point x="558" y="686" type="line" smooth="yes"/>
			<point x="562" y="709"/>
			<point x="550" y="721"/>
			<point x="529" y="721" type="curve" smooth="yes"/>
			<point x="227" y="721" type="line" smooth="yes"/>
			<point x="206" y="721"/>
			<point x="190" y="707"/>
			<point x="186" y="686" type="curve" smooth="yes"/>
			<point x="182" y="658" type="line" smooth="yes"/>
			<point x="179" y="637"/>
			<point x="190" y="623"/>
			<point x="211" y="623" type="curve" smooth="yes"/>
			<point x="372" y="623" type="line"/>
			<point x="193" y="512"/>
			<point x="115" y="389"/>
			<point x="97" y="274" type="curve" smooth="yes"/>
			<point x="71" y="109"/>
			<point x="179" y="59"/>
			<point x="251" y="33" type="curve" smooth="yes"/>
			<point x="315" y="10"/>
			<point x="346" y="-11"/>
			<point x="339" y="-54" type="curve" smooth="yes"/>
			<point x="337" y="-71"/>
			<point x="329" y="-90"/>
			<point x="316" y="-115" type="curve" smooth="yes"/>
			<point x="303" y="-135"/>
			<point x="306" y="-153"/>
			<point x="325" y="-161" type="curve" smooth="yes"/>
			<point x="354" y="-175" type="line" smooth="yes"/>
			<point x="373" y="-183"/>
			<point x="392" y="-177"/>
		</contour>
	</outline>
</glyph>
<glyph name="eta" format="2">
	<advance width="575"/>
	<unicode hex="03B7"/>
	<anchor x="346" y="570" name="top"/>
	<outline>
		<contour>
			<point x="110" y="481" type="curve" smooth="yes"/>
			<point x="39" y="35" type="line" smooth="yes"/>
			<point x="36" y="14"/>
			<point x="48" y="0"/>
			<point x="69" y="0" type="curve" smooth="yes"/>
			<point x="104" y="0" type="line" smooth="yes"/>
			<point x="127" y="0"/>
			<point x="141" y="14"/>
			<point x="144" y="35" type="curve" smooth="yes"/>
			<point x="207" y="431" type="line"/>
			<point x="248" y="433"/>
			<point x="284" y="434"/>
			<point x="306" y="434" type="curve" smooth="yes"/>
			<point x="393" y="434"/>
			<point x="418" y="408"/>
			<point x="404" y="318" type="curve" smooth="yes"/>
			<point x="320" y="-215" type="line" smooth="yes"/>
			<point x="317" y="-236"/>
			<point x="328" y="-250"/>
			<point x="349" y="-250" type="curve" smooth="yes"/>
			<point x="384" y="-250" type="line" smooth="yes"/>
			<point x="407" y="-250"/>
			<point x="422" y="-236"/>
			<point x="425" y="-215" type="curve" smooth="yes"/>
			<point x="509" y="318" type="line" smooth="yes"/>
			<point x="533" y="470"/>
			<point x="474" y="530"/>
			<point x="321" y="530" type="curve" smooth="yes"/>
			<point x="288" y="530"/>
			<point x="223" y="529"/>
			<point x="147" y="518" type="curve" smooth="yes"/>
			<point x="127" y="514"/>
			<point x="113" y="501"/>
		</contour>
	</outline>
</glyph>
<glyph name="iota" format="2">
	<advance width="575"/>
	<unicode hex="03B9"/>
	<anchor x="259" y="580" name="top"/>
	<outline>
		<contour>
			<point x="420" y="36" type="curve"/>
			<point x="415" y="69" type="line"/>
			<point x="411" y="89"/>
			<point x="397" y="98"/>
			<point x="374" y="94" type="curve"/>
			<point x="354" y="89"/>
			<point x="333" y="87"/>
			<point x="310" y="87" type="curve" smooth="yes"/>
			<point x="258" y="88"/>
			<point x="245" y="104"/>
			<point x="254" y="158" type="curve" smooth="yes"/>
			<point x="306" y="484" type="line" smooth="yes"/>
			<point x="310" y="508"/>
			<point x="297" y="521"/>
			<point x="275" y="521" type="curve" smooth="yes"/>
			<point x="240" y="521" type="line" smooth="yes"/>
			<point x="218" y="521"/>
			<point x="203" y="508"/>
			<point x="201" y="487" type="curve"/>
			<point x="149" y="162" type="line" smooth="yes"/>
			<point x="130" y="45"/>
			<point x="178" y="-10"/>
			<point x="298" y="-10" type="curve" smooth="yes"/>
			<point x="318" y="-10"/>
			<point x="350" y="-9"/>
			<point x="389" y="0" type="curve" smooth="yes"/>
			<point x="409" y="5"/>
			<point x="421" y="18"/>
		</contour>
	</outline>
</glyph>
<glyph name="kappa" format="2">
	<advance width="575"/>
	<unicode hex="03BA"/>
	<outline>
		<contour>
			<point x="144" y="35" type="curve" smooth="yes"/>
			<point x="167" y="177" type="line"/>
			<point x="232" y="231" type="line"/>
			<point x="365" y="20" type="line" smooth="yes"/>
			<point x="373" y="7"/>
			<point x="384" y="0"/>
			<point x="400" y="0" type="curve" smooth="yes"/>
			<point x="443" y="0" type="line" smooth="yes"/>
			<point x="471" y="0"/>
			<point x="487" y="23"/>
			<point x="473" y="46" type="curve" smooth="yes"/>
			<point x="315" y="293" type="line"/>
			<point x="523" y="472" type="line" smooth="yes"/>
			<point x="549" y="494"/>
			<point x="541" y="520"/>
			<point x="510" y="520" type="curve" smooth="yes"/>
			<point x="457" y="520" type="line" smooth="yes"/>
			<point x="443" y="520"/>
			<point x="429" y="515"/>
			<point x="417" y="504" type="curve" smooth="yes"/>
			<point x="187" y="306" type="line"/>
			<point x="216" y="485" type="line" smooth="yes"/>
			<point x="219" y="506"/>
			<point x="207" y="520"/>
			<point x="186" y="520" type="curve" smooth="yes"/>
			<point x="151" y="520" type="line" smooth="yes"/>
			<point x="130" y="520"/>
			<point x="114" y="506"/>
			<point x="111" y="485" type="curve" smooth="yes"/>
			<point x="39" y="35" type="line" smooth="yes"/>
			<point x="36" y="14"/>
			<point x="48" y="0"/>
			<point x="69" y="0" type="curve" smooth="yes"/>
			<point x="104" y="0" type="line" smooth="yes"/>
			<point x="125" y="0"/>
			<point x="141" y="14"/>
		</contour>
	</outline>
</glyph>
<glyph name="lambda" format="2">
	<advance width="575"/>
	<unicode hex="03BB"/>
	<outline>
		<contour>
			<point x="274" y="468" type="curve"/>
			<point x="29" y="43" type="line"/>
			<point x="15" y="18"/>
			<point x="26" y="0"/>
			<point x="51" y="0" type="curve" smooth="yes"/>
			<point x="88" y="0" type="line" smooth="yes"/>
			<point x="106" y="0"/>
			<point x="121" y="8"/>
			<point x="130" y="25" type="curve" smooth="yes"/>
			<point x="310" y="350" type="line"/>
			<point x="391" y="25" type="line" smooth="yes"/>
			<point x="394" y="8"/>
			<point x="407" y="0"/>
			<point x="425" y="0" type="curve" smooth="yes"/>
			<point x="462" y="0" type="line" smooth="yes"/>
			<point x="486" y="0"/>
			<point x="506" y="17"/>
			<point x="498" y="43" type="curve" smooth="yes"/>
			<point x="396" y="427" type="line" smooth="yes"/>
			<point x="344" y="623"/>
			<point x="293" y="690"/>
			<point x="190" y="707" type="curve" smooth="yes"/>
			<point x="169" y="710"/>
			<point x="153" y="699"/>
			<point x="145" y="678" type="curve" smooth="yes"/>
			<point x="136" y="650" type="line" smooth="yes"/>
			<point x="128" y="626"/>
			<point x="139" y="614"/>
			<point x="159" y="610" type="curve" smooth="yes"/>
			<point x="214" y="601"/>
			<point x="246" y="566"/>
		</contour>
	</outline>
</glyph>
<glyph name="nu" format="2">
	<advance width="575"/>
	<unicode hex="03BD"/>
	<outline>
		<contour>
			<point x="269" y="12" type="curve" smooth="yes"/>
			<point x="415" y="113"/>
			<point x="507" y="246"/>
			<point x="525" y="363" type="curve" smooth="yes"/>
			<point x="533" y="414"/>
			<point x="526" y="464"/>
			<point x="505" y="506" type="curve" smooth="yes"/>
			<point x="500" y="516"/>
			<point x="487" y="520"/>
			<point x="472" y="520" type="curve" smooth="yes"/>
			<point x="427" y="520" type="line" smooth="yes"/>
			<point x="398" y="520"/>
			<point x="382" y="495"/>
			<point x="397" y="473" type="curve" smooth="yes"/>
			<point x="421" y="436"/>
			<point x="429" y="396"/>
			<point x="422" y="352" type="curve" smooth="yes"/>
			<point x="409" y="270"/>
			<point x="344" y="181"/>
			<point x="235" y="101" type="curve"/>
			<point x="199" y="491" type="line" smooth="yes"/>
			<point x="196" y="508"/>
			<point x="186" y="520"/>
			<point x="166" y="520" type="curve" smooth="yes"/>
			<point x="130" y="520" type="line" smooth="yes"/>
			<point x="107" y="520"/>
			<point x="89" y="505"/>
			<point x="92" y="479" type="curve" smooth="yes"/>
			<point x="133" y="29" type="line" smooth="yes"/>
			<point x="136" y="12"/>
			<point x="146" y="0"/>
			<point x="166" y="0" type="curve" smooth="yes"/>
			<point x="230" y="0" type="line" smooth="yes"/>
			<point x="244" y="0"/>
			<point x="256" y="4"/>
		</contour>
	</outline>
</glyph>
<glyph name="xi" format="2">
	<advance width="575"/>
	<unicode hex="03BE"/>
	<outline>
		<contour>
			<point x="318" y="118" type="curve" smooth="yes"/>
			<point x="245" y="146"/>
			<point x="211" y="183"/>
			<point x="216" y="228" type="curve" smooth="yes"/>
			<point x="222" y="276"/>
			<point x="268" y="328"/>
			<point x="372" y="328" type="curve" smooth="yes"/>
			<point x="428" y="328" type="line" smooth="yes"/>
			<point x="449" y="328"/>
			<point x="465" y="342"/>
			<point x="468" y="363" type="curve" smooth="yes"/>
			<point x="473" y="391" type="line" smooth="yes"/>
			<point x="476" y="412"/>
			<point x="464" y="426"/>
			<point x="443" y="426" type="curve" smooth="yes"/>
			<point x="387" y="426" type="line" smooth="yes"/>
			<point x="305" y="426"/>
			<point x="263" y="460"/>
			<point x="270" y="507" type="curve" smooth="yes"/>
			<point x="279" y="561"/>
			<point x="350" y="618"/>
			<point x="523" y="623" type="curve"/>
			<point x="542" y="632"/>
			<point x="550" y="647"/>
			<point x="554" y="662" type="curve" smooth="yes"/>
			<point x="558" y="685" type="line" smooth="yes"/>
			<point x="563" y="708"/>
			<point x="551" y="721"/>
			<point x="529" y="721" type="curve" smooth="yes"/>
			<point x="227" y="721" type="line" smooth="yes"/>
			<point x="206" y="721"/>
			<point x="190" y="707"/>
			<point x="186" y="686" type="curve" smooth="yes"/>
			<point x="182" y="658" type="line" smooth="yes"/>
			<point x="179" y="637"/>
			<point x="189" y="622"/>
			<point x="212" y="623" type="curve" smooth="yes"/>
			<point x="273" y="626" type="line"/>
			<point x="205" y="594"/>
			<point x="172" y="551"/>
			<point x="165" y="509" type="curve" smooth="yes"/>
			<point x="159" y="469"/>
			<point x="175" y="418"/>
			<point x="252" y="383" type="curve"/>
			<point x="150" y="343"/>
			<point x="117" y="277"/>
			<point x="110" y="225" type="curve" smooth="yes"/>
			<point x="101" y="149"/>
			<point x="145" y="78"/>
			<point x="250" y="34" type="curve"/>
			<point x="250" y="36" type="line"/>
			<point x="251" y="33" type="line"/>
			<point x="315" y="10"/>
			<point x="346" y="-11"/>
			<point x="339" y="-54" type="curve" smooth="yes"/>
			<point x="337" y="-71"/>
			<point x="329" y="-90"/>
			<point x="316" y="-115" type="curve" smooth="yes"/>
			<point x="303" y="-135"/>
			<point x="307" y="-152"/>
			<point x="325" y="-161" type="curve" smooth="yes"/>
			<point x="354" y="-175" type="line" smooth="yes"/>
			<point x="373" y="-185"/>
			<point x="392" y="-177"/>
			<point x="403" y="-157" type="curve" smooth="yes"/>
			<point x="426" y="-117"/>
			<point x="439" y="-81"/>
			<point x="444" y="-51" type="curve" smooth="yes"/>
			<point x="459" y="48"/>
			<point x="388" y="94"/>
		</contour>
	</outline>
</glyph>
<glyph name="omicron" format="2">
	<advance width="575"/>
	<unicode hex="03BF"/>
	<anchor x="329" y="520" name="top"/>
	<outline>
		<contour>
			<point x="334" y="532" type="curve" smooth="yes"/>
			<point x="189" y="532"/>
			<point x="70" y="419"/>
			<point x="45" y="260" type="curve" smooth="yes"/>
			<point x="20" y="101"/>
			<point x="103" y="-12"/>
			<point x="248" y="-12" type="curve" smooth="yes"/>
			<point x="388" y="-12"/>
			<point x="505" y="101"/>
			<point x="530" y="260" type="curve" smooth="yes"/>
			<point x="555" y="419"/>
			<point x="474" y="532"/>
		</contour>
		<contour>
			<point x="260" y="85" type="curve" smooth="yes"/>
			<point x="178" y="85"/>
			<point x="133" y="155"/>
			<point x="150" y="260" type="curve" smooth="yes"/>
			<point x="167" y="365"/>
			<point x="234" y="435"/>
			<point x="316" y="435" type="curve" smooth="yes"/>
			<point x="397" y="435"/>
			<point x="442" y="365"/>
			<point x="425" y="260" type="curve" smooth="yes"/>
			<point x="408" y="155"/>
			<point x="341" y="85"/>
		</contour>
	</outline>
</glyph>
<glyph name="pi" format="2">
	<advance width="575"/>
	<unicode hex="03C0"/>
	<outline>
		<contour>
			<point x="91" y="424" type="curve" smooth="yes"/>
			<point x="156" y="424" type="line"/>
			<point x="94" y="35" type="line" smooth="yes"/>
			<point x="91" y="14"/>
			<point x="103" y="0"/>
			<point x="124" y="0" type="curve" smooth="yes"/>
			<point x="159" y="0" type="line" smooth="yes"/>
			<point x="182" y="0"/>
			<point x="196" y="14"/>
			<point x="199" y="35" type="curve" smooth="yes"/>
			<point x="261" y="423" type="line"/>
			<point x="366" y="423" type="line"/>
			<point x="324" y="162" type="line" smooth="yes"/>
			<point x="309" y="71"/>
			<point x="322" y="-15"/>
			<point x="453" y="-10" type="curve" smooth="yes"/>
			<point x="476" y="-9"/>
			<point x="489" y="6"/>
			<point x="492" y="27" type="curve" smooth="yes"/>
			<point x="496" y="56" type="line" smooth="yes"/>
			<point x="499" y="76"/>
			<point x="484" y="87"/>
			<point x="464" y="88" type="curve" smooth="yes"/>
			<point x="427" y="88"/>
			<point x="420" y="103"/>
			<point x="429" y="162" type="curve" smooth="yes"/>
			<point x="471" y="423" type="line"/>
			<point x="546" y="423" type="line" smooth="yes"/>
			<point x="569" y="423"/>
			<point x="584" y="437"/>
			<point x="587" y="459" type="curve" smooth="yes"/>
			<point x="591" y="485" type="line" smooth="yes"/>
			<point x="594" y="507"/>
			<point x="583" y="520"/>
			<point x="561" y="520" type="curve" smooth="yes"/>
			<point x="106" y="520" type="line" smooth="yes"/>
			<point x="85" y="520"/>
			<point x="70" y="508"/>
			<point x="66" y="485" type="curve" smooth="yes"/>
			<point x="62" y="459" type="line" smooth="yes"/>
			<point x="58" y="436"/>
			<point x="70" y="424"/>
		</contour>
	</outline>
</glyph>
<glyph name="rho" format="2">
	<advance width="575"/>
	<unicode hex="03C1"/>
	<outline>
		<contour>
			<point x="40" y="230" type="curve" smooth="yes"/>
			<point x="-30" y="-215" type="line" smooth="yes"/>
			<point x="-34" y="-236"/>
			<point x="-22" y="-250"/>
			<point x="-1" y="-250" type="curve" smooth="yes"/>
			<point x="34" y="-250" type="line" smooth="yes"/>
			<point x="55" y="-250"/>
			<point x="71" y="-236"/>
			<point x="75" y="-215" type="curve" smooth="yes"/>
			<point x="116" y="43" type="line"/>
			<point x="148" y="9"/>
			<point x="201" y="-12"/>
			<point x="258" y="-12" type="curve" smooth="yes"/>
			<point x="393" y="-12"/>
			<point x="505" y="101"/>
			<point x="530" y="260" type="curve" smooth="yes"/>
			<point x="555" y="419"/>
			<point x="474" y="532"/>
			<point x="334" y="532" type="curve" smooth="yes"/>
			<point x="189" y="532"/>
			<point x="68" y="406"/>
		</contour>
		<contour>
			<point x="150" y="260" type="curve" smooth="yes"/>
			<point x="167" y="365"/>
			<point x="234" y="435"/>
			<point x="316" y="435" type="curve" smooth="yes"/>
			<point x="397" y="435"/>
			<point x="442" y="365"/>
			<point x="425" y="260" type="curve" smooth="yes"/>
			<point x="408" y="155"/>
			<point x="341" y="85"/>
			<point x="260" y="85" type="curve" smooth="yes"/>
			<point x="178" y="85"/>
			<point x="133" y="155"/>
		</contour>
	</outline>
</glyph>
<glyph name="uni03C2" format="2">
	<advance width="575"/>
	<unicode hex="03C2"/>
	<outline>
		<contour>
			<point x="403" y="-157" type="curve" smooth="yes"/>
			<point x="426" y="-117"/>
			<point x="439" y="-81"/>
			<point x="444" y="-51" type="curve" smooth="yes"/>
			<point x="459" y="48"/>
			<point x="388" y="94"/>
			<point x="301" y="125" type="curve" smooth="yes"/>
			<point x="244" y="145"/>
			<point x="167" y="174"/>
			<point x="186" y="289" type="curve" smooth="yes"/>
			<point x="202" y="391"/>
			<point x="269" y="432"/>
			<point x="355" y="432" type="curve" smooth="yes"/>
			<point x="395" y="432"/>
			<point x="428" y="425"/>
			<point x="469" y="410" type="curve" smooth="yes"/>
			<point x="487" y="402"/>
			<point x="506" y="409"/>
			<point x="517" y="429" type="curve" smooth="yes"/>
			<point x="531" y="453" type="line" smooth="yes"/>
			<point x="542" y="473"/>
			<point x="539" y="491"/>
			<point x="520" y="499" type="curve" smooth="yes"/>
			<point x="475" y="520"/>
			<point x="423" y="530"/>
			<point x="371" y="530" type="curve" smooth="yes"/>
			<point x="241" y="530"/>
			<point x="106" y="457"/>
			<point x="79" y="287" type="curve" smooth="yes"/>
			<point x="50" y="105"/>
			<point x="180" y="59"/>
			<point x="234" y="40" type="curve" smooth="yes"/>
			<point x="315" y="10"/>
			<point x="346" y="-11"/>
			<point x="339" y="-54" type="curve" smooth="yes"/>
			<point x="337" y="-71"/>
			<point x="329" y="-90"/>
			<point x="316" y="-115" type="curve" smooth="yes"/>
			<point x="303" y="-135"/>
			<point x="307" y="-152"/>
			<point x="325" y="-161" type="curve" smooth="yes"/>
			<point x="354" y="-175" type="line" smooth="yes"/>
			<point x="373" y="-185"/>
			<point x="392" y="-177"/>
		</contour>
	</outline>
</glyph>
<glyph name="sigma" format="2">
	<advance width="575"/>
	<unicode hex="03C3"/>
	<outline>
		<contour>
			<point x="576" y="520" type="curve" smooth="yes"/>
			<point x="326" y="520" type="line"/>
			<point x="183" y="520"/>
			<point x="70" y="419"/>
			<point x="45" y="260" type="curve" smooth="yes"/>
			<point x="20" y="101"/>
			<point x="98" y="-12"/>
			<point x="243" y="-12" type="curve" smooth="yes"/>
			<point x="383" y="-12"/>
			<point x="495" y="101"/>
			<point x="519" y="252" type="curve" smooth="yes"/>
			<point x="528" y="311"/>
			<point x="531" y="372"/>
			<point x="500" y="425" type="curve"/>
			<point x="561" y="423" type="line" smooth="yes"/>
			<point x="583" y="422"/>
			<point x="598" y="437"/>
			<point x="601" y="458" type="curve" smooth="yes"/>
			<point x="606" y="485" type="line" smooth="yes"/>
			<point x="609" y="506"/>
			<point x="597" y="520"/>
		</contour>
		<contour>
			<point x="150" y="260" type="curve" smooth="yes"/>
			<point x="167" y="365"/>
			<point x="227" y="425"/>
			<point x="309" y="425" type="curve" smooth="yes"/>
			<point x="390" y="425"/>
			<point x="432" y="365"/>
			<point x="415" y="260" type="curve" smooth="yes"/>
			<point x="398" y="154"/>
			<point x="336" y="85"/>
			<point x="255" y="85" type="curve" smooth="yes"/>
			<point x="173" y="85"/>
			<point x="133" y="154"/>
		</contour>
	</outline>
</glyph>
<glyph name="upsilon" format="2">
	<advance width="575"/>
	<unicode hex="03C5"/>
	<anchor x="338" y="570" name="top"/>
	<outline>
		<contour>
			<point x="234" y="-10" type="curve" smooth="yes"/>
			<point x="361" y="-10"/>
			<point x="481" y="48"/>
			<point x="515" y="261" type="curve" smooth="yes"/>
			<point x="525" y="323"/>
			<point x="528" y="400"/>
			<point x="520" y="490" type="curve" smooth="yes"/>
			<point x="520" y="510"/>
			<point x="507" y="520"/>
			<point x="488" y="520" type="curve" smooth="yes"/>
			<point x="451" y="520" type="line" smooth="yes"/>
			<point x="427" y="520"/>
			<point x="411" y="503"/>
			<point x="413" y="480" type="curve" smooth="yes"/>
			<point x="421" y="389"/>
			<point x="419" y="319"/>
			<point x="410" y="261" type="curve" smooth="yes"/>
			<point x="386" y="107"/>
			<point x="319" y="86"/>
			<point x="255" y="86" type="curve" smooth="yes"/>
			<point x="183" y="86"/>
			<point x="157" y="113"/>
			<point x="171" y="202" type="curve" smooth="yes"/>
			<point x="194" y="347" type="line" smooth="yes"/>
			<point x="204" y="408"/>
			<point x="201" y="455"/>
			<point x="188" y="496" type="curve" smooth="yes"/>
			<point x="183" y="513"/>
			<point x="171" y="520"/>
			<point x="154" y="520" type="curve" smooth="yes"/>
			<point x="112" y="520" type="line" smooth="yes"/>
			<point x="84" y="520"/>
			<point x="71" y="500"/>
			<point x="80" y="475" type="curve" smooth="yes"/>
			<point x="96" y="441"/>
			<point x="99" y="409"/>
			<point x="89" y="347" type="curve" smooth="yes"/>
			<point x="66" y="202" type="line" smooth="yes"/>
			<point x="42" y="50"/>
			<point x="101" y="-10"/>
		</contour>
	</outline>
</glyph>
<glyph name="phi" format="2">
	<advance width="575"/>
	<unicode hex="03C6"/>
	<outline>
		<contour>
			<point x="265" y="-215" type="curve" smooth="yes"/>
			<point x="298" y="-8" type="line"/>
			<point x="426" y="14"/>
			<point x="528" y="118"/>
			<point x="550" y="260" type="curve" smooth="yes"/>
			<point x="572" y="402"/>
			<point x="504" y="506"/>
			<point x="382" y="528" type="curve"/>
			<point x="399" y="635" type="line" smooth="yes"/>
			<point x="403" y="657"/>
			<point x="392" y="670"/>
			<point x="370" y="670" type="curve" smooth="yes"/>
			<point x="335" y="670" type="line" smooth="yes"/>
			<point x="314" y="670"/>
			<point x="298" y="658"/>
			<point x="294" y="635" type="curve" smooth="yes"/>
			<point x="277" y="527" type="line"/>
			<point x="149" y="504"/>
			<point x="47" y="399"/>
			<point x="25" y="260" type="curve" smooth="yes"/>
			<point x="3" y="121"/>
			<point x="71" y="16"/>
			<point x="193" y="-7" type="curve"/>
			<point x="160" y="-215" type="line" smooth="yes"/>
			<point x="156" y="-238"/>
			<point x="168" y="-250"/>
			<point x="189" y="-250" type="curve" smooth="yes"/>
			<point x="224" y="-250" type="line" smooth="yes"/>
			<point x="246" y="-250"/>
			<point x="261" y="-237"/>
		</contour>
		<contour>
			<point x="130" y="260" type="curve" smooth="yes"/>
			<point x="143" y="345"/>
			<point x="197" y="410"/>
			<point x="266" y="427" type="curve"/>
			<point x="214" y="93" type="line"/>
			<point x="149" y="110"/>
			<point x="117" y="175"/>
		</contour>
		<contour>
			<point x="308" y="91" type="curve"/>
			<point x="362" y="429" type="line"/>
			<point x="426" y="413"/>
			<point x="459" y="347"/>
			<point x="445" y="260" type="curve" smooth="yes"/>
			<point x="431" y="173"/>
			<point x="378" y="107"/>
		</contour>
	</outline>
</glyph>
<glyph name="chi" format="2">
	<advance width="575"/>
	<unicode hex="03C7"/>
	<outline>
		<contour>
			<point x="75" y="-233" type="curve" smooth="yes"/>
			<point x="238" y="21" type="line"/>
			<point x="257" y="-122"/>
			<point x="298" y="-250"/>
			<point x="409" y="-250" type="curve" smooth="yes"/>
			<point x="419" y="-250" type="line" smooth="yes"/>
			<point x="440" y="-250"/>
			<point x="456" y="-236"/>
			<point x="460" y="-215" type="curve" smooth="yes"/>
			<point x="465" y="-182" type="line" smooth="yes"/>
			<point x="468" y="-161"/>
			<point x="457" y="-147"/>
			<point x="436" y="-147" type="curve" smooth="yes"/>
			<point x="433" y="-147" type="line" smooth="yes"/>
			<point x="364" y="-147"/>
			<point x="348" y="-11"/>
			<point x="331" y="134" type="curve"/>
			<point x="560" y="475" type="line" smooth="yes"/>
			<point x="576" y="499"/>
			<point x="567" y="520"/>
			<point x="540" y="520" type="curve" smooth="yes"/>
			<point x="499" y="520" type="line" smooth="yes"/>
			<point x="483" y="520"/>
			<point x="467" y="512"/>
			<point x="456" y="496" type="curve" smooth="yes"/>
			<point x="302" y="256" type="line"/>
			<point x="284" y="396"/>
			<point x="242" y="520"/>
			<point x="133" y="520" type="curve" smooth="yes"/>
			<point x="123" y="520" type="line" smooth="yes"/>
			<point x="102" y="520"/>
			<point x="86" y="506"/>
			<point x="83" y="485" type="curve" smooth="yes"/>
			<point x="77" y="452" type="line" smooth="yes"/>
			<point x="74" y="431"/>
			<point x="86" y="417"/>
			<point x="107" y="417" type="curve" smooth="yes"/>
			<point x="110" y="417" type="line" smooth="yes"/>
			<point x="178" y="417"/>
			<point x="193" y="286"/>
			<point x="211" y="144" type="curve"/>
			<point x="-11" y="-187" type="line" smooth="yes"/>
			<point x="-25" y="-208"/>
			<point x="-20" y="-225"/>
			<point x="-2" y="-234" type="curve" smooth="yes"/>
			<point x="25" y="-249" type="line" smooth="yes"/>
			<point x="42" y="-258"/>
			<point x="62" y="-252"/>
		</contour>
	</outline>
</glyph>
<glyph name="omega" format="2">
	<advance width="575"/>
	<unicode hex="03C9"/>
	<anchor x="247" y="0" name="bottom"/>
	<anchor x="334" y="570" name="top"/>
	<outline>
		<contour>
			<point x="250" y="355" type="curve" smooth="yes"/>
			<point x="222" y="180" type="line"/>
			<point x="209" y="97"/>
			<point x="176" y="92"/>
			<point x="156" y="92" type="curve" smooth="yes"/>
			<point x="96" y="92"/>
			<point x="85" y="147"/>
			<point x="97" y="224" type="curve" smooth="yes"/>
			<point x="111" y="310"/>
			<point x="156" y="415"/>
			<point x="193" y="477" type="curve" smooth="yes"/>
			<point x="207" y="502"/>
			<point x="198" y="520"/>
			<point x="172" y="520" type="curve" smooth="yes"/>
			<point x="132" y="520" type="line" smooth="yes"/>
			<point x="114" y="520"/>
			<point x="99" y="512"/>
			<point x="90" y="495" type="curve" smooth="yes"/>
			<point x="55" y="428"/>
			<point x="13" y="322"/>
			<point x="-2" y="226" type="curve" smooth="yes"/>
			<point x="-22" y="105"/>
			<point x="0" y="-6"/>
			<point x="128" y="-6" type="curve" smooth="yes"/>
			<point x="182" y="-6"/>
			<point x="226" y="14"/>
			<point x="256" y="55" type="curve"/>
			<point x="271" y="13"/>
			<point x="309" y="-6"/>
			<point x="363" y="-6" type="curve" smooth="yes"/>
			<point x="491" y="-6"/>
			<point x="547" y="105"/>
			<point x="567" y="226" type="curve" smooth="yes"/>
			<point x="582" y="322"/>
			<point x="574" y="428"/>
			<point x="559" y="495" type="curve" smooth="yes"/>
			<point x="556" y="512"/>
			<point x="543" y="520"/>
			<point x="525" y="520" type="curve" smooth="yes"/>
			<point x="485" y="520" type="line" smooth="yes"/>
			<point x="459" y="520"/>
			<point x="444" y="502"/>
			<point x="450" y="477" type="curve" smooth="yes"/>
			<point x="469" y="415"/>
			<point x="480" y="310"/>
			<point x="466" y="224" type="curve" smooth="yes"/>
			<point x="454" y="147"/>
			<point x="425" y="92"/>
			<point x="365" y="92" type="curve" smooth="yes"/>
			<point x="345" y="92"/>
			<point x="314" y="97"/>
			<point x="327" y="180" type="curve" smooth="yes"/>
			<point x="355" y="355" type="line" smooth="yes"/>
			<point x="358" y="376"/>
			<point x="347" y="390"/>
			<point x="326" y="390" type="curve" smooth="yes"/>
			<point x="291" y="390" type="line" smooth="yes"/>
			<point x="270" y="390"/>
			<point x="253" y="376"/>
		</contour>
	</outline>
</glyph>
<glyph name="uni0418" format="2">
	<advance width="575"/>
	<unicode hex="0418"/>
	<anchor x="514" y="0" name="bottomright"/>
	<anchor x="361" y="720" name="top"/>
	<outline>
		<contour>
			<point x="203" y="725" type="curve" smooth="yes"/>
			<point x="169" y="725" type="line"/>
			<point x="149" y="725"/>
			<point x="130" y="709"/>
			<point x="127" y="689" type="curve" smooth="yes"/>
			<point x="23" y="35" type="line" smooth="yes"/>
			<point x="20" y="13"/>
			<point x="32" y="0"/>
			<point x="55" y="0" type="curve" smooth="yes"/>
			<point x="71" y="0" type="line" smooth="yes"/>
			<point x="102" y="0"/>
			<point x="127" y="13"/>
			<point x="145" y="41" type="curve" smooth="yes"/>
			<point x="451" y="515" type="line"/>
			<point x="376" y="36" type="line" smooth="yes"/>
			<point x="372" y="15"/>
			<point x="385" y="0"/>
			<point x="405" y="0" type="curve" smooth="yes"/>
			<point x="439" y="0" type="line" smooth="yes"/>
			<point x="459" y="0"/>
			<point x="477" y="16"/>
			<point x="481" y="36" type="curve" smooth="yes"/>
			<point x="584" y="690" type="line" smooth="yes"/>
			<point x="588" y="712"/>
			<point x="576" y="725"/>
			<point x="553" y="725" type="curve" smooth="yes"/>
			<point x="537" y="725" type="line" smooth="yes"/>
			<point x="505" y="725"/>
			<point x="480" y="711"/>
			<point x="462" y="683" type="curve" smooth="yes"/>
			<point x="155" y="201" type="line"/>
			<point x="232" y="689" type="line" smooth="yes"/>
			<point x="235" y="710"/>
			<point x="223" y="725"/>
		</contour>
	</outline>
</glyph>
<glyph name="uni0424" format="2">
	<advance width="575"/>
	<unicode hex="0424"/>
	<outline>
		<contour>
			<point x="546" y="360" type="curve" smooth="yes"/>
			<point x="550" y="385"/>
			<point x="552" y="408"/>
			<point x="552" y="430" type="curve" smooth="yes"/>
			<point x="552" y="543"/>
			<point x="500" y="612"/>
			<point x="398" y="629" type="curve"/>
			<point x="409" y="695" type="line"/>
			<point x="412" y="717"/>
			<point x="402" y="730"/>
			<point x="379" y="730" type="curve" smooth="yes"/>
			<point x="344" y="730" type="line" smooth="yes"/>
			<point x="323" y="730"/>
			<point x="307" y="716"/>
			<point x="304" y="695" type="curve" smooth="yes"/>
			<point x="293" y="628" type="line"/>
			<point x="167" y="606"/>
			<point x="85" y="511"/>
			<point x="61" y="360" type="curve" smooth="yes"/>
			<point x="57" y="336"/>
			<point x="55" y="313"/>
			<point x="55" y="292" type="curve" smooth="yes"/>
			<point x="55" y="181"/>
			<point x="108" y="110"/>
			<point x="208" y="92" type="curve"/>
			<point x="198" y="25" type="line" smooth="yes"/>
			<point x="194" y="4"/>
			<point x="206" y="-10"/>
			<point x="227" y="-10" type="curve" smooth="yes"/>
			<point x="262" y="-10" type="line" smooth="yes"/>
			<point x="284" y="-10"/>
			<point x="299" y="3"/>
			<point x="303" y="25" type="curve"/>
			<point x="313" y="91" type="line"/>
			<point x="440" y="111"/>
			<point x="521" y="205"/>
		</contour>
		<contour>
			<point x="329" y="193" type="curve"/>
			<point x="382" y="527" type="line"/>
			<point x="425" y="511"/>
			<point x="445" y="474"/>
			<point x="445" y="413" type="curve" smooth="yes"/>
			<point x="445" y="397"/>
			<point x="444" y="379"/>
			<point x="441" y="360" type="curve" smooth="yes"/>
			<point x="426" y="268"/>
			<point x="389" y="213"/>
		</contour>
		<contour>
			<point x="166" y="360" type="curve" smooth="yes"/>
			<point x="180" y="452"/>
			<point x="218" y="507"/>
			<point x="277" y="527" type="curve"/>
			<point x="224" y="193" type="line"/>
			<point x="182" y="209"/>
			<point x="161" y="246"/>
			<point x="161" y="306" type="curve" smooth="yes"/>
			<point x="161" y="322"/>
			<point x="163" y="340"/>
		</contour>
	</outline>
</glyph>
<glyph name="uni0426" format="2">
	<advance width="575"/>
	<unicode hex="0426"/>
	<outline>
		<contour>
			<point x="489" y="98" type="curve" smooth="yes"/>
			<point x="442" y="98" type="line"/>
			<point x="535" y="685" type="line" smooth="yes"/>
			<point x="539" y="706"/>
			<point x="527" y="720"/>
			<point x="506" y="720" type="curve" smooth="yes"/>
			<point x="471" y="720" type="line" smooth="yes"/>
			<point x="449" y="720"/>
			<point x="434" y="706"/>
			<point x="430" y="685" type="curve" smooth="yes"/>
			<point x="337" y="98" type="line"/>
			<point x="147" y="98" type="line"/>
			<point x="240" y="685" type="line" smooth="yes"/>
			<point x="244" y="706"/>
			<point x="232" y="720"/>
			<point x="211" y="720" type="curve" smooth="yes"/>
			<point x="176" y="720" type="line" smooth="yes"/>
			<point x="154" y="720"/>
			<point x="139" y="706"/>
			<point x="135" y="685" type="curve" smooth="yes"/>
			<point x="32" y="35" type="line" smooth="yes"/>
			<point x="29" y="14"/>
			<point x="40" y="0"/>
			<point x="62" y="0" type="curve" smooth="yes"/>
			<point x="404" y="0" type="line"/>
			<point x="394" y="-65" type="line" smooth="yes"/>
			<point x="390" y="-86"/>
			<point x="402" y="-100"/>
			<point x="423" y="-100" type="curve" smooth="yes"/>
			<point x="458" y="-100" type="line" smooth="yes"/>
			<point x="479" y="-100"/>
			<point x="495" y="-86"/>
			<point x="499" y="-65" type="curve" smooth="yes"/>
			<point x="519" y="63" type="line" smooth="yes"/>
			<point x="522" y="84"/>
			<point x="511" y="98"/>
		</contour>
	</outline>
</glyph>
<glyph name="uni0428" format="2">
	<advance width="575"/>
	<unicode hex="0428"/>
	<outline>
		<contour>
			<point x="570" y="720" type="curve" smooth="yes"/>
			<point x="535" y="720" type="line" smooth="yes"/>
			<point x="514" y="720"/>
			<point x="498" y="706"/>
			<point x="494" y="685" type="curve" smooth="yes"/>
			<point x="401" y="98" type="line"/>
			<point x="314" y="98" type="line"/>
			<point x="407" y="685" type="line" smooth="yes"/>
			<point x="411" y="706"/>
			<point x="399" y="720"/>
			<point x="378" y="720" type="curve" smooth="yes"/>
			<point x="343" y="720" type="line" smooth="yes"/>
			<point x="322" y="720"/>
			<point x="306" y="706"/>
			<point x="302" y="685" type="curve" smooth="yes"/>
			<point x="209" y="98" type="line"/>
			<point x="122" y="98" type="line"/>
			<point x="215" y="685" type="line" smooth="yes"/>
			<point x="219" y="706"/>
			<point x="207" y="720"/>
			<point x="186" y="720" type="curve" smooth="yes"/>
			<point x="151" y="720" type="line" smooth="yes"/>
			<point x="130" y="720"/>
			<point x="114" y="706"/>
			<point x="110" y="685" type="curve" smooth="yes"/>
			<point x="7" y="35" type="line" smooth="yes"/>
			<point x="4" y="14"/>
			<point x="16" y="0"/>
			<point x="37" y="0" type="curve" smooth="yes"/>
			<point x="456" y="0" type="line" smooth="yes"/>
			<point x="477" y="0"/>
			<point x="493" y="14"/>
			<point x="496" y="35" type="curve" smooth="yes"/>
			<point x="599" y="685" type="line" smooth="yes"/>
			<point x="603" y="706"/>
			<point x="591" y="720"/>
		</contour>
	</outline>
</glyph>
<glyph name="uni042C" format="2">
	<advance width="575"/>
	<unicode hex="042C"/>
	<outline>
		<contour>
			<point x="274" y="440" type="curve" smooth="yes"/>
			<point x="209" y="440" type="line"/>
			<point x="247" y="685" type="line" smooth="yes"/>
			<point x="251" y="706"/>
			<point x="239" y="720"/>
			<point x="218" y="720" type="curve" smooth="yes"/>
			<point x="183" y="720" type="line" smooth="yes"/>
			<point x="161" y="720"/>
			<point x="146" y="706"/>
			<point x="142" y="685" type="curve" smooth="yes"/>
			<point x="39" y="35" type="line" smooth="yes"/>
			<point x="36" y="14"/>
			<point x="47" y="0"/>
			<point x="69" y="0" type="curve" smooth="yes"/>
			<point x="204" y="0" type="line" smooth="yes"/>
			<point x="376" y="0"/>
			<point x="499" y="86"/>
			<point x="521" y="220" type="curve" smooth="yes"/>
			<point x="523" y="232"/>
			<point x="524" y="244"/>
			<point x="524" y="256" type="curve" smooth="yes"/>
			<point x="524" y="370"/>
			<point x="430" y="440"/>
		</contour>
		<contour>
			<point x="219" y="96" type="curve" smooth="yes"/>
			<point x="154" y="96" type="line"/>
			<point x="193" y="344" type="line"/>
			<point x="258" y="344" type="line" smooth="yes"/>
			<point x="360" y="344"/>
			<point x="418" y="306"/>
			<point x="418" y="240" type="curve" smooth="yes"/>
			<point x="418" y="233"/>
			<point x="417" y="227"/>
			<point x="416" y="220" type="curve" smooth="yes"/>
			<point x="403" y="142"/>
			<point x="330" y="96"/>
		</contour>
	</outline>
</glyph>
<glyph name="uni042F" format="2">
	<advance width="575"/>
	<unicode hex="042F"/>
	<anchor x="296" y="0" name="bottom"/>
	<anchor x="361" y="720" name="top"/>
	<outline>
		<contour>
			<point x="177" y="341" type="curve"/>
			<point x="-19" y="44" type="line"/>
			<point x="-35" y="20"/>
			<point x="-26" y="0"/>
			<point x="1" y="0" type="curve" smooth="yes"/>
			<point x="43" y="0" type="line" smooth="yes"/>
			<point x="60" y="0"/>
			<point x="74" y="8"/>
			<point x="85" y="24" type="curve" smooth="yes"/>
			<point x="274" y="312" type="line"/>
			<point x="403" y="312" type="line"/>
			<point x="359" y="35" type="line" smooth="yes"/>
			<point x="356" y="14"/>
			<point x="368" y="0"/>
			<point x="389" y="0" type="curve" smooth="yes"/>
			<point x="424" y="0" type="line" smooth="yes"/>
			<point x="445" y="0"/>
			<point x="461" y="14"/>
			<point x="464" y="35" type="curve" smooth="yes"/>
			<point x="567" y="685" type="line" smooth="yes"/>
			<point x="571" y="707"/>
			<point x="560" y="720"/>
			<point x="538" y="720" type="curve" smooth="yes"/>
			<point x="380" y="720" type="line" smooth="yes"/>
			<point x="233" y="720"/>
			<point x="125" y="640"/>
			<point x="106" y="516" type="curve" smooth="yes"/>
			<point x="104" y="504"/>
			<point x="103" y="493"/>
			<point x="103" y="482" type="curve" smooth="yes"/>
			<point x="103" y="422"/>
			<point x="130" y="370"/>
		</contour>
		<contour>
			<point x="331" y="409" type="line"/>
			<point x="256" y="409"/>
			<point x="210" y="446"/>
			<point x="210" y="500" type="curve" smooth="yes"/>
			<point x="210" y="505"/>
			<point x="210" y="510"/>
			<point x="211" y="516" type="curve" smooth="yes"/>
			<point x="221" y="580"/>
			<point x="283" y="624"/>
			<point x="365" y="624" type="curve" smooth="yes"/>
			<point x="453" y="624" type="line"/>
			<point x="419" y="409" type="line"/>
		</contour>
	</outline>
</glyph>
<glyph name="uni0431" format="2">
	<advance width="575"/>
	<unicode hex="0431"/>
	<outline>
		<contour>
			<point x="259" y="88" type="curve" smooth="yes"/>
			<point x="182" y="88"/>
			<point x="134" y="154"/>
			<point x="163" y="344" type="curve"/>
			<point x="212" y="377"/>
			<point x="261" y="401"/>
			<point x="309" y="401" type="curve" smooth="yes"/>
			<point x="385" y="401"/>
			<point x="413" y="341"/>
			<point x="397" y="238" type="curve" smooth="yes"/>
			<point x="380" y="132"/>
			<point x="323" y="88"/>
		</contour>
		<contour>
			<point x="55" y="336" type="curve" smooth="yes"/>
			<point x="18" y="100"/>
			<point x="92" y="-10"/>
			<point x="240" y="-10" type="curve" smooth="yes"/>
			<point x="373" y="-10"/>
			<point x="475" y="62"/>
			<point x="503" y="242" type="curve" smooth="yes"/>
			<point x="532" y="425"/>
			<point x="445" y="499"/>
			<point x="337" y="499" type="curve" smooth="yes"/>
			<point x="286" y="499"/>
			<point x="233" y="482"/>
			<point x="186" y="455" type="curve"/>
			<point x="219" y="567"/>
			<point x="268" y="602"/>
			<point x="344" y="602" type="curve" smooth="yes"/>
			<point x="387" y="602"/>
			<point x="453" y="606"/>
			<point x="536" y="654" type="curve" smooth="yes"/>
			<point x="558" y="666"/>
			<point x="563" y="685"/>
			<point x="553" y="704" type="curve" smooth="yes"/>
			<point x="539" y="728" type="line" smooth="yes"/>
			<point x="530" y="744"/>
			<point x="511" y="747"/>
			<point x="491" y="735" type="curve" smooth="yes"/>
			<point x="433" y="703"/>
			<point x="397" y="700"/>
			<point x="360" y="700" type="curve" smooth="yes"/>
			<point x="205" y="700"/>
			<point x="95" y="586"/>
		</contour>
	</outline>
</glyph>
<glyph name="uni044C" format="2">
	<advance width="575"/>
	<unicode hex="044C"/>
	<outline>
		<contour>
			<point x="318" y="340" type="curve" smooth="yes"/>
			<point x="193" y="340" type="line"/>
			<point x="216" y="485" type="line" smooth="yes"/>
			<point x="219" y="506"/>
			<point x="207" y="520"/>
			<point x="186" y="520" type="curve" smooth="yes"/>
			<point x="151" y="520" type="line" smooth="yes"/>
			<point x="130" y="520"/>
			<point x="114" y="506"/>
			<point x="111" y="485" type="curve" smooth="yes"/>
			<point x="39" y="35" type="line" smooth="yes"/>
			<point x="36" y="14"/>
			<point x="48" y="0"/>
			<point x="69" y="0" type="curve" smooth="yes"/>
			<point x="264" y="0" type="line" smooth="yes"/>
			<point x="408" y="0"/>
			<point x="495" y="60"/>
			<point x="513" y="170" type="curve" smooth="yes"/>
			<point x="515" y="181"/>
			<point x="516" y="192"/>
			<point x="516" y="202" type="curve" smooth="yes"/>
			<point x="516" y="292"/>
			<point x="448" y="340"/>
		</contour>
		<contour>
			<point x="279" y="96" type="curve" smooth="yes"/>
			<point x="154" y="96" type="line"/>
			<point x="177" y="244" type="line"/>
			<point x="302" y="244" type="line" smooth="yes"/>
			<point x="363" y="244"/>
			<point x="409" y="238"/>
			<point x="409" y="186" type="curve" smooth="yes"/>
			<point x="409" y="181"/>
			<point x="409" y="176"/>
			<point x="408" y="170" type="curve" smooth="yes"/>
			<point x="397" y="103"/>
			<point x="345" y="96"/>
		</contour>
	</outline>
</glyph>
<glyph name="uni1D47" format="2">
	<advance width="575"/>
	<unicode hex="1D47"/>
	<outline>
		<contour>
			<point x="150" y="731" type="curve" smooth="yes"/>
			<point x="74" y="240" type="line" smooth="yes"/>
			<point x="71" y="219"/>
			<point x="82" y="204"/>
			<point x="103" y="200" type="curve" smooth="yes"/>
			<point x="164" y="188"/>
			<point x="220" y="190"/>
			<point x="249" y="190" type="curve" smooth="yes"/>
			<point x="438" y="190"/>
			<point x="523" y="340"/>
			<point x="523" y="462" type="curve" smooth="yes"/>
			<point x="523" y="569"/>
			<point x="470" y="630"/>
			<point x="378" y="630" type="curve" smooth="yes"/>
			<point x="330" y="630"/>
			<point x="277" y="609"/>
			<point x="229" y="572" type="curve"/>
			<point x="255" y="733" type="line" smooth="yes"/>
			<point x="259" y="755"/>
			<point x="247" y="770"/>
			<point x="224" y="770" type="curve" smooth="yes"/>
			<point x="187" y="770" type="line" smooth="yes"/>
			<point x="167" y="770"/>
			<point x="154" y="755"/>
		</contour>
		<contour>
			<point x="185" y="289" type="curve"/>
			<point x="211" y="454" type="line"/>
			<point x="259" y="505"/>
			<point x="309" y="534"/>
			<point x="348" y="534" type="curve" smooth="yes"/>
			<point x="393" y="534"/>
			<point x="415" y="504"/>
			<point x="415" y="441" type="curve" smooth="yes"/>
			<point x="415" y="348"/>
			<point x="355" y="286"/>
			<point x="261" y="286" type="curve" smooth="yes"/>
			<point x="245" y="286"/>
			<point x="218" y="287"/>
		</contour>
	</outline>
</glyph>
<glyph name="uni1D62" format="2">
	<advance width="575"/>
	<unicode hex="1D62"/>
	<outline>
		<contour>
			<point x="332" y="430" type="curve" smooth="yes"/>
			<point x="267" y="430" type="line" smooth="yes"/>
			<point x="246" y="430"/>
			<point x="230" y="416"/>
			<point x="226" y="395" type="curve" smooth="yes"/>
			<point x="216" y="329" type="line" smooth="yes"/>
			<point x="213" y="308"/>
			<point x="224" y="294"/>
			<point x="245" y="294" type="curve" smooth="yes"/>
			<point x="310" y="294" type="line" smooth="yes"/>
			<point x="333" y="294"/>
			<point x="348" y="308"/>
			<point x="351" y="329" type="curve" smooth="yes"/>
			<point x="361" y="395" type="line" smooth="yes"/>
			<point x="365" y="418"/>
			<point x="353" y="430"/>
		</contour>
		<contour>
			<point x="350" y="-153" type="curve" smooth="yes"/>
			<point x="275" y="-153" type="line"/>
			<point x="320" y="135" type="line" smooth="yes"/>
			<point x="324" y="158"/>
			<point x="312" y="170"/>
			<point x="291" y="170" type="curve" smooth="yes"/>
			<point x="169" y="170" type="line" smooth="yes"/>
			<point x="148" y="170"/>
			<point x="132" y="158"/>
			<point x="128" y="135" type="curve" smooth="yes"/>
			<point x="124" y="109" type="line" smooth="yes"/>
			<point x="121" y="88"/>
			<point x="133" y="74"/>
			<point x="154" y="74" type="curve" smooth="yes"/>
			<point x="206" y="74" type="line"/>
			<point x="170" y="-153" type="line"/>
			<point x="95" y="-153" type="line" smooth="yes"/>
			<point x="74" y="-153"/>
			<point x="57" y="-167"/>
			<point x="54" y="-188" type="curve" smooth="yes"/>
			<point x="50" y="-215" type="line" smooth="yes"/>
			<point x="46" y="-236"/>
			<point x="58" y="-250"/>
			<point x="79" y="-250" type="curve" smooth="yes"/>
			<point x="334" y="-250" type="line" smooth="yes"/>
			<point x="355" y="-250"/>
			<point x="371" y="-236"/>
			<point x="375" y="-215" type="curve" smooth="yes"/>
			<point x="379" y="-188" type="line" smooth="yes"/>
			<point x="382" y="-167"/>
			<point x="371" y="-153"/>
		</contour>
	</outline>
</glyph>
<glyph name="uni1D9C" format="2">
	<advance width="575"/>
	<unicode hex="1D9C"/>
	<outline>
		<contour>
			<point x="564" y="689" type="curve" smooth="yes"/>
			<point x="578" y="713" type="line" smooth="yes"/>
			<point x="590" y="734"/>
			<point x="585" y="751"/>
			<point x="567" y="759" type="curve" smooth="yes"/>
			<point x="521" y="780"/>
			<point x="469" y="790"/>
			<point x="418" y="790" type="curve" smooth="yes"/>
			<point x="269" y="790"/>
			<point x="151" y="701"/>
			<point x="130" y="570" type="curve" smooth="yes"/>
			<point x="110" y="439"/>
			<point x="199" y="350"/>
			<point x="348" y="350" type="curve" smooth="yes"/>
			<point x="399" y="350"/>
			<point x="454" y="360"/>
			<point x="507" y="381" type="curve" smooth="yes"/>
			<point x="528" y="389"/>
			<point x="538" y="406"/>
			<point x="533" y="427" type="curve" smooth="yes"/>
			<point x="526" y="451" type="line" smooth="yes"/>
			<point x="522" y="471"/>
			<point x="506" y="478"/>
			<point x="485" y="470" type="curve"/>
			<point x="438" y="455"/>
			<point x="403" y="448"/>
			<point x="364" y="448" type="curve" smooth="yes"/>
			<point x="274" y="448"/>
			<point x="224" y="495"/>
			<point x="236" y="570" type="curve" smooth="yes"/>
			<point x="248" y="645"/>
			<point x="313" y="692"/>
			<point x="403" y="692" type="curve" smooth="yes"/>
			<point x="445" y="692"/>
			<point x="480" y="686"/>
			<point x="516" y="670" type="curve" smooth="yes"/>
			<point x="535" y="662"/>
			<point x="553" y="669"/>
		</contour>
	</outline>
</glyph>
<glyph name="endash" format="2">
	<advance width="575"/>
	<unicode hex="2013"/>
	<outline>
		<contour>
			<point x="152" y="275" type="curve" smooth="yes"/>
			<point x="148" y="249" type="line" smooth="yes"/>
			<point x="144" y="226"/>
			<point x="157" y="212"/>
			<point x="179" y="212" type="curve" smooth="yes"/>
			<point x="384" y="212" type="line" smooth="yes"/>
			<point x="405" y="212"/>
			<point x="420" y="225"/>
			<point x="423" y="246" type="curve" smooth="yes"/>
			<point x="427" y="273" type="line" smooth="yes"/>
			<point x="430" y="295"/>
			<point x="418" y="309"/>
			<point x="396" y="309" type="curve" smooth="yes"/>
			<point x="191" y="309" type="line" smooth="yes"/>
			<point x="170" y="309"/>
			<point x="155" y="296"/>
		</contour>
	</outline>
</glyph>
<glyph name="emdash" format="2">
	<advance width="575"/>
	<unicode hex="2014"/>
	<outline>
		<contour>
			<point x="2" y="275" type="curve" smooth="yes"/>
			<point x="-2" y="249" type="line" smooth="yes"/>
			<point x="-6" y="226"/>
			<point x="7" y="212"/>
			<point x="29" y="212" type="curve" smooth="yes"/>
			<point x="534" y="212" type="line" smooth="yes"/>
			<point x="555" y="212"/>
			<point x="570" y="225"/>
			<point x="573" y="246" type="curve" smooth="yes"/>
			<point x="577" y="273" type="line" smooth="yes"/>
			<point x="580" y="295"/>
			<point x="568" y="309"/>
			<point x="546" y="309" type="curve" smooth="yes"/>
			<point x="41" y="309" type="line" smooth="yes"/>
			<point x="20" y="309"/>
			<point x="5" y="296"/>
		</contour>
	</outline>
</glyph>
<glyph name="quotesinglbase" format="2">
	<advance width="575"/>
	<unicode hex="201A"/>
	<outline>
		<contour>
			<point x="308" y="135" type="curve" smooth="yes"/>
			<point x="228" y="135" type="line" smooth="yes"/>
			<point x="206" y="135"/>
			<point x="191" y="122"/>
			<point x="188" y="100" type="curve" smooth="yes"/>
			<point x="177" y="35" type="line" smooth="yes"/>
			<point x="174" y="14"/>
			<point x="186" y="0"/>
			<point x="207" y="0" type="curve" smooth="yes"/>
			<point x="222" y="0" type="line"/>
			<point x="209" y="-78"/>
			<point x="193" y="-111"/>
			<point x="168" y="-111" type="curve" smooth="yes"/>
			<point x="147" y="-111"/>
			<point x="132" y="-124"/>
			<point x="129" y="-146" type="curve" smooth="yes"/>
			<point x="124" y="-173" type="line" smooth="yes"/>
			<point x="121" y="-194"/>
			<point x="132" y="-207"/>
			<point x="154" y="-207" type="curve" smooth="yes"/>
			<point x="242" y="-207"/>
			<point x="301" y="-132"/>
			<point x="323" y="8" type="curve" smooth="yes"/>
			<point x="338" y="100" type="line" smooth="yes"/>
			<point x="341" y="122"/>
			<point x="330" y="135"/>
		</contour>
	</outline>
</glyph>
<glyph name="onedotenleader" format="2">
	<advance width="575"/>
	<unicode hex="2024"/>
	<outline>
		<contour>
			<point x="178" y="122" type="curve"/>
			<point x="164" y="35" type="line"/>
			<point x="161" y="15"/>
			<point x="174" y="0"/>
			<point x="194" y="0" type="curve"/>
			<point x="299" y="0" type="line"/>
			<point x="320" y="0"/>
			<point x="336" y="15"/>
			<point x="339" y="35" type="curve"/>
			<point x="353" y="122" type="line"/>
			<point x="356" y="143"/>
			<point x="345" y="157"/>
			<point x="324" y="157" type="curve"/>
			<point x="219" y="157" type="line"/>
			<point x="199" y="157"/>
			<point x="181" y="143"/>
		</contour>
	</outline>
</glyph>
<glyph name="fraction" format="2">
	<advance width="575"/>
	<unicode hex="2044"/>
	<outline>
		<contour>
			<point x="53" y="263" type="curve" smooth="yes"/>
			<point x="49" y="237" type="line" smooth="yes"/>
			<point x="46" y="221"/>
			<point x="54" y="212"/>
			<point x="70" y="212" type="curve" smooth="yes"/>
			<point x="493" y="212" type="line" smooth="yes"/>
			<point x="509" y="212"/>
			<point x="519" y="221"/>
			<point x="522" y="237" type="curve" smooth="yes"/>
			<point x="526" y="264" type="line" smooth="yes"/>
			<point x="529" y="280"/>
			<point x="521" y="289"/>
			<point x="505" y="289" type="curve" smooth="yes"/>
			<point x="82" y="289" type="line" smooth="yes"/>
			<point x="66" y="289"/>
			<point x="56" y="280"/>
		</contour>
	</outline>
</glyph>
<glyph name="uni207B" format="2">
	<advance width="575"/>
	<unicode hex="207B"/>
	<outline>
		<contour>
			<point x="141" y="573" type="curve" smooth="yes"/>
			<point x="136" y="547" type="line" smooth="yes"/>
			<point x="133" y="526"/>
			<point x="145" y="512"/>
			<point x="166" y="512" type="curve" smooth="yes"/>
			<point x="489" y="512" type="line" smooth="yes"/>
			<point x="511" y="512"/>
			<point x="526" y="525"/>
			<point x="529" y="547" type="curve" smooth="yes"/>
			<point x="534" y="574" type="line" smooth="yes"/>
			<point x="537" y="596"/>
			<point x="526" y="609"/>
			<point x="504" y="609" type="curve" smooth="yes"/>
			<point x="181" y="609" type="line" smooth="yes"/>
			<point x="159" y="609"/>
			<point x="144" y="595"/>
		</contour>
	</outline>
</glyph>
<glyph name="uni207C" format="2">
	<advance width="575"/>
	<unicode hex="207C"/>
	<outline>
		<contour>
			<point x="154" y="659" type="curve" smooth="yes"/>
			<point x="150" y="633" type="line" smooth="yes"/>
			<point x="147" y="612"/>
			<point x="159" y="598"/>
			<point x="180" y="598" type="curve" smooth="yes"/>
			<point x="503" y="598" type="line" smooth="yes"/>
			<point x="525" y="598"/>
			<point x="540" y="611"/>
			<point x="543" y="633" type="curve" smooth="yes"/>
			<point x="547" y="660" type="line" smooth="yes"/>
			<point x="551" y="682"/>
			<point x="540" y="695"/>
			<point x="518" y="695" type="curve" smooth="yes"/>
			<point x="195" y="695" type="line" smooth="yes"/>
			<point x="173" y="695"/>
			<point x="158" y="681"/>
		</contour>
		<contour>
			<point x="127" y="486" type="curve" smooth="yes"/>
			<point x="123" y="460" type="line" smooth="yes"/>
			<point x="119" y="439"/>
			<point x="131" y="425"/>
			<point x="152" y="425" type="curve" smooth="yes"/>
			<point x="475" y="425" type="line" smooth="yes"/>
			<point x="497" y="425"/>
			<point x="512" y="438"/>
			<point x="516" y="460" type="curve" smooth="yes"/>
			<point x="520" y="487" type="line" smooth="yes"/>
			<point x="523" y="509"/>
			<point x="512" y="522"/>
			<point x="490" y="522" type="curve" smooth="yes"/>
			<point x="167" y="522" type="line" smooth="yes"/>
			<point x="145" y="522"/>
			<point x="130" y="508"/>
		</contour>
	</outline>
</glyph>
<glyph name="uni207E" format="2">
	<advance width="575"/>
	<unicode hex="207E"/>
	<outline>
		<contour>
			<point x="225" y="441" type="curve" smooth="yes"/>
			<point x="202" y="437"/>
			<point x="189" y="422"/>
			<point x="187" y="402" type="curve" smooth="yes"/>
			<point x="186" y="374" type="line" smooth="yes"/>
			<point x="185" y="352"/>
			<point x="198" y="340"/>
			<point x="219" y="343" type="curve" smooth="yes"/>
			<point x="352" y="362"/>
			<point x="438" y="438"/>
			<point x="458" y="560" type="curve" smooth="yes"/>
			<point x="476" y="677"/>
			<point x="418" y="753"/>
			<point x="289" y="777" type="curve" smooth="yes"/>
			<point x="268" y="781"/>
			<point x="251" y="769"/>
			<point x="245" y="746" type="curve" smooth="yes"/>
			<point x="238" y="718" type="line"/>
			<point x="231" y="697"/>
			<point x="242" y="682"/>
			<point x="263" y="679" type="curve" smooth="yes"/>
			<point x="336" y="669"/>
			<point x="364" y="632"/>
			<point x="353" y="560" type="curve" smooth="yes"/>
			<point x="342" y="491"/>
			<point x="304" y="455"/>
		</contour>
	</outline>
</glyph>
<glyph name="uni207F" format="2">
	<advance width="575"/>
	<unicode hex="207F"/>
	<anchor x="287" y="250" name="bottom"/>
	<anchor x="369" y="820" name="top"/>
	<outline>
		<contour>
			<point x="275" y="717" type="curve"/>
			<point x="282" y="753" type="line" smooth="yes"/>
			<point x="286" y="774"/>
			<point x="272" y="790"/>
			<point x="251" y="790" type="curve"/>
			<point x="214" y="790" type="line"/>
			<point x="193" y="790"/>
			<point x="178" y="770"/>
			<point x="176" y="751" type="curve"/>
			<point x="121" y="407" type="line"/>
			<point x="119" y="386"/>
			<point x="131" y="370"/>
			<point x="152" y="370" type="curve"/>
			<point x="187" y="370" type="line"/>
			<point x="207" y="370"/>
			<point x="223" y="384"/>
			<point x="226" y="404" type="curve"/>
			<point x="261" y="624" type="line"/>
			<point x="313" y="678"/>
			<point x="360" y="704"/>
			<point x="398" y="704" type="curve"/>
			<point x="452" y="704"/>
			<point x="486" y="686"/>
			<point x="465" y="560" type="curve"/>
			<point x="441" y="407" type="line"/>
			<point x="439" y="386"/>
			<point x="451" y="370"/>
			<point x="472" y="370" type="curve"/>
			<point x="507" y="370" type="line"/>
			<point x="528" y="370"/>
			<point x="543" y="384"/>
			<point x="546" y="404" type="curve"/>
			<point x="570" y="556" type="line"/>
			<point x="602" y="754"/>
			<point x="521" y="800"/>
			<point x="428" y="800" type="curve"/>
			<point x="382" y="800"/>
			<point x="329" y="780"/>
		</contour>
	</outline>
</glyph>
<glyph name="uni210D" format="2">
	<advance width="575"/>
	<unicode hex="210D"/>
	<outline>
		<contour>
			<point x="571" y="720" type="curve" smooth="yes"/>
			<point x="536" y="720" type="line" smooth="yes"/>
			<point x="514" y="720"/>
			<point x="499" y="707"/>
			<point x="495" y="685" type="curve" smooth="yes"/>
			<point x="455" y="430" type="line"/>
			<point x="327" y="430" type="line"/>
			<point x="367" y="685" type="line" smooth="yes"/>
			<point x="371" y="707"/>
			<point x="360" y="720"/>
			<point x="338" y="720" type="curve" smooth="yes"/>
			<point x="303" y="720" type="line" smooth="yes"/>
			<point x="282" y="720"/>
			<point x="266" y="706"/>
			<point x="262" y="685" type="curve" smooth="yes"/>
			<point x="159" y="35" type="line" smooth="yes"/>
			<point x="156" y="14"/>
			<point x="168" y="0"/>
			<point x="189" y="0" type="curve" smooth="yes"/>
			<point x="224" y="0" type="line" smooth="yes"/>
			<point x="246" y="0"/>
			<point x="261" y="13"/>
			<point x="264" y="35" type="curve" smooth="yes"/>
			<point x="312" y="333" type="line"/>
			<point x="440" y="333" type="line"/>
			<point x="392" y="35" type="line" smooth="yes"/>
			<point x="389" y="14"/>
			<point x="401" y="0"/>
			<point x="422" y="0" type="curve" smooth="yes"/>
			<point x="457" y="0" type="line" smooth="yes"/>
			<point x="479" y="0"/>
			<point x="494" y="13"/>
			<point x="497" y="35" type="curve" smooth="yes"/>
			<point x="600" y="685" type="line" smooth="yes"/>
			<point x="604" y="707"/>
			<point x="593" y="720"/>
		</contour>
		<contour>
			<point x="571" y="720" type="curve" smooth="yes"/>
			<point x="536" y="720" type="line" smooth="yes"/>
			<point x="514" y="720"/>
			<point x="499" y="707"/>
			<point x="495" y="685" type="curve" smooth="yes"/>
			<point x="455" y="430" type="line"/>
			<point x="327" y="430" type="line"/>
			<point x="367" y="685" type="line" smooth="yes"/>
			<point x="371" y="707"/>
			<point x="360" y="720"/>
			<point x="338" y="720" type="curve" smooth="yes"/>
			<point x="303" y="720" type="line" smooth="yes"/>
			<point x="282" y="720"/>
			<point x="266" y="706"/>
			<point x="262" y="685" type="curve" smooth="yes"/>
			<point x="159" y="35" type="line" smooth="yes"/>
			<point x="156" y="14"/>
			<point x="168" y="0"/>
			<point x="189" y="0" type="curve" smooth="yes"/>
			<point x="224" y="0" type="line" smooth="yes"/>
			<point x="246" y="0"/>
			<point x="261" y="13"/>
			<point x="264" y="35" type="curve" smooth="yes"/>
			<point x="312" y="333" type="line"/>
			<point x="440" y="333" type="line"/>
			<point x="392" y="35" type="line" smooth="yes"/>
			<point x="389" y="14"/>
			<point x="401" y="0"/>
			<point x="422" y="0" type="curve" smooth="yes"/>
			<point x="457" y="0" type="line" smooth="yes"/>
			<point x="479" y="0"/>
			<point x="494" y="13"/>
			<point x="497" y="35" type="curve" smooth="yes"/>
			<point x="600" y="685" type="line" smooth="yes"/>
			<point x="604" y="707"/>
			<point x="593" y="720"/>
		</contour>
		<contour>
			<point x="185" y="720" type="curve" smooth="yes"/>
			<point x="150" y="720" type="line" smooth="yes"/>
			<point x="129" y="720"/>
			<point x="113" y="706"/>
			<point x="109" y="685" type="curve" smooth="yes"/>
			<point x="6" y="35" type="line" smooth="yes"/>
			<point x="3" y="14"/>
			<point x="15" y="0"/>
			<point x="36" y="0" type="curve" smooth="yes"/>
			<point x="71" y="0" type="line" smooth="yes"/>
			<point x="92" y="0"/>
			<point x="108" y="14"/>
			<point x="111" y="35" type="curve" smooth="yes"/>
			<point x="214" y="685" type="line" smooth="yes"/>
			<point x="218" y="706"/>
			<point x="206" y="720"/>
		</contour>
	</outline>
</glyph>
<glyph name="uni2119" format="2">
	<advance width="575"/>
	<unicode hex="2119"/>
	<outline>
		<contour>
			<point x="185" y="720" type="curve" smooth="yes"/>
			<point x="150" y="720" type="line" smooth="yes"/>
			<point x="129" y="720"/>
			<point x="113" y="706"/>
			<point x="109" y="685" type="curve" smooth="yes"/>
			<point x="6" y="35" type="line" smooth="yes"/>
			<point x="3" y="14"/>
			<point x="15" y="0"/>
			<point x="36" y="0" type="curve" smooth="yes"/>
			<point x="71" y="0" type="line" smooth="yes"/>
			<point x="92" y="0"/>
			<point x="108" y="14"/>
			<point x="111" y="35" type="curve" smooth="yes"/>
			<point x="214" y="685" type="line" smooth="yes"/>
			<point x="218" y="706"/>
			<point x="206" y="720"/>
		</contour>
		<contour>
			<point x="363" y="720" type="curve" smooth="yes"/>
			<point x="303" y="720" type="line" smooth="yes"/>
			<point x="282" y="720"/>
			<point x="266" y="706"/>
			<point x="262" y="685" type="curve" smooth="yes"/>
			<point x="159" y="35" type="line" smooth="yes"/>
			<point x="156" y="14"/>
			<point x="168" y="0"/>
			<point x="189" y="0" type="curve" smooth="yes"/>
			<point x="224" y="0" type="line" smooth="yes"/>
			<point x="246" y="0"/>
			<point x="261" y="13"/>
			<point x="264" y="35" type="curve" smooth="yes"/>
			<point x="300" y="260" type="line"/>
			<point x="458" y="264"/>
			<point x="561" y="347"/>
			<point x="583" y="490" type="curve" smooth="yes"/>
			<point x="607" y="636"/>
			<point x="526" y="720"/>
		</contour>
		<contour>
			<point x="315" y="356" type="curve"/>
			<point x="358" y="624" type="line"/>
			<point x="452" y="621"/>
			<point x="492" y="576"/>
			<point x="478" y="490" type="curve" smooth="yes"/>
			<point x="465" y="403"/>
			<point x="412" y="359"/>
		</contour>
	</outline>
</glyph>
<glyph name="uni211D" format="2">
	<advance width="575"/>
	<unicode hex="211D"/>
	<outline>
		<contour>
			<point x="185" y="720" type="curve" smooth="yes"/>
			<point x="150" y="720" type="line" smooth="yes"/>
			<point x="129" y="720"/>
			<point x="113" y="706"/>
			<point x="109" y="685" type="curve" smooth="yes"/>
			<point x="6" y="35" type="line" smooth="yes"/>
			<point x="3" y="14"/>
			<point x="15" y="0"/>
			<point x="36" y="0" type="curve" smooth="yes"/>
			<point x="71" y="0" type="line" smooth="yes"/>
			<point x="92" y="0"/>
			<point x="108" y="14"/>
			<point x="111" y="35" type="curve" smooth="yes"/>
			<point x="214" y="685" type="line" smooth="yes"/>
			<point x="218" y="706"/>
			<point x="206" y="720"/>
		</contour>
		<contour>
			<point x="526" y="44" type="curve" smooth="yes"/>
			<point x="454" y="340" type="line"/>
			<point x="520" y="374"/>
			<point x="569" y="441"/>
			<point x="581" y="516" type="curve" smooth="yes"/>
			<point x="600" y="640"/>
			<point x="518" y="720"/>
			<point x="371" y="720" type="curve" smooth="yes"/>
			<point x="303" y="720" type="line" smooth="yes"/>
			<point x="281" y="720"/>
			<point x="266" y="707"/>
			<point x="262" y="685" type="curve" smooth="yes"/>
			<point x="159" y="35" type="line" smooth="yes"/>
			<point x="156" y="14"/>
			<point x="168" y="0"/>
			<point x="189" y="0" type="curve" smooth="yes"/>
			<point x="224" y="0" type="line" smooth="yes"/>
			<point x="245" y="0"/>
			<point x="261" y="14"/>
			<point x="264" y="35" type="curve" smooth="yes"/>
			<point x="308" y="312" type="line"/>
			<point x="348" y="312" type="line"/>
			<point x="416" y="24" type="line" smooth="yes"/>
			<point x="419" y="9"/>
			<point x="432" y="0"/>
			<point x="450" y="0" type="curve" smooth="yes"/>
			<point x="492" y="0" type="line" smooth="yes"/>
			<point x="517" y="0"/>
			<point x="532" y="18"/>
		</contour>
		<contour>
			<point x="322" y="409" type="curve"/>
			<point x="324" y="409" type="line"/>
			<point x="358" y="624" type="line"/>
			<point x="356" y="624" type="line"/>
			<point x="438" y="624"/>
			<point x="486" y="580"/>
			<point x="476" y="516" type="curve" smooth="yes"/>
			<point x="466" y="453"/>
			<point x="404" y="409"/>
		</contour>
	</outline>
</glyph>
<glyph name="uni2152" format="2">
	<advance width="575"/>
	<unicode hex="2152"/>
	<outline>
		<contour>
			<point x="303" y="-260" type="curve" smooth="yes"/>
			<point x="417" y="-260"/>
			<point x="462" y="-206"/>
			<point x="488" y="-40" type="curve" smooth="yes"/>
			<point x="514" y="126"/>
			<point x="487" y="180"/>
			<point x="373" y="180" type="curve" smooth="yes"/>
			<point x="259" y="180"/>
			<point x="214" y="126"/>
			<point x="188" y="-40" type="curve" smooth="yes"/>
			<point x="162" y="-206"/>
			<point x="189" y="-260"/>
		</contour>
		<contour>
			<point x="319" y="-162" type="curve" smooth="yes"/>
			<point x="275" y="-162"/>
			<point x="274" y="-161"/>
			<point x="293" y="-40" type="curve" smooth="yes"/>
			<point x="312" y="81"/>
			<point x="313" y="82"/>
			<point x="357" y="82" type="curve" smooth="yes"/>
			<point x="401" y="82"/>
			<point x="402" y="81"/>
			<point x="383" y="-40" type="curve" smooth="yes"/>
			<point x="364" y="-161"/>
			<point x="363" y="-162"/>
		</contour>
		<contour>
			<point x="55" y="273" type="curve" smooth="yes"/>
			<point x="51" y="247" type="line" smooth="yes"/>
			<point x="49" y="231"/>
			<point x="56" y="222"/>
			<point x="72" y="222" type="curve" smooth="yes"/>
			<point x="495" y="222" type="line" smooth="yes"/>
			<point x="511" y="222"/>
			<point x="522" y="231"/>
			<point x="524" y="247" type="curve" smooth="yes"/>
			<point x="528" y="274" type="line" smooth="yes"/>
			<point x="530" y="290"/>
			<point x="523" y="299"/>
			<point x="507" y="299" type="curve" smooth="yes"/>
			<point x="84" y="299" type="line" smooth="yes"/>
			<point x="68" y="299"/>
			<point x="58" y="290"/>
		</contour>
		<contour>
			<point x="7" y="-250" type="curve" smooth="yes"/>
			<point x="42" y="-250" type="line" smooth="yes"/>
			<point x="63" y="-250"/>
			<point x="79" y="-236"/>
			<point x="82" y="-215" type="curve" smooth="yes"/>
			<point x="138" y="135" type="line" smooth="yes"/>
			<point x="141" y="156"/>
			<point x="129" y="170"/>
			<point x="108" y="170" type="curve" smooth="yes"/>
			<point x="73" y="170" type="line" smooth="yes"/>
			<point x="52" y="170"/>
			<point x="36" y="156"/>
			<point x="33" y="135" type="curve" smooth="yes"/>
			<point x="-23" y="-215" type="line" smooth="yes"/>
			<point x="-26" y="-236"/>
			<point x="-14" y="-250"/>
		</contour>
		<component base="one.numr" xOffset="10"/>
	</outline>
</glyph>
<glyph name="uni215F" format="2">
	<advance width="575"/>
	<unicode hex="215F"/>
	<outline>
		<contour>
			<point x="497" y="364" type="curve" smooth="yes"/>
			<point x="474" y="387" type="line"/>
			<point x="464" y="398"/>
			<point x="452" y="398"/>
			<point x="441" y="387" type="curve"/>
			<point x="87" y="33" type="line"/>
			<point x="76" y="22"/>
			<point x="76" y="11"/>
			<point x="87" y="0" type="curve" smooth="yes"/>
			<point x="110" y="-23" type="line" smooth="yes"/>
			<point x="121" y="-34"/>
			<point x="132" y="-34"/>
			<point x="143" y="-23" type="curve" smooth="yes"/>
			<point x="497" y="331" type="line" smooth="yes"/>
			<point x="508" y="342"/>
			<point x="508" y="353"/>
		</contour>
		<component base="one.numr" xOffset="-47"/>
	</outline>
</glyph>
<glyph name="arrowleft" format="2">
	<advance width="575"/>
	<unicode hex="2190"/>
	<outline>
		<contour>
			<point x="218" y="480" type="curve" smooth="yes"/>
			<point x="23" y="285" type="line"/>
			<point x="8" y="270"/>
			<point x="8" y="250"/>
			<point x="23" y="235" type="curve" smooth="yes"/>
			<point x="218" y="40" type="line" smooth="yes"/>
			<point x="234" y="24"/>
			<point x="251" y="26"/>
			<point x="267" y="40" type="curve" smooth="yes"/>
			<point x="290" y="61" type="line" smooth="yes"/>
			<point x="306" y="76"/>
			<point x="307" y="96"/>
			<point x="291" y="110" type="curve" smooth="yes"/>
			<point x="181" y="212" type="line"/>
			<point x="530" y="212" type="line" smooth="yes"/>
			<point x="551" y="212"/>
			<point x="565" y="226"/>
			<point x="565" y="247" type="curve" smooth="yes"/>
			<point x="565" y="273" type="line" smooth="yes"/>
			<point x="565" y="295"/>
			<point x="551" y="309"/>
			<point x="530" y="309" type="curve" smooth="yes"/>
			<point x="182" y="309" type="line"/>
			<point x="291" y="410" type="line" smooth="yes"/>
			<point x="307" y="424"/>
			<point x="306" y="444"/>
			<point x="290" y="459" type="curve" smooth="yes"/>
			<point x="267" y="480" type="line" smooth="yes"/>
			<point x="252" y="494"/>
			<point x="233" y="495"/>
		</contour>
	</outline>
</glyph>
<glyph name="arrowup" format="2">
	<advance width="575"/>
	<unicode hex="2191"/>
	<outline>
		<contour>
			<point x="486" y="312" type="curve" smooth="yes"/>
			<point x="507" y="335" type="line"/>
			<point x="521" y="351"/>
			<point x="523" y="368"/>
			<point x="507" y="384" type="curve" smooth="yes"/>
			<point x="312" y="579" type="line" smooth="yes"/>
			<point x="297" y="594"/>
			<point x="277" y="594"/>
			<point x="262" y="579" type="curve" smooth="yes"/>
			<point x="67" y="384" type="line" smooth="yes"/>
			<point x="52" y="369"/>
			<point x="53" y="350"/>
			<point x="67" y="335" type="curve" smooth="yes"/>
			<point x="88" y="312" type="line" smooth="yes"/>
			<point x="103" y="296"/>
			<point x="122" y="296"/>
			<point x="137" y="311" type="curve" smooth="yes"/>
			<point x="234" y="416" type="line"/>
			<point x="234" y="-15" type="line" smooth="yes"/>
			<point x="234" y="-36"/>
			<point x="248" y="-50"/>
			<point x="269" y="-50" type="curve" smooth="yes"/>
			<point x="304" y="-50" type="line" smooth="yes"/>
			<point x="325" y="-50"/>
			<point x="339" y="-36"/>
			<point x="339" y="-15" type="curve" smooth="yes"/>
			<point x="339" y="417" type="line"/>
			<point x="437" y="311" type="line" smooth="yes"/>
			<point x="452" y="296"/>
			<point x="471" y="296"/>
		</contour>
	</outline>
</glyph>
<glyph name="arrowright" format="2">
	<advance width="575"/>
	<unicode hex="2192"/>
	<outline>
		<contour>
			<point x="554" y="285" type="curve" smooth="yes"/>
			<point x="359" y="480" type="line" smooth="yes"/>
			<point x="344" y="495"/>
			<point x="325" y="494"/>
			<point x="310" y="480" type="curve" smooth="yes"/>
			<point x="287" y="459" type="line" smooth="yes"/>
			<point x="271" y="444"/>
			<point x="271" y="425"/>
			<point x="286" y="410" type="curve" smooth="yes"/>
			<point x="395" y="309" type="line"/>
			<point x="47" y="309" type="line" smooth="yes"/>
			<point x="26" y="309"/>
			<point x="12" y="295"/>
			<point x="12" y="273" type="curve" smooth="yes"/>
			<point x="12" y="247" type="line" smooth="yes"/>
			<point x="12" y="226"/>
			<point x="26" y="212"/>
			<point x="47" y="212" type="curve" smooth="yes"/>
			<point x="396" y="212" type="line"/>
			<point x="286" y="110" type="line" smooth="yes"/>
			<point x="271" y="95"/>
			<point x="271" y="76"/>
			<point x="287" y="61" type="curve" smooth="yes"/>
			<point x="310" y="40" type="line" smooth="yes"/>
			<point x="326" y="26"/>
			<point x="343" y="24"/>
			<point x="359" y="40" type="curve" smooth="yes"/>
			<point x="554" y="235" type="line" smooth="yes"/>
			<point x="569" y="250"/>
			<point x="569" y="270"/>
		</contour>
	</outline>
</glyph>
<glyph name="arrowdown" format="2">
	<advance width="575"/>
	<unicode hex="2193"/>
	<outline>
		<contour>
			<point x="507" y="185" type="curve" smooth="yes"/>
			<point x="486" y="208" type="line" smooth="yes"/>
			<point x="471" y="224"/>
			<point x="452" y="224"/>
			<point x="437" y="209" type="curve" smooth="yes"/>
			<point x="339" y="103" type="line"/>
			<point x="339" y="535" type="line" smooth="yes"/>
			<point x="339" y="556"/>
			<point x="325" y="570"/>
			<point x="304" y="570" type="curve" smooth="yes"/>
			<point x="269" y="570" type="line" smooth="yes"/>
			<point x="248" y="570"/>
			<point x="234" y="556"/>
			<point x="234" y="535" type="curve" smooth="yes"/>
			<point x="234" y="104" type="line"/>
			<point x="137" y="209" type="line" smooth="yes"/>
			<point x="122" y="224"/>
			<point x="103" y="224"/>
			<point x="88" y="208" type="curve" smooth="yes"/>
			<point x="67" y="185" type="line" smooth="yes"/>
			<point x="53" y="170"/>
			<point x="52" y="151"/>
			<point x="67" y="136" type="curve" smooth="yes"/>
			<point x="262" y="-59" type="line" smooth="yes"/>
			<point x="277" y="-74"/>
			<point x="297" y="-74"/>
			<point x="312" y="-59" type="curve" smooth="yes"/>
			<point x="507" y="136" type="line" smooth="yes"/>
			<point x="523" y="152"/>
			<point x="521" y="169"/>
		</contour>
	</outline>
</glyph>
<glyph name="arrowboth" format="2">
	<advance width="575"/>
	<unicode hex="2194"/>
	<outline>
		<contour>
			<point x="566" y="283" type="curve" smooth="yes"/>
			<point x="447" y="459" type="line" smooth="yes"/>
			<point x="434" y="478"/>
			<point x="416" y="479"/>
			<point x="399" y="468" type="curve" smooth="yes"/>
			<point x="372" y="451" type="line" smooth="yes"/>
			<point x="352" y="439"/>
			<point x="349" y="420"/>
			<point x="362" y="402" type="curve" smooth="yes"/>
			<point x="431" y="309" type="line"/>
			<point x="144" y="309" type="line"/>
			<point x="213" y="402" type="line" smooth="yes"/>
			<point x="226" y="420"/>
			<point x="223" y="439"/>
			<point x="203" y="451" type="curve" smooth="yes"/>
			<point x="176" y="468" type="line" smooth="yes"/>
			<point x="159" y="479"/>
			<point x="141" y="478"/>
			<point x="128" y="459" type="curve" smooth="yes"/>
			<point x="9" y="283" type="line" smooth="yes"/>
			<point x="-2" y="267"/>
			<point x="-2" y="253"/>
			<point x="9" y="237" type="curve" smooth="yes"/>
			<point x="128" y="61" type="line" smooth="yes"/>
			<point x="140" y="43"/>
			<point x="158" y="40"/>
			<point x="176" y="52" type="curve" smooth="yes"/>
			<point x="203" y="69" type="line" smooth="yes"/>
			<point x="223" y="81"/>
			<point x="226" y="100"/>
			<point x="213" y="118" type="curve" smooth="yes"/>
			<point x="143" y="212" type="line"/>
			<point x="432" y="212" type="line"/>
			<point x="362" y="118" type="line" smooth="yes"/>
			<point x="349" y="100"/>
			<point x="352" y="81"/>
			<point x="372" y="69" type="curve" smooth="yes"/>
			<point x="399" y="52" type="line" smooth="yes"/>
			<point x="417" y="40"/>
			<point x="435" y="43"/>
			<point x="447" y="61" type="curve" smooth="yes"/>
			<point x="566" y="237" type="line" smooth="yes"/>
			<point x="577" y="253"/>
			<point x="577" y="267"/>
		</contour>
	</outline>
</glyph>
<glyph name="arrowupdn" format="2">
	<advance width="575"/>
	<unicode hex="2195"/>
	<outline>
		<contour>
			<point x="507" y="135" type="curve" smooth="yes"/>
			<point x="486" y="158" type="line"/>
			<point x="472" y="174"/>
			<point x="452" y="176"/>
			<point x="437" y="159" type="curve" smooth="yes"/>
			<point x="339" y="53" type="line"/>
			<point x="339" y="467" type="line"/>
			<point x="437" y="361" type="line" smooth="yes"/>
			<point x="452" y="346"/>
			<point x="471" y="346"/>
			<point x="486" y="362" type="curve" smooth="yes"/>
			<point x="507" y="385" type="line" smooth="yes"/>
			<point x="521" y="401"/>
			<point x="523" y="418"/>
			<point x="507" y="434" type="curve" smooth="yes"/>
			<point x="312" y="629" type="line" smooth="yes"/>
			<point x="297" y="644"/>
			<point x="277" y="644"/>
			<point x="262" y="629" type="curve" smooth="yes"/>
			<point x="67" y="434" type="line" smooth="yes"/>
			<point x="52" y="419"/>
			<point x="53" y="400"/>
			<point x="67" y="385" type="curve" smooth="yes"/>
			<point x="88" y="362" type="line" smooth="yes"/>
			<point x="103" y="346"/>
			<point x="122" y="346"/>
			<point x="137" y="361" type="curve" smooth="yes"/>
			<point x="234" y="466" type="line"/>
			<point x="234" y="54" type="line"/>
			<point x="137" y="159" type="line" smooth="yes"/>
			<point x="122" y="176"/>
			<point x="102" y="174"/>
			<point x="88" y="158" type="curve" smooth="yes"/>
			<point x="67" y="135" type="line" smooth="yes"/>
			<point x="53" y="120"/>
			<point x="52" y="101"/>
			<point x="67" y="86" type="curve" smooth="yes"/>
			<point x="262" y="-109" type="line" smooth="yes"/>
			<point x="277" y="-124"/>
			<point x="297" y="-124"/>
			<point x="312" y="-109" type="curve" smooth="yes"/>
			<point x="507" y="86" type="line" smooth="yes"/>
			<point x="523" y="102"/>
			<point x="521" y="119"/>
		</contour>
	</outline>
</glyph>
<glyph name="uni2196" format="2">
	<advance width="575"/>
	<unicode hex="2196"/>
	<outline>
		<contour>
			<point x="141" y="204" type="curve" smooth="yes"/>
			<point x="141" y="359" type="line"/>
			<point x="458" y="13" type="line" smooth="yes"/>
			<point x="472" y="-2"/>
			<point x="490" y="-2"/>
			<point x="507" y="12" type="curve" smooth="yes"/>
			<point x="530" y="32" type="line" smooth="yes"/>
			<point x="547" y="47"/>
			<point x="547" y="67"/>
			<point x="531" y="83" type="curve" smooth="yes"/>
			<point x="204" y="422" type="line"/>
			<point x="352" y="422" type="line" smooth="yes"/>
			<point x="373" y="422"/>
			<point x="387" y="436"/>
			<point x="387" y="457" type="curve" smooth="yes"/>
			<point x="387" y="485" type="line" smooth="yes"/>
			<point x="387" y="506"/>
			<point x="373" y="520"/>
			<point x="352" y="520" type="curve" smooth="yes"/>
			<point x="71" y="520" type="line" smooth="yes"/>
			<point x="51" y="520"/>
			<point x="36" y="505"/>
			<point x="36" y="485" type="curve" smooth="yes"/>
			<point x="36" y="204" type="line" smooth="yes"/>
			<point x="36" y="183"/>
			<point x="50" y="169"/>
			<point x="71" y="169" type="curve" smooth="yes"/>
			<point x="106" y="169" type="line" smooth="yes"/>
			<point x="127" y="169"/>
			<point x="141" y="183"/>
		</contour>
	</outline>
</glyph>
<glyph name="uni2197" format="2">
	<advance width="575"/>
	<unicode hex="2197"/>
	<outline>
		<contour>
			<point x="445" y="204" type="line"/>
			<point x="445" y="183"/>
			<point x="459" y="169"/>
			<point x="480" y="169" type="curve" smooth="yes"/>
			<point x="515" y="169" type="line" smooth="yes"/>
			<point x="536" y="169"/>
			<point x="550" y="183"/>
			<point x="550" y="204" type="curve" smooth="yes"/>
			<point x="550" y="485" type="line" smooth="yes"/>
			<point x="550" y="505"/>
			<point x="535" y="520"/>
			<point x="515" y="520" type="curve" smooth="yes"/>
			<point x="234" y="520" type="line" smooth="yes"/>
			<point x="213" y="520"/>
			<point x="199" y="506"/>
			<point x="199" y="485" type="curve" smooth="yes"/>
			<point x="199" y="457" type="line" smooth="yes"/>
			<point x="199" y="436"/>
			<point x="213" y="422"/>
			<point x="234" y="422" type="curve" smooth="yes"/>
			<point x="382" y="422" type="line"/>
			<point x="34" y="83" type="line" smooth="yes"/>
			<point x="18" y="67"/>
			<point x="18" y="47"/>
			<point x="35" y="32" type="curve" smooth="yes"/>
			<point x="58" y="12" type="line" smooth="yes"/>
			<point x="74" y="-3"/>
			<point x="93" y="-2"/>
			<point x="107" y="13" type="curve" smooth="yes"/>
			<point x="445" y="359" type="line"/>
		</contour>
	</outline>
</glyph>
<glyph name="uni2198" format="2">
	<advance width="575"/>
	<unicode hex="2198"/>
	<outline>
		<contour>
			<point x="434" y="316" type="curve" smooth="yes"/>
			<point x="434" y="161" type="line"/>
			<point x="117" y="507" type="line" smooth="yes"/>
			<point x="103" y="522"/>
			<point x="85" y="522"/>
			<point x="68" y="508" type="curve" smooth="yes"/>
			<point x="45" y="488" type="line" smooth="yes"/>
			<point x="28" y="473"/>
			<point x="28" y="453"/>
			<point x="44" y="437" type="curve" smooth="yes"/>
			<point x="371" y="98" type="line"/>
			<point x="223" y="98" type="line" smooth="yes"/>
			<point x="202" y="98"/>
			<point x="188" y="84"/>
			<point x="188" y="63" type="curve" smooth="yes"/>
			<point x="188" y="35" type="line" smooth="yes"/>
			<point x="188" y="14"/>
			<point x="202" y="0"/>
			<point x="223" y="0" type="curve" smooth="yes"/>
			<point x="504" y="0" type="line" smooth="yes"/>
			<point x="524" y="0"/>
			<point x="539" y="15"/>
			<point x="539" y="35" type="curve" smooth="yes"/>
			<point x="539" y="316" type="line" smooth="yes"/>
			<point x="539" y="337"/>
			<point x="525" y="351"/>
			<point x="504" y="351" type="curve" smooth="yes"/>
			<point x="469" y="351" type="line" smooth="yes"/>
			<point x="448" y="351"/>
			<point x="434" y="337"/>
		</contour>
	</outline>
</glyph>
<glyph name="uni2199" format="2">
	<advance width="575"/>
	<unicode hex="2199"/>
	<outline>
		<contour>
			<point x="127" y="316" type="line"/>
			<point x="127" y="337"/>
			<point x="113" y="351"/>
			<point x="92" y="351" type="curve" smooth="yes"/>
			<point x="57" y="351" type="line" smooth="yes"/>
			<point x="36" y="351"/>
			<point x="22" y="337"/>
			<point x="22" y="316" type="curve" smooth="yes"/>
			<point x="22" y="35" type="line" smooth="yes"/>
			<point x="22" y="15"/>
			<point x="37" y="0"/>
			<point x="57" y="0" type="curve" smooth="yes"/>
			<point x="338" y="0" type="line" smooth="yes"/>
			<point x="359" y="0"/>
			<point x="373" y="14"/>
			<point x="373" y="35" type="curve" smooth="yes"/>
			<point x="373" y="63" type="line" smooth="yes"/>
			<point x="373" y="84"/>
			<point x="359" y="98"/>
			<point x="338" y="98" type="curve" smooth="yes"/>
			<point x="190" y="98" type="line"/>
			<point x="538" y="437" type="line" smooth="yes"/>
			<point x="554" y="453"/>
			<point x="554" y="473"/>
			<point x="537" y="488" type="curve" smooth="yes"/>
			<point x="514" y="508" type="line" smooth="yes"/>
			<point x="498" y="523"/>
			<point x="479" y="522"/>
			<point x="465" y="507" type="curve" smooth="yes"/>
			<point x="127" y="161" type="line"/>
		</contour>
	</outline>
</glyph>
<glyph name="uni219E" format="2">
	<advance width="575"/>
	<unicode hex="219E"/>
	<outline>
		<contour>
			<point x="570" y="237" type="curve" smooth="yes"/>
			<point x="569" y="264" type="line" smooth="yes"/>
			<point x="568" y="287"/>
			<point x="555" y="299"/>
			<point x="534" y="299" type="curve" smooth="yes"/>
			<point x="359" y="299" type="line"/>
			<point x="428" y="392" type="line" smooth="yes"/>
			<point x="441" y="410"/>
			<point x="438" y="429"/>
			<point x="418" y="441" type="curve" smooth="yes"/>
			<point x="391" y="458" type="line" smooth="yes"/>
			<point x="374" y="469"/>
			<point x="356" y="468"/>
			<point x="343" y="449" type="curve" smooth="yes"/>
			<point x="242" y="299" type="line"/>
			<point x="146" y="299" type="line"/>
			<point x="215" y="392" type="line" smooth="yes"/>
			<point x="228" y="410"/>
			<point x="225" y="429"/>
			<point x="205" y="441" type="curve" smooth="yes"/>
			<point x="178" y="458" type="line" smooth="yes"/>
			<point x="161" y="469"/>
			<point x="143" y="468"/>
			<point x="130" y="449" type="curve" smooth="yes"/>
			<point x="11" y="273" type="line" smooth="yes"/>
			<point x="0" y="257"/>
			<point x="0" y="243"/>
			<point x="11" y="227" type="curve" smooth="yes"/>
			<point x="130" y="51" type="line" smooth="yes"/>
			<point x="142" y="33"/>
			<point x="160" y="30"/>
			<point x="178" y="42" type="curve" smooth="yes"/>
			<point x="205" y="59" type="line" smooth="yes"/>
			<point x="225" y="71"/>
			<point x="228" y="90"/>
			<point x="215" y="108" type="curve" smooth="yes"/>
			<point x="145" y="202" type="line"/>
			<point x="241" y="202" type="line"/>
			<point x="343" y="51" type="line" smooth="yes"/>
			<point x="355" y="33"/>
			<point x="373" y="30"/>
			<point x="391" y="42" type="curve" smooth="yes"/>
			<point x="418" y="59" type="line" smooth="yes"/>
			<point x="438" y="71"/>
			<point x="441" y="90"/>
			<point x="428" y="108" type="curve" smooth="yes"/>
			<point x="358" y="202" type="line"/>
			<point x="535" y="202" type="line" smooth="yes"/>
			<point x="557" y="202"/>
			<point x="571" y="215"/>
		</contour>
	</outline>
</glyph>
